<svg width="144" height="80" viewBox="0 0 144 80" fill="none" xmlns="http://www.w3.org/2000/svg">
<rect width="144" height="80" fill="#444444"/>
<path d="M131.5 2C125.695 2 121 6.5385 121 12.15C121 18.0122 127.227 26.024 130.09 29.3984C130.839 30.2813 132.161 30.2813 132.91 29.3984C135.773 26.024 142 18.0122 142 12.15C142 6.5385 137.305 2 131.5 2Z" fill="#6EC401"/>
<path d="M138 10.5C138 14.0899 135.09 17 131.5 17C127.91 17 125 14.0899 125 10.5C125 6.91015 127.91 4 131.5 4C135.09 4 138 6.91015 138 10.5Z" fill="#444444"/>
<path d="M127 39.5C127 37.0147 129.015 35 131.5 35V35C133.985 35 136 37.0147 136 39.5V60.5C136 62.9853 133.985 65 131.5 65V65C129.015 65 127 62.9853 127 60.5V39.5Z" fill="white"/>
<path d="M45.55 37.1L33.05 65H23.6L22.4 46.9L14.65 65H5.25001L2.60001 37.1H11.15L11.55 57.05L19.8 37.1H28.85L30.1 57.05L37.5 37.1H45.55Z" fill="white"/>
<path d="M48.6606 51C49.1606 48.1333 50.1439 45.6167 51.6106 43.45C53.0772 41.2833 54.8439 39.6167 56.9106 38.45C58.9772 37.2833 61.1606 36.7 63.4606 36.7C65.4272 36.7 67.0772 37.1 68.4106 37.9C69.7439 38.7 70.7106 39.75 71.3106 41.05L72.0106 37.1H80.5606L75.6106 65H67.0606L67.8106 61.05C66.7439 62.35 65.3939 63.4 63.7606 64.2C62.1272 65 60.3272 65.4 58.3606 65.4C56.3939 65.4 54.6439 64.95 53.1106 64.05C51.6106 63.15 50.4439 61.8833 49.6106 60.25C48.7772 58.5833 48.3606 56.6333 48.3606 54.4C48.3606 53.3333 48.4606 52.2 48.6606 51ZM69.5606 51.05C69.6606 50.45 69.7106 49.9 69.7106 49.4C69.7106 47.7667 69.2272 46.4833 68.2606 45.55C67.3272 44.6167 66.1272 44.15 64.6606 44.15C62.9606 44.15 61.4106 44.7667 60.0106 46C58.6106 47.2 57.7272 48.8667 57.3606 51C57.2606 51.6 57.2106 52.15 57.2106 52.65C57.2106 54.2833 57.6772 55.5833 58.6106 56.55C59.5772 57.4833 60.7772 57.95 62.2106 57.95C63.9106 57.95 65.4606 57.3333 66.8606 56.1C68.2606 54.8667 69.1606 53.1833 69.5606 51.05Z" fill="white"/>
<path d="M98.5461 41.05C99.6128 39.75 100.946 38.7 102.546 37.9C104.179 37.1 105.979 36.7 107.946 36.7C110.946 36.7 113.363 37.6833 115.196 39.65C117.063 41.6167 117.996 44.2833 117.996 47.65C117.996 48.6833 117.896 49.8 117.696 51C117.196 53.8667 116.213 56.4 114.746 58.6C113.279 60.7667 111.513 62.45 109.446 63.65C107.379 64.8167 105.196 65.4 102.896 65.4C100.963 65.4 99.3294 65 97.9961 64.2C96.6628 63.4 95.6794 62.3667 95.0461 61.1L91.9961 78.3H83.4461L90.6961 37.1H99.2461L98.5461 41.05ZM109.046 51C109.146 50.4333 109.196 49.9167 109.196 49.45C109.196 47.7833 108.713 46.4833 107.746 45.55C106.813 44.6167 105.613 44.15 104.146 44.15C102.446 44.15 100.896 44.7667 99.4961 46C98.0961 47.2333 97.1961 48.9167 96.7961 51.05C96.6961 51.65 96.6461 52.2 96.6461 52.7C96.6461 54.3333 97.1128 55.6167 98.0461 56.55C98.9794 57.4833 100.179 57.95 101.646 57.95C103.346 57.95 104.896 57.3333 106.296 56.1C107.729 54.8333 108.646 53.1333 109.046 51Z" fill="white"/>
</svg>
