<svg width="41" height="40" viewBox="0 0 41 40" fill="none" xmlns="http://www.w3.org/2000/svg">
<path d="M20.2178 0C9.17274 0 0.217773 8.95496 0.217773 20C0.217773 31.0463 9.17274 40 20.2178 40C31.2628 40 40.2178 31.0463 40.2178 20C40.2176 8.95496 31.2627 0 20.2178 0ZM25.8201 35.2362C25.7051 33.6712 25.5764 31.7324 25.5689 30.9474C25.5189 30.3449 25.4538 28.8124 23.9989 27.8337C29.7751 27.35 32.5238 24.1575 32.7214 19.9388C32.8865 17.5363 31.9314 15.4237 30.2352 13.7188C30.3214 11.8951 30.1801 9.73376 30.0628 8.78388C28.7603 8.4089 25.7228 10.0126 24.874 10.6989C23.0839 10.0038 18.7027 9.76013 16.0402 10.6989C14.1527 9.37141 12.004 8.55142 10.8328 8.78017C9.75148 11.1764 10.4465 13.4414 10.6577 13.7114C9.26514 14.9839 7.32268 16.5502 7.8502 19.8314C8.69642 24.6426 12.0814 27.2377 17.5314 27.8726C16.3689 28.1101 16.1726 28.9776 16.0751 29.3538C12.4151 30.8638 11.3689 28.4214 10.9064 27.7851C9.37018 25.8838 7.99136 26.4351 7.90636 26.4651C7.82384 26.495 7.76137 26.615 7.77016 26.6725C7.8476 27.0825 8.68393 27.4988 8.72512 27.5325C9.85886 28.3775 10.2789 29.9037 10.5376 30.3387C12.1638 33.0125 15.9438 31.9037 15.9801 31.9263C15.9826 32.16 15.9539 34.1276 15.9314 35.6588C9.039 33.7762 3.96774 27.4887 3.96774 20C3.96774 11.025 11.2428 3.7501 20.2176 3.7501C29.1925 3.7501 36.4677 11.025 36.4677 20C36.4677 27.0037 32.0302 32.9524 25.8201 35.2362Z" fill="#1F4E5F"/>
</svg>
