<svg width="500" height="501" viewBox="0 0 500 501" fill="none" xmlns="http://www.w3.org/2000/svg">
<mask id="mask0" mask-type="alpha" maskUnits="userSpaceOnUse" x="136" y="111" width="223" height="279">
<mask id="mask1" maskUnits="userSpaceOnUse" x="136" y="111" width="230" height="279">
<path fill-rule="evenodd" clip-rule="evenodd" d="M337.402 317.128C337.07 317.204 336.563 316.707 336.936 316.427C337.412 316.07 337.154 315.805 337.309 315.322C337.45 314.884 337.806 315.141 338.118 314.964L339.377 314.247C339.98 313.904 340.572 313.24 341.242 313.858C341.481 314.079 342.685 314.507 342.486 314.808C342.231 315.191 342.539 315.607 342.019 315.913C341.545 316.194 341.676 315.53 341.553 315.29C341.383 314.957 341.245 315.838 341.18 315.944C341.079 316.108 340.524 316.354 340.418 316.116C340.37 316.008 340.113 315.508 339.998 315.82C339.765 316.452 339.413 315.827 338.957 316.131C338.31 316.563 337.433 316.461 338.009 317.361C338.089 317.487 338.306 317.412 338.366 317.532C338.423 317.647 338.221 318.015 338.118 318.062C337.717 318.241 337.823 317.565 337.62 317.439L337.402 317.128ZM138.282 269.21C138.095 269.105 137.87 269.005 137.691 268.946C137.403 268.85 137.048 268.686 136.774 268.619C136.775 268.614 137.196 268.422 137.272 268.354C137.392 268.247 137.538 267.843 137.738 268.027C138.136 268.392 138.831 267.993 139.231 267.731C139.676 267.44 139.589 267.534 139.837 267.934C139.94 268.101 140.086 268.433 140.148 268.619C140.298 269.075 139.907 269.157 139.526 269.21C139.351 269.235 139.296 269.332 139.184 269.382C138.893 269.51 138.677 269.454 138.344 269.428L138.282 269.21ZM144.36 266.517C144.458 266.35 144.485 266.261 144.485 266.05C144.485 265.83 144.61 265.688 144.656 265.505L144.687 265.505C144.775 265.773 144.781 266.217 144.702 266.502C144.616 266.815 144.424 266.876 144.236 267.109C144.082 267.299 144.002 267.441 143.739 267.373C143.433 267.295 143.469 267.571 143.381 267.731C143.303 267.874 143.07 268.053 142.915 267.949C142.808 267.878 142.717 267.512 142.557 267.638C142.448 267.724 142.508 267.856 142.308 267.918C142.066 267.994 141.558 267.389 141.982 267.389C142.335 267.389 142.79 267.227 142.93 266.891C142.934 266.881 142.799 265.575 143.257 266.081C143.577 266.435 143.726 266.562 144.236 266.424L144.36 266.517ZM138.354 259.302C138.285 259.331 138.113 259.336 138.113 259.224C138.113 259.159 138.238 259.073 138.292 259.045C138.35 259.014 138.457 259.015 138.517 259.037C138.724 259.11 138.888 259.091 139.108 259.091C139.231 259.091 139.469 259.021 139.575 259.091C139.609 259.114 139.656 259.197 139.637 259.239C139.596 259.33 139.361 259.317 139.271 259.317C139.182 259.317 139.088 259.301 138.999 259.294C138.857 259.282 138.72 259.34 138.58 259.348L138.354 259.302ZM141.14 284.689C141.216 284.676 141.313 284.669 141.438 284.669C141.471 284.537 141.447 284.422 141.422 284.295C140.881 284.141 140.577 284.246 139.992 284.202C139.81 284.188 139.919 283.916 140.023 283.875C140.11 283.841 140.426 283.946 140.474 283.875C140.592 283.875 140.737 283.735 140.847 283.719C140.888 283.557 140.802 283.047 141.003 283.097C141.063 283.277 142.278 284.699 142.2 283.922C142.156 283.491 141.391 282.359 142.231 282.147C142.237 282.128 142.243 282.122 142.262 282.116C142.268 282.091 142.293 282.028 142.308 282.022C142.308 281.512 142.538 281.515 142.619 281.229C142.96 281.198 143.517 280.681 143.816 280.481C144.006 280.355 143.753 279.61 143.599 279.61C143.275 279.61 142.951 279.63 142.65 279.532C142.344 279.432 141.868 278.89 141.858 278.566C141.718 278.286 140.922 278.302 140.63 278.302C140.581 278.154 140.668 277.603 140.863 277.555C140.89 277.444 140.97 277.411 140.941 277.29L140.428 277.119C140.428 276.62 140.604 276.721 140.459 276.278L139.697 276.294L139.681 276.278C139.681 276.035 139.917 275.818 140.132 275.764C140.177 275.583 139.852 275.449 139.852 275.157C139.852 274.861 140.023 274.651 140.023 274.379C140.023 273.599 139.552 273.607 140.552 273.165C140.847 273.034 141.136 272.419 141.236 272.386C141.236 272.186 140.931 272.153 140.77 272.122C140.76 272.081 140.262 271.687 140.194 271.67C140.194 271.554 140.687 271.343 140.785 271.343C140.845 271.523 141.37 271.629 141.531 271.53C141.889 271.31 141.671 271.061 141.671 270.72C141.793 270.68 142.32 271.14 142.386 270.938C143.358 270.938 142.671 270.004 142.961 269.335C143.253 268.663 143.795 268.079 144.236 267.451C144.695 267.605 145.717 267.521 146.024 267.965C146.281 268.338 146.746 268.883 147.221 268.883C147.312 268.513 146.949 268.401 147.578 268.401C147.585 268.429 147.581 268.425 147.609 268.432C147.625 268.494 148.299 269.047 148.371 269.055C148.812 269.104 148.911 268.687 149.117 268.619C149.117 268.569 149.103 268.364 149.133 268.354L149.133 268.307L149.148 268.292C149.229 268.292 149.887 268.486 149.895 268.51L149.926 268.51C149.934 268.535 150.067 268.795 149.988 268.821C149.988 269.181 150.039 269.273 150.252 269.568C150.435 269.822 150.347 270.226 150.439 270.502C151.054 270.502 152.762 269.62 153.019 269.039C153.126 268.798 152.622 268.501 152.46 268.354C151.888 267.836 151.54 267.474 151.138 266.782C151.528 265.61 151.307 265.496 152.568 265.069C153.193 264.858 154.327 264.392 154.791 264.976C155.298 265.614 158.035 265.256 158.833 265.256C159.661 265.256 160.45 265.377 160.45 264.307C160.427 264.299 159.676 264.102 159.952 264.011C159.952 263.897 160.445 263.894 160.559 263.855C160.715 263.801 160.86 263.713 161.041 263.777C161.203 263.836 161.84 264.732 161.973 264.338C162.439 264.338 162.612 263.521 162.968 263.404C162.968 263.372 162.979 263.335 162.953 263.326C162.953 262.866 161.939 262.615 161.693 262.189C161.46 261.786 160.863 260.373 160.543 260.212C160.345 260.113 159.072 259.861 159.3 259.449C159.523 259.045 159.766 258.252 159.766 257.784L159.75 257.768C159.369 257.768 159.196 257.983 158.973 258.266C158.856 258.415 158.223 258.247 158.009 258.282C157.543 258.357 156.237 259.041 156.237 259.636C155.928 259.714 155.1 259.512 154.698 259.512C154.268 259.512 153.844 260.102 153.563 260.384C153.161 260.787 152.724 262.166 152.724 260.695C152.012 260.455 150.601 259.595 150.143 260.975C150.112 260.967 150.102 260.959 150.066 260.959C149.848 260.08 148.525 261.068 148.231 261.115C148.355 261.781 148.132 261.773 148.822 261.987C149.084 262.068 149.359 262.08 149.615 262.08C149.706 262.447 149.767 262.923 149.895 263.295C150.032 263.695 149.418 264.068 149.179 264.307C148.944 264.542 148.734 264.816 148.496 265.054C148.248 265.302 147.994 265.712 147.749 265.894C147.388 266.164 147.147 267.103 146.754 266.657C146.401 266.256 146.697 266.406 146.786 266.143C146.797 266.143 146.964 266.12 146.972 266.097L147.003 266.097C147.146 265.665 146.485 265.278 146.179 265.038C145.564 264.556 146.451 263.925 145.433 263.668C145.433 263.334 145.71 263.399 145.884 263.17C146.412 261.897 144.755 262.581 144.485 262.407C144.32 262.301 144.063 261.281 143.801 261.1C143.464 260.866 142.805 261.403 142.573 261.224C142.257 260.981 141.795 260.305 141.453 259.963C140.421 258.928 141.777 259.484 141.982 258.655C142.251 258.655 142.666 258.985 142.495 258.469L141.764 258.422C141.764 258.099 142.207 257.935 142.417 257.83C142.587 257.746 142.34 257.457 142.34 257.254C142.044 257.18 141.251 257.65 141.251 257.083C141.093 257.083 140.541 258.914 140.334 258.08C140.269 258.08 140.319 258.005 140.319 257.955C140.427 257.928 140.58 257.746 140.676 257.721C140.676 257.138 139.761 257.581 139.417 257.581C139.364 257.369 139.402 257.272 139.402 257.114C139.472 257.097 139.557 257.052 139.635 257.052L140.039 256.663C140.153 256.553 140.207 256.269 139.961 256.289C139.538 256.324 139.235 256.84 138.733 256.336C138.098 255.699 138.473 254.292 137.521 253.892C136.985 253.667 136.736 252.788 137.412 252.6C137.854 252.476 137.96 252.275 137.971 251.868C137.992 251.724 137.975 251.578 138.034 251.448C138.067 251.372 138.205 251.299 138.205 251.214C138.355 251.139 138.18 250.934 138.142 250.872C138.04 250.704 138.101 250.608 138.158 250.436C138.254 250.145 138.548 249.728 138.578 249.471C138.592 249.348 138.792 248.836 138.733 248.817L138.733 248.754C138.637 248.723 138.536 248.684 138.439 248.636L138.951 248.069C139.76 247.652 139.625 246.754 140.21 246.217C140.822 245.655 141.43 245.628 141.547 244.551C141.625 243.831 140.972 243.518 140.972 242.839C140.972 241.958 141.338 242.168 141.811 241.749C142.032 241.553 142.056 239.759 142.153 239.352C142.486 237.962 143.087 238.996 143.676 238.246C144.055 237.765 143.904 237.483 144.749 237.483C145.43 237.483 146.397 237.318 146.397 236.472C146.397 235.997 146.821 235.864 147.174 235.631C147.662 235.308 147.423 234.752 147.423 234.261C147.353 233.376 148.25 233.572 148.869 232.829C149.176 232.46 150.085 232.769 150.174 232.377C150.321 231.739 149.946 231.69 150.61 231.163C151.195 230.699 150.857 230.701 151.154 230.104C151.378 229.655 151.772 229.384 152.009 228.984C152.23 228.609 152.46 227.087 152.46 226.617C152.46 225.86 153.146 223.893 153.999 223.893C155.069 223.893 154.598 222.35 155.848 222.212L157.419 221.137C158.889 220.132 161.52 221.627 162.175 219.067C162.363 218.334 161.967 217.753 161.491 217.277C161.13 216.914 160.636 215.939 160.636 215.455C160.52 215.426 160.341 215.102 160.341 214.988C160.774 214.988 160.774 214.854 160.963 214.615C161.159 214.368 162.266 214.785 162.424 214.428C162.608 214.013 162.494 213.522 162.704 213.058C162.894 212.383 163.032 211.702 163.637 211.252C163.887 211.066 164.236 211.098 164.507 210.847C164.992 210.399 165.557 210.125 165.891 209.509C166.319 208.718 166.669 208.089 166.963 207.205L167.865 200.728L166.543 199L166.419 196.79L164.398 186.733C164.676 186.418 165.703 185.591 165.518 185.176C165.19 184.442 165.465 183.966 164.569 183.744C164.569 183.315 164.513 182.19 164.258 181.876C164.154 181.747 163.655 181.265 163.606 181.751C163.546 182.342 163.067 182.206 162.704 181.954L160.543 178.544C160.885 178.056 160.901 175.214 160.279 175.057C160.262 174.989 160.018 174.942 159.952 174.933C159.865 174.582 159.089 173.787 158.771 173.672C158.384 173.532 158.511 173.905 158.149 173.905C157.786 173.905 157.348 173.765 157.03 173.765C157.023 173.735 157.013 173.726 156.983 173.719C156.813 173.04 156.458 172.316 155.709 172.131C155.657 171.923 155.444 171.83 155.444 171.383C155.444 170.731 155.642 170.384 155.258 169.827C154.942 169.37 154.727 168.679 154.651 168.114C154.867 167.37 154.331 165.823 153.439 165.779C153.209 165.768 152.764 166 152.693 165.888C152.299 165.271 151.815 165.306 151.387 164.829C151.084 164.493 151.319 162.226 151.169 161.622C150.922 160.626 150.108 160.083 149.786 159.194C149.808 158.919 149.738 158.27 149.832 158.026C149.905 157.837 150.112 157.849 150.252 157.637C150.602 157.111 149.568 156.386 149.568 155.909C149.787 155.909 150.068 155.971 150.33 155.971C151.254 155.971 151.418 154.84 151.418 154.103L151.605 150.834C150.295 151.215 149.888 149.028 148.915 149.028C148.346 149.028 148.109 148.879 147.734 149.355C147.622 149.497 147.26 150.351 147.128 150.351C147.128 149.202 146.396 148.935 145.635 148.172C145.268 147.805 145.245 147.496 144.594 147.549C144.213 147.58 143.972 148.001 143.412 148.001L143.412 147.97C143.778 147.879 143.887 147.562 143.847 147.207C143.842 147.154 143.222 147.172 143.086 147.145C142.623 147.05 143.214 146.339 143.397 146.257C143.582 146.174 143.884 146.195 144.096 146.195C144.182 146.195 144.631 146.3 144.656 146.226L144.609 144.685L141.08 145.385L141.143 144.7L141.967 144.187L142.246 142.396L141.578 142.038C141.414 141.83 141.076 141.736 140.956 141.556C140.329 141.556 140.132 141.218 140.132 140.622L140.148 140.606C141.767 140.606 140.738 139.886 140.738 139.174C140.738 138.834 140.339 138.768 140.163 138.489C140.061 138.326 139.93 138.234 139.93 138.022C139.93 137.841 140.163 137.769 140.163 137.633C140.366 137.564 139.882 136.769 139.837 136.668C139.642 136.23 139.313 135.929 138.935 135.593L138.002 134.955L149.288 123.56L157.092 119.605L173.943 113.098L174.752 114.297L178.716 111.744L179.073 112.522L178.047 115.06L180.908 114.889L183.084 115.215L182.991 115.807L181.654 118.765L183.814 123.388L186.924 124.509L187.126 122.221L188.727 121.66L189.162 121.894L189.224 123.264L193.872 123.342L193.686 124.603L194.323 124.634L194.339 125.039L193.686 125.583L196.593 128.277L211.874 128.588C212.103 128.549 212.334 128.521 212.559 128.448C212.872 128.346 213.389 128.153 213.717 128.269C214.053 128.388 214.294 128.531 214.673 128.588L219.632 128.572L222.662 129.88C222.824 129.911 223.616 129.977 223.642 130.16C223.761 130.177 224.032 130.465 224.232 130.518C224.576 130.609 224.916 130.086 225.227 130.518C225.395 130.751 225.467 130.982 225.709 131.157C225.904 131.297 226.147 131.272 226.362 131.406C227.118 131.874 227.228 132.871 228.165 133.165L251.701 148.686L252.68 149.161L253.947 150.803L256.061 152.453L257.546 152.048L265.288 152.484L267.122 151.924C267.04 151.728 266.776 151.503 266.827 151.301C266.871 151.286 266.807 151.297 266.873 151.286C266.885 151.239 267.451 151.068 267.557 151.068C267.716 151.385 268.086 151.893 268.288 152.173C268.551 152.538 268.534 152.674 269.003 152.765C269.48 152.856 270.112 152.889 270.604 152.889C270.766 152.889 271.184 152.968 271.257 152.765C271.325 152.576 271.544 152.154 271.568 151.986C271.979 151.917 272.106 152.351 272.314 152.64C272.598 153.036 272.514 153.3 273.091 153.59L278.112 155.115C279.357 155.27 279.507 154.773 280.506 154.773C280.919 154.773 280.961 154.942 281.268 155.037C281.48 155.104 281.932 154.516 282.061 154.726C282.892 156.075 282.087 153.417 283.445 154.633C283.826 154.975 285.577 155.629 286.072 155.629C286.264 156.408 287.462 156.174 288.201 156.174C288.549 156.174 289.167 156.258 289.445 156.065C289.726 155.871 289.953 155.442 290.316 155.442C290.316 155.834 289.904 156.609 290.611 156.501C291.721 156.33 292.862 156.734 293.907 156.734C294.167 156.734 294.591 156.393 294.793 156.594C295.102 156.903 295.079 157.616 295.368 157.98L296.705 158.244L297.498 155.66L302.939 150.647L305.612 145.074L314.536 140.466L314.691 139.968L315.375 139.999L329.024 134.208L330.112 134.177L330.703 133.274L331.677 133.139C331.924 133.424 332.266 133.558 332.848 133.725C333.817 134.004 333.968 134.95 334.418 135.765C334.641 136.17 334.874 136.623 335.304 136.87C335.725 137.112 336.236 137.141 336.625 137.399C337.445 137.943 337.651 138.396 338.599 138.8C339.108 139.017 339.035 139.614 339.392 139.999C340.014 140.669 340.983 141.664 341.724 142.178C342.239 142.536 343.267 143.328 343.916 143.004C345.383 142.269 345.949 142.783 347.429 143.066C347.967 143.169 348.387 142.282 349.092 142.521C349.979 142.821 349.94 142.681 350.989 142.505C351.718 142.384 351.594 142.177 352.326 142.505C352.697 142.672 353.115 142.023 353.601 142.023C354.274 142.023 355.588 141.943 356.197 142.163C357.244 142.541 357.687 141.549 358.684 141.758C360.144 142.064 360.81 142.638 362.259 142.256C362.667 142.149 362.912 142.402 363.226 142.183L347.365 165.302L337.636 174.933L337.68 279.268L353.741 300.875L353.781 302.808C353.175 303.39 352.672 304.104 352.201 304.813C351.921 305.093 351.545 305.418 351.315 305.763C351.271 305.828 350.82 306.355 351.081 306.261C352.503 305.746 350.272 307.009 350.195 307.319L350.164 307.319C350.164 307.459 349.869 307.651 349.869 307.989C349.869 308.259 347.709 310.147 347.397 310.635C347.146 311.028 346.491 311.511 346.138 311.865C345.604 312.401 345.951 311.148 345.951 310.916C345.802 310.878 345.467 310.233 345.33 310.916C345.016 310.978 345.032 311.07 344.723 310.993C344.723 310.826 345.117 310.251 344.941 310.23C344.362 310.163 344.239 309.602 343.542 309.935C343.311 310.045 343.092 310.037 342.873 310.122C342.608 310.224 342.653 310.434 342.438 310.557C342.375 310.681 342.332 310.778 342.19 310.807C341.983 311.219 340.643 311.849 340.2 311.849C339.732 311.849 340.039 312.229 339.827 312.441C339.73 312.538 339.158 313.231 339.081 313.251C339.057 313.345 338.843 313.436 338.816 313.531C338.436 313.584 337.81 314.013 337.541 313.437C337.358 313.043 337.313 312.761 337.402 312.301C337.457 312.014 337.308 311.821 337.308 311.569C337.308 311.308 337.471 310.673 337.604 310.48C337.669 310.384 337.99 309.546 337.837 309.546L337.821 309.561C337.79 309.689 337.61 309.792 337.588 309.904C337.532 309.932 337.431 310.131 337.417 310.199C337.098 310.359 336.813 311.421 336.702 311.756C336.76 312.207 336.742 313.088 336.966 313.453C337.345 314.067 337.432 313.374 337.339 314.294C337.282 314.862 335.957 314.95 336.002 314.231C336.021 313.94 335.458 313.629 335.35 313.344C335.264 313.118 335.272 312.521 335.272 312.27C335.24 312.262 335.155 312.206 335.147 312.176C334.786 312.176 333.04 311.415 333.173 311.6C333.432 311.961 334.064 312.225 334.479 312.317C335.164 312.467 334.975 312.583 335.147 313.142C335.481 314.219 335.661 314.865 335.661 316.068C335.661 316.597 335.402 317.664 335.567 318.123C335.928 319.129 337.764 318.06 337.464 319.882C337.345 320.604 336.734 321.051 336.236 321.455C336.035 321.617 335.619 321.538 335.381 321.47C335.145 321.403 335.489 320.844 335.536 320.676C335.577 320.532 335.099 319.745 334.961 319.633C334.637 319.37 335.081 320.338 335.085 320.396C335.137 321.035 334.901 320.712 334.23 320.988C333.971 321.094 332.998 321.523 332.956 321.782C332.458 321.782 332.379 320.644 332.598 320.287C332.968 319.683 331.958 319.769 332.318 320.707C332.47 321.103 331.968 321.273 331.883 320.941C331.837 320.759 331.152 319.378 331.152 319.867C331.152 320.491 331.961 320.932 331.961 321.377C331.426 321.377 330.951 321.081 330.313 321.081C330.313 321.169 332.249 322.1 332.458 322.264C332.564 322.846 333.16 323.192 332.583 323.868C332.356 324.133 331.79 324.31 331.696 324.584C331.561 324.978 331.867 324.979 331.308 325.113C330.08 325.407 328.914 326.355 328.059 327.261C327.357 328.542 326.172 328.375 325.074 327.728C322.927 326.463 320.24 328.875 318.499 329.736C317.161 330.398 314.41 333.122 314.41 334.702C315.221 334.903 313.928 337.477 313.928 338.065C314.323 338.163 314.142 339.081 314.255 339.419C314.429 339.655 314.604 339.793 314.799 339.949C314.924 340.048 314.733 340.192 314.628 340.275C314.517 340.363 314.374 340.339 314.286 340.478C314.132 340.719 314 340.924 314.177 341.178C314.245 341.277 314.71 340.885 314.783 340.82C314.868 340.745 315.081 340.704 315.187 340.68C315.396 340.635 315.591 340.397 315.685 340.275C315.839 340.076 315.967 340.025 316.198 339.949L316.198 339.995C316.771 339.995 315.857 340.531 315.778 340.602C315.644 340.723 315.474 340.841 315.343 340.945C315.201 341.057 315.06 341.289 314.908 341.365C314.627 341.774 313.695 343.01 313.959 343.451C314.311 344.04 313.761 344.668 313.431 345.117C312.747 346.048 313.384 347.172 313.042 348.184C312.396 350.097 310.724 350.406 309.249 351.515C309.009 351.836 308.564 351.907 308.394 352.325L307.539 354.426C307.145 355.395 306.844 356.698 306.296 357.586C305.868 358.28 305.577 359.456 304.866 358.38C304.664 358.38 304.483 358.443 304.29 358.443C304.282 358.468 304.214 358.491 304.181 358.505C304.181 358.541 304.169 358.574 304.135 358.583C304.135 358.717 304.057 358.83 304.057 358.972C304.194 359.017 305.58 358.937 305.643 359.19C305.724 359.21 305.674 359.748 305.674 359.844C305.674 360.947 305.463 362.041 304.928 363.035C304.494 364.135 304.384 365.162 303.777 366.211C303.415 366.837 303.218 367.565 302.705 368.079C301.872 368.911 301.776 369.681 301.228 370.57C301.042 370.871 300.785 371.292 300.42 371.348C299.925 371.424 300.08 370.804 299.891 370.756C299.891 370.275 299.764 370.329 299.673 369.962C299.638 369.962 299.603 369.947 299.549 369.947C299.549 370.241 299.75 370.478 299.673 370.788C299.15 370.788 297.335 370.334 297.14 370.383C297.14 371.64 298.145 371.083 299.02 371.083C300.082 371.083 300.643 371.782 299.969 372.702C299.652 373.135 299.155 373.662 298.974 374.15L298.368 375.785C298.315 376.389 298.177 376.209 297.761 376.438C297.749 376.445 297.948 376.962 297.948 377.108C297.948 377.451 296.596 380.565 296.347 380.86C295.077 382.361 294.644 383.155 294.077 385.001C293.982 385.309 293.74 386.358 293.346 386.293C292.862 386.212 293.547 384.814 293.129 384.814L293.113 384.829C293.113 386.316 292.729 385.67 292.025 385.67C291.91 386.137 292.639 386.671 292.678 387.273C292.743 388.27 291.124 387.787 290.502 387.787C289.002 387.787 290.219 386.565 289.569 386.402C289.474 386.025 289.289 386.674 289.289 386.806C289.27 386.813 289.264 386.818 289.258 386.837C289.196 386.837 289.199 386.803 289.149 386.791C289.125 386.694 288.765 386.184 288.698 386.184C288.566 386.853 287.735 387.441 287.735 387.927C287.687 387.934 287.653 387.974 287.641 388.021C287.433 388.073 287.129 388.589 286.98 388.92L246.353 360.188L245.359 357.557C245.238 357.039 245.121 356.432 244.628 356.14C244.323 355.959 243.393 355.998 243.229 355.626C242.896 354.875 240.645 356.512 241.099 355.393C241.318 354.854 241.534 354.656 241.534 354.023L241.503 354.023C241.464 353.863 240.462 354.003 240.508 353.836C240.619 353.435 240.545 353.245 240.913 352.98C241.601 352.482 242.014 351.455 242.778 351.049C243.129 350.863 243.726 350.24 243.726 349.819C243.881 349.789 243.937 349.689 244.146 349.664L243.027 342.534L238.613 339.636L141.14 284.689Z" fill="#FEFEFE" stroke="black" stroke-miterlimit="22.9256"/>
</mask>
<g mask="url(#mask1)">
<rect width="30.7974" height="209.047" rx="15.3987" transform="matrix(0.545199 -0.838306 0.832265 0.554377 107.366 281.072)" fill="#C4C4C4"/>
<rect width="30.7974" height="223.768" rx="15.3987" transform="matrix(0.545199 -0.838306 0.832265 0.554377 113.722 241.364)" fill="#C4C4C4"/>
<rect width="30.7974" height="225.384" rx="15.3987" transform="matrix(0.545199 -0.838306 0.832265 0.554377 132.396 210.239)" fill="#C4C4C4"/>
<rect width="30.7974" height="289.784" rx="15.3987" transform="matrix(0.545199 -0.838306 0.832265 0.554377 106.484 149.364)" fill="#C4C4C4"/>
<rect width="30.7974" height="245.453" rx="15.3987" transform="matrix(0.545199 -0.838306 0.832265 0.554377 122.674 116.773)" fill="#C4C4C4"/>
<rect width="30.7974" height="157.852" rx="15.3987" transform="matrix(0.545199 -0.838306 0.832265 0.554377 195.453 121.582)" fill="#C4C4C4"/>
<rect width="30.7974" height="50.9566" rx="15.3987" transform="matrix(0.545199 -0.838306 0.832265 0.554377 297.901 147.135)" fill="#C4C4C4"/>
</g>
</mask>
<g mask="url(#mask0)">
<rect x="136.774" y="111.743" width="220.111" height="277.176" fill="url(#paint0_linear)"/>
</g>
<defs>
<linearGradient id="paint0_linear" x1="136.774" y1="157.486" x2="362.69" y2="289.296" gradientUnits="userSpaceOnUse">
<stop offset="0.00206825" stop-color="#34AE39"/>
<stop offset="1" stop-color="#00F0FF"/>
</linearGradient>
</defs>
</svg>
