<svg width="1423" height="646" viewBox="0 0 1423 646" fill="none" xmlns="http://www.w3.org/2000/svg">
<rect width="1423" height="646" fill="white"/>
<path d="M369.71 364.416C355.555 354.998 351.596 335.818 360.869 321.577C370.142 307.334 389.134 303.425 403.289 312.842L475.861 361.128C490.016 370.547 493.974 389.727 484.701 403.968C475.429 418.21 456.436 422.12 442.281 412.702L369.71 364.416Z" fill="url(#paint0_linear)"/>
<path d="M77.4315 83.2145C76.7927 82.7895 76.1746 82.3446 75.5776 81.8811L88.5798 68.7677L104.192 60.866L136.338 48.4663L153.729 60.037L157.653 68.4255L163.873 70.6653L164.198 67.0023L451.973 258.474C459.465 263.459 464.101 271.177 465.433 279.451L465.437 289.376C464.77 293.523 463.248 297.596 460.817 301.329C451.541 315.576 432.542 319.488 418.382 310.066L77.4315 83.2145Z" fill="url(#paint1_linear)"/>
<path d="M119.37 197.793L442.281 412.702C454.032 420.521 474.608 412.8 484.701 403.968L475.861 361.128L465.465 354.125L76.209 95.1337C73.1911 93.1258 69.9535 91.7234 66.637 90.8977L66.0015 91.5387L67.8685 92.8142C68.6237 93.4841 69.2824 94.0854 69.6723 94.9606C69.6878 94.9953 69.7289 95.0704 69.7844 95.172C70.0537 95.6643 70.6619 96.7764 70.3253 96.8896C70.3253 97.0163 70.2246 97.1151 70.1167 97.2209C69.9925 97.3428 69.8589 97.4738 69.8589 97.6673C69.8589 97.9758 69.9984 98.158 70.1533 98.3602C70.2106 98.435 70.2701 98.5127 70.3253 98.6004C70.4656 98.823 70.6774 98.9778 70.8812 99.1267C71.1876 99.3506 71.4759 99.5614 71.4759 99.9693C71.4759 100.404 71.6679 100.84 71.8423 101.236C72.239 102.137 72.5448 102.831 70.2942 102.831L70.2632 102.862C70.2632 104.055 70.657 104.729 71.9115 104.729C72.0309 104.907 72.258 105.044 72.4963 105.187C72.7377 105.332 72.9909 105.484 73.1553 105.693L74.4928 106.409L73.933 109.986L72.2847 111.013L72.1602 112.382L79.2199 110.982L79.3133 114.062C79.2788 114.165 78.8221 114.092 78.4956 114.04C78.3584 114.018 78.2442 114 78.1937 114C78.1258 114 78.0533 113.999 77.978 113.998C77.5822 113.992 77.1062 113.985 76.794 114.124C76.4282 114.287 75.2467 115.709 76.1722 115.897C76.2818 115.919 76.5484 115.927 76.8286 115.935C77.2438 115.947 77.689 115.959 77.696 116.022C77.7759 116.731 77.5562 117.365 76.8252 117.546V117.608C77.4588 117.608 77.888 117.34 78.279 117.095C78.5796 116.907 78.8576 116.733 79.1888 116.706C80.1745 116.626 80.4414 116.959 80.8301 117.443C80.9555 117.599 81.0935 117.771 81.2724 117.95C81.6343 118.313 81.9929 118.619 82.3291 118.906C83.4079 119.828 84.258 120.555 84.258 122.306C84.4286 122.306 84.7908 121.594 85.0867 121.014C85.2491 120.695 85.3915 120.415 85.471 120.315C86.0633 119.565 86.4832 119.591 87.1922 119.636C87.3825 119.648 87.5937 119.661 87.8347 119.661C88.6873 119.661 89.3227 120.501 89.9881 121.379C90.841 122.506 91.7431 123.697 93.215 123.27L92.8417 129.803C92.8417 131.276 92.5127 133.536 90.6647 133.536C90.3903 133.536 90.1059 133.502 89.8344 133.47C89.5866 133.44 89.3495 133.412 89.1408 133.412C89.1408 133.8 89.4845 134.271 89.8443 134.764C90.3671 135.479 90.9237 136.242 90.5092 136.865C90.3733 137.069 90.2067 137.169 90.0543 137.261C89.8915 137.359 89.7448 137.447 89.6693 137.643C89.5465 137.959 89.5628 138.62 89.5769 139.194C89.5845 139.501 89.5915 139.784 89.5761 139.975C89.8682 140.781 90.3626 141.445 90.8619 142.114C91.464 142.923 92.0734 143.74 92.344 144.829C92.4687 145.33 92.4603 146.406 92.4514 147.541C92.439 149.134 92.4256 150.844 92.7794 151.237C93.1526 151.652 93.5469 151.873 93.9383 152.092C94.445 152.375 94.9467 152.657 95.3917 153.352C95.4727 153.479 95.7921 153.386 96.1376 153.285C96.4031 153.207 96.6843 153.125 96.8845 153.135C98.669 153.223 99.7425 156.314 99.3103 157.801C99.4605 158.93 99.8925 160.311 100.523 161.223C101.082 162.032 101.026 162.619 100.953 163.379C100.926 163.666 100.896 163.977 100.896 164.334C100.896 164.916 101.078 165.198 101.232 165.438C101.315 165.566 101.389 165.683 101.425 165.828C102.925 166.198 103.635 167.644 103.975 169.001C104.035 169.015 104.054 169.034 104.069 169.094C104.376 169.094 104.74 169.16 105.116 169.227C105.517 169.299 105.933 169.373 106.308 169.373C106.64 169.373 106.767 169.216 106.881 169.073C107.016 168.904 107.134 168.756 107.552 168.907C108.187 169.137 109.741 170.726 109.916 171.427C110.047 171.446 110.535 171.539 110.569 171.676C111.814 171.99 111.781 177.667 111.097 178.644L115.42 185.457C116.147 185.96 117.104 186.233 117.224 185.053C117.322 184.082 118.321 185.044 118.53 185.301C119.039 185.929 119.152 188.177 119.152 189.035C120.391 189.341 120.51 189.891 120.682 190.686C120.759 191.04 120.847 191.444 121.049 191.896C121.339 192.544 120.148 193.694 119.348 194.467C119.124 194.683 118.931 194.87 118.809 195.008L119.37 197.793Z" fill="url(#paint2_linear)"/>
<path d="M404.416 474.608C413.079 480.372 423.553 481.145 432.503 477.616C433.304 477.189 434.122 476.807 434.943 476.527C439.628 474.185 443.775 470.597 446.851 465.871C456.127 451.624 452.168 432.438 438.008 423.016L122.44 213.053L122.852 215.104L123.101 219.522L125.745 222.975L123.941 235.916C123.379 237.604 122.716 238.825 121.911 240.307L121.796 240.52C121.336 241.368 120.657 241.892 119.962 242.428C119.648 242.671 119.33 242.917 119.028 243.195C118.728 243.472 118.381 243.576 118.046 243.677C117.774 243.759 117.51 243.838 117.286 244.005C116.187 244.821 115.858 246.018 115.523 247.242C115.489 247.366 115.455 247.489 115.42 247.613C115.203 248.093 115.159 248.587 115.116 249.067C115.076 249.516 115.037 249.951 114.86 250.351C114.689 250.737 113.96 250.67 113.266 250.605C112.679 250.55 112.116 250.498 111.937 250.724C111.869 250.81 111.813 250.889 111.762 250.961C111.53 251.289 111.403 251.471 110.693 251.471C110.693 251.699 111.05 252.346 111.284 252.404C111.284 253.37 112.27 255.318 112.994 256.044C113.945 256.996 114.738 258.156 114.363 259.621C113.552 262.786 111.227 262.849 108.876 262.913C107.427 262.953 105.967 262.992 104.846 263.759L101.705 265.906C100.421 266.047 100.044 266.929 99.6917 267.753C99.3579 268.535 99.046 269.265 98.0041 269.265C97.5701 269.265 97.1575 269.519 96.7837 269.925L404.416 474.608Z" fill="url(#paint3_linear)"/>
<path d="M407.491 525.172C407.242 525.36 407.021 525.583 406.886 525.913L406.632 526.539C397.295 540.572 378.441 544.379 364.368 535.016L92.5353 354.15C92.5621 354.059 92.5872 353.97 92.6112 353.886C92.9985 352.525 93.0779 352.246 95.1429 351.549C95.2511 351.512 95.367 351.472 95.4889 351.429C96.7752 350.981 98.742 350.295 99.5901 351.362C100.386 352.363 103.926 352.138 106.186 351.994C106.807 351.955 107.332 351.922 107.676 351.922H107.736H107.831C107.934 351.923 108.036 351.925 108.137 351.926C109.613 351.946 110.911 351.964 110.911 350.025C110.907 350.023 110.894 350.02 110.873 350.014C110.635 349.947 109.408 349.602 109.915 349.433C109.915 349.279 110.366 349.227 110.728 349.185C110.901 349.165 111.054 349.147 111.128 349.123C111.188 349.102 111.246 349.079 111.305 349.056C111.554 348.959 111.8 348.862 112.092 348.967C112.194 349.003 112.387 349.202 112.614 349.435C113.114 349.95 113.775 350.63 113.958 350.087C114.483 350.087 114.822 349.569 115.146 349.075C115.397 348.691 115.638 348.323 115.949 348.22C115.949 348.211 115.949 348.202 115.95 348.192L115.951 348.175C115.955 348.125 115.958 348.078 115.918 348.064C115.918 347.547 115.276 347.162 114.627 346.774C114.122 346.47 113.613 346.166 113.398 345.794C113.269 345.569 113.083 345.189 112.868 344.749C112.311 343.611 111.559 342.074 111.097 341.843C111.01 341.8 110.82 341.742 110.581 341.669L110.579 341.668L110.577 341.667C109.724 341.408 108.255 340.959 108.609 340.319C109.056 339.51 109.542 337.925 109.542 336.99L109.511 336.959C108.748 336.959 108.402 337.388 107.956 337.954C107.81 338.14 107.26 338.079 106.765 338.024C106.467 337.991 106.188 337.959 106.028 337.985C105.095 338.136 102.483 339.502 102.483 340.692C102.116 340.784 101.384 340.679 100.682 340.579C100.2 340.51 99.7307 340.443 99.4036 340.443C98.7149 340.443 98.0349 341.197 97.5032 341.787C97.3699 341.935 97.2458 342.072 97.1334 342.185C96.8896 342.429 96.6394 342.852 96.4091 343.241C95.879 344.138 95.454 344.856 95.454 342.807C95.2389 342.735 94.9919 342.634 94.7245 342.525H94.7234L94.7182 342.523L94.7149 342.522L94.7138 342.521C93.2103 341.907 91.0666 341.031 90.2914 343.367C90.2728 343.362 90.258 343.358 90.2445 343.354C90.2123 343.344 90.1874 343.336 90.1358 343.336C89.8055 342.005 88.2068 342.815 87.1957 343.327C86.8719 343.491 86.6084 343.623 86.466 343.646C86.5277 343.978 86.5466 344.225 86.5611 344.417C86.6053 344.997 86.6107 345.068 87.6479 345.389C88.1717 345.551 88.7221 345.576 89.2339 345.576C89.301 345.846 89.3598 346.146 89.4204 346.454L89.4207 346.456C89.5241 346.982 89.6323 347.533 89.7937 348.003C90.0096 348.63 89.2988 349.225 88.7524 349.682C88.603 349.807 88.4654 349.922 88.3631 350.025C88.1279 350.259 87.9057 350.513 87.6829 350.767L87.6822 350.768L87.5967 350.865L81.9611 347.115C82.0941 346.216 81.3442 346.125 80.5531 346.179L78.2109 344.62C78.017 344.168 77.8106 343.76 77.6025 343.616C77.3503 343.441 77.0074 343.483 76.6528 343.584L72.3535 340.723C71.8934 340.093 72.2435 339.971 72.7387 339.799C73.2009 339.639 73.7895 339.434 73.9639 338.731C74.1252 338.731 74.3128 338.791 74.4874 338.846C74.8945 338.975 75.2298 339.081 74.9901 338.359L73.5284 338.265C73.5284 337.695 74.2168 337.374 74.6685 337.162C74.7289 337.134 74.7849 337.107 74.8346 337.083C75.042 336.981 74.9378 336.724 74.8254 336.448C74.754 336.273 74.6793 336.089 74.6793 335.932C74.4813 335.883 74.1723 335.954 73.8487 336.03C73.2046 336.18 72.5022 336.344 72.5023 335.59C72.3944 335.59 72.1957 336.012 71.9642 336.504C71.5143 337.461 70.9404 338.681 70.6673 337.58C70.5781 337.58 70.5969 337.511 70.6174 337.434C70.6266 337.399 70.6363 337.363 70.6363 337.332C70.7478 337.304 70.8827 337.194 71.0136 337.087C71.1374 336.987 71.2577 336.889 71.3516 336.865C71.3516 336.02 70.3874 336.254 69.5956 336.446L69.5935 336.447C69.2948 336.518 69.0207 336.585 68.8324 336.585C68.7584 336.287 68.773 336.103 68.7883 335.911C68.7947 335.83 68.8014 335.746 68.8014 335.652C68.8495 335.64 68.9013 335.622 68.9547 335.603L68.9559 335.602C69.0579 335.566 69.1662 335.527 69.2677 335.527L70.0765 334.75C70.3048 334.53 70.4132 333.962 69.9209 334.003C69.6453 334.026 69.3952 334.151 69.1486 334.274C68.6378 334.528 68.1417 334.776 67.4641 334.097C66.915 333.547 66.7433 332.708 66.5715 331.87C66.3458 330.769 66.1199 329.666 65.0384 329.213C63.9671 328.764 63.4689 327.008 64.8205 326.63C65.7052 326.384 65.9165 325.982 65.94 325.168C65.9536 325.073 65.9591 324.978 65.9645 324.884C65.9755 324.692 65.9862 324.503 66.0645 324.329C66.0925 324.266 66.1564 324.204 66.2216 324.14C66.3129 324.051 66.4067 323.96 66.4067 323.861C66.6667 323.732 66.4423 323.409 66.3268 323.244C66.3084 323.217 66.2927 323.195 66.2822 323.178C66.1062 322.89 66.1713 322.708 66.2652 322.444C66.2808 322.401 66.2971 322.355 66.3132 322.306C66.3941 322.062 66.5457 321.771 66.6983 321.48C66.9077 321.079 67.1191 320.675 67.1531 320.378C67.1637 320.285 67.228 320.08 67.2974 319.86C67.4109 319.498 67.5377 319.095 67.4641 319.071V318.946C67.272 318.882 67.0701 318.806 66.8756 318.71L67.8994 317.578C68.8191 317.103 69.1292 316.32 69.44 315.535C69.6764 314.938 69.9131 314.34 70.4186 313.876C70.7594 313.563 71.0994 313.334 71.4178 313.118C72.2443 312.56 72.9249 312.101 73.0932 310.547C73.1754 309.787 72.8502 309.254 72.5248 308.72C72.2337 308.243 71.9425 307.766 71.9425 307.125C71.9425 305.911 72.2906 305.734 72.8171 305.467C73.0544 305.346 73.3277 305.207 73.6218 304.947C73.9041 304.697 74.0254 303.143 74.1271 301.841C74.1845 301.106 74.2357 300.45 74.3061 300.157C74.6893 298.557 75.2505 298.564 75.8828 298.572C76.3487 298.577 76.8533 298.583 77.3538 297.948C77.5553 297.692 77.6818 297.464 77.7908 297.268C78.091 296.727 78.2594 296.423 79.4998 296.423C80.861 296.423 82.7962 296.093 82.7962 294.401C82.7962 293.637 83.3467 293.317 83.9304 292.978L83.9316 292.977C84.0719 292.895 84.2143 292.812 84.3513 292.721C85.0845 292.237 84.9967 291.488 84.9078 290.731C84.8783 290.48 84.8487 290.228 84.8487 289.984C84.7666 288.938 85.3599 288.647 86.1143 288.278C86.6362 288.023 87.2352 287.729 87.7411 287.122C88.041 286.762 88.6271 286.725 89.1698 286.69C89.7397 286.654 90.2616 286.62 90.3535 286.22C90.4543 285.78 90.4311 285.48 90.4121 285.233C90.3758 284.764 90.3542 284.483 91.2244 283.793C91.9354 283.229 91.9647 283.01 92.0116 282.656C92.0419 282.429 92.0795 282.145 92.3129 281.677C92.523 281.257 92.8084 280.914 93.101 280.585L397.96 483.423C411.757 492.603 415.869 511.054 407.491 525.172Z" fill="url(#paint4_linear)"/>
<path d="M202.44 78.584C203.703 79.778 205.084 80.8807 206.577 81.8746L418.126 222.629C432.286 232.05 451.285 228.138 460.561 213.891C463.31 209.668 464.898 205.011 465.399 200.302L465.397 193.656C464.445 184.769 459.703 176.35 451.717 171.036L389.003 129.31L385.087 132.914L383.501 138.078L380.826 137.549C380.549 137.201 380.415 136.692 380.282 136.188C380.14 135.642 379.997 135.102 379.676 134.781C379.425 134.53 379.002 134.7 378.593 134.863C378.344 134.963 378.1 135.06 377.903 135.06C377.055 135.06 376.175 134.927 375.279 134.792C373.97 134.594 372.629 134.392 371.309 134.594C370.265 134.754 370.441 133.951 370.605 133.204V133.203C370.663 132.939 370.719 132.683 370.719 132.478C370.238 132.478 369.877 132.854 369.524 133.22C369.345 133.407 369.167 133.592 368.977 133.723C368.54 134.025 367.685 133.987 367.001 133.957C366.814 133.948 366.639 133.94 366.489 133.94C366.223 133.94 365.928 133.956 365.619 133.971C364.213 134.043 362.545 134.128 362.228 132.852C361.239 132.852 357.737 131.544 356.973 130.861C355.487 129.531 355.296 130.519 355.156 131.245C355.04 131.846 354.958 132.268 354.205 131.047C354.065 130.821 353.737 131.059 353.398 131.305C353.11 131.515 352.813 131.73 352.619 131.669C352.39 131.598 352.235 131.507 352.087 131.42C351.838 131.274 351.613 131.141 351.095 131.141C350.226 131.141 349.679 131.328 349.133 131.515C348.421 131.758 347.714 132.001 346.305 131.825L336.26 128.776C335.476 128.383 335.301 128.013 335.092 127.568C334.994 127.358 334.887 127.132 334.705 126.879C334.614 126.751 334.529 126.609 334.445 126.467C334.149 125.966 333.852 125.465 333.212 125.572C333.182 125.785 332.995 126.201 332.827 126.573C332.73 126.788 332.64 126.989 332.59 127.128C332.473 127.456 331.902 127.416 331.517 127.388C331.477 127.386 331.44 127.383 331.404 127.381C331.359 127.378 331.319 127.376 331.284 127.376C330.3 127.376 329.035 127.31 328.081 127.128C327.333 126.984 327.203 126.782 326.915 126.338L326.914 126.337C326.841 126.223 326.757 126.094 326.65 125.945L326.577 125.844L326.575 125.841C326.16 125.267 325.488 124.334 325.188 123.737C324.976 123.737 323.844 124.079 323.821 124.172C323.752 124.183 323.753 124.184 323.758 124.185C323.762 124.186 323.771 124.189 323.727 124.203C323.662 124.466 323.862 124.747 324.054 125.019C324.158 125.166 324.261 125.31 324.317 125.448L320.648 126.568L305.16 125.697L302.19 126.505L297.961 123.208L295.426 119.926L293.467 118.977L246.382 87.9613C245.322 87.6294 244.791 86.8492 244.257 86.0645C243.846 85.4601 243.432 84.8529 242.774 84.4457C242.567 84.3172 242.346 84.2622 242.13 84.2083C241.897 84.1503 241.669 84.0935 241.468 83.9481C241.137 83.7099 240.964 83.4186 240.782 83.1101C240.697 82.9669 240.61 82.8197 240.503 82.6726C240.127 82.1502 239.729 82.3263 239.322 82.5068C239.056 82.6247 238.785 82.7445 238.513 82.6727C238.299 82.6159 238.043 82.4239 237.815 82.2528C237.618 82.105 237.442 81.9727 237.332 81.9572C237.29 81.6602 236.235 81.5175 235.669 81.4407C235.538 81.423 235.433 81.4089 235.372 81.3971L229.308 78.7839L219.389 78.8152C218.865 78.7363 218.473 78.5751 218.057 78.4044C217.872 78.3285 217.682 78.2507 217.476 78.1774C216.877 77.9659 215.963 78.269 215.332 78.478C215.271 78.4981 215.213 78.5172 215.158 78.535C214.796 78.6527 214.424 78.7124 214.052 78.772L214.051 78.7722C213.964 78.7861 213.876 78.8002 213.79 78.815L202.44 78.584Z" fill="url(#paint5_linear)"/>
<path d="M411.532 132.936C405.39 128.849 401.167 122.924 399.111 116.362L401.321 111.76L419.173 102.551L419.484 101.556L420.852 101.618L448.158 90.0456L450.335 89.9833L451.516 88.1789L453.465 87.9099C453.961 88.4799 454.644 88.7473 455.808 89.0812C457.277 89.5031 457.807 90.6908 458.369 91.9501C458.548 92.3525 458.731 92.7621 458.949 93.1565L459.019 93.2844C459.446 94.0601 459.907 94.898 460.721 95.3652C461.121 95.5942 461.561 95.7277 461.996 95.8599C462.478 96.0064 462.955 96.1513 463.365 96.4228C464.004 96.8465 464.457 97.2425 464.884 97.616C465.553 98.2002 466.157 98.7293 467.315 99.2226C467.911 99.477 468.108 99.9933 468.313 100.532C468.457 100.911 468.606 101.301 468.901 101.618C470.144 102.956 472.083 104.944 473.566 105.973C473.647 106.03 473.735 106.091 473.828 106.157C474.916 106.924 476.755 108.22 477.951 107.622C480.175 106.511 481.363 106.83 483.097 107.296L483.197 107.323C493.59 117.479 495.734 133.936 487.533 146.532C478.257 160.779 459.258 164.691 445.098 155.269L411.532 132.936Z" fill="url(#paint6_linear)"/>
<path d="M77.2947 357.878L360.732 546.463C374.892 555.885 378.851 575.072 369.575 589.318C367.443 592.593 364.797 595.321 361.814 597.467L282.768 541.626L280.778 536.368L280.743 536.214C280.512 535.215 280.254 534.092 279.316 533.537C279.087 533.401 278.679 533.328 278.243 533.248C277.521 533.118 276.722 532.972 276.518 532.51C276.195 531.783 274.973 532.176 273.902 532.52C272.759 532.886 271.788 533.198 272.257 532.044C272.378 531.744 272.499 531.498 272.611 531.271C272.901 530.68 273.127 530.22 273.127 529.306H273.066C273.026 529.149 272.52 529.137 272.028 529.126C271.52 529.114 271.027 529.103 271.075 528.933C271.131 528.729 271.164 528.552 271.193 528.394C271.279 527.928 271.337 527.617 271.883 527.222C272.506 526.773 273.016 526.108 273.528 525.439C274.15 524.627 274.778 523.809 275.616 523.365C276.318 522.992 277.512 521.748 277.512 520.907C277.648 520.88 277.746 520.826 277.848 520.771C277.978 520.7 278.117 520.624 278.352 520.596L276.113 506.348L267.283 500.557L72.2798 390.756C72.4317 390.729 72.6253 390.715 72.8756 390.715C72.9406 390.453 72.8954 390.225 72.8457 389.974L72.8445 389.968C72.1617 389.775 71.6675 389.786 71.1027 389.799C70.7716 389.807 70.4153 389.815 69.9832 389.782C69.6194 389.755 69.8366 389.211 70.0456 389.129C70.1214 389.099 70.2842 389.122 70.4516 389.146C70.6683 389.177 70.8934 389.209 70.9473 389.129C71.0761 389.129 71.2202 389.046 71.3606 388.965C71.478 388.898 71.5928 388.832 71.6937 388.817C71.7188 388.718 71.72 388.552 71.7212 388.373C71.724 387.972 71.7273 387.505 72.0047 387.574C72.1245 387.934 74.5568 390.776 74.3995 389.222C74.3762 388.993 74.2509 388.665 74.1112 388.298C73.7251 387.287 73.2283 385.985 74.4615 385.675C74.4743 385.637 74.4859 385.626 74.5239 385.613C74.5362 385.563 74.5852 385.437 74.6171 385.427C74.6171 384.786 74.798 384.55 74.9729 384.322C75.0768 384.186 75.1786 384.053 75.2392 383.84C75.7362 383.795 76.464 383.233 77.054 382.777C77.2725 382.609 77.472 382.455 77.634 382.347C78.0124 382.096 77.5069 380.604 77.1984 380.604C77.104 380.604 77.0096 380.605 76.9154 380.606C76.3629 380.611 75.8155 380.616 75.3014 380.45C74.6883 380.25 73.7352 379.166 73.7152 378.52C73.4491 377.987 71.9886 377.99 71.346 377.991L71.2583 377.992C71.1618 377.698 71.3343 376.595 71.725 376.499C71.7456 376.415 71.7814 376.353 71.8147 376.296C71.8695 376.201 71.9175 376.119 71.8805 375.97L70.8541 375.627C70.8541 375.204 70.9176 374.997 70.9686 374.832C71.0377 374.607 71.0835 374.457 70.9162 373.947L69.3924 373.978L69.3613 373.947C69.3613 373.461 69.8337 373.029 70.2632 372.92C70.3059 372.749 70.1825 372.599 70.0408 372.426C69.8834 372.233 69.7035 372.014 69.7035 371.707C69.7035 371.405 69.7926 371.147 69.8799 370.896C69.9636 370.654 70.0456 370.419 70.0456 370.152C70.0456 369.687 69.9617 369.363 69.8971 369.112C69.7449 368.523 69.6993 368.347 71.1028 367.726C71.4697 367.563 71.8317 367.029 72.1012 366.631C72.2658 366.387 72.3958 366.195 72.4713 366.17C72.4714 365.811 71.9802 365.722 71.6463 365.661C71.6079 365.654 71.5716 365.647 71.5384 365.641C71.5183 365.561 70.5237 364.773 70.3875 364.739C70.3875 364.507 71.3724 364.086 71.5694 364.086C71.6884 364.445 72.7389 364.657 73.0622 364.459C73.5677 364.148 73.4985 363.809 73.4144 363.397C73.3795 363.225 73.3419 363.041 73.3419 362.842C73.4405 362.809 73.6708 362.939 73.9191 363.079C74.2866 363.287 74.6938 363.517 74.7726 363.277C75.9818 363.277 75.9074 362.554 75.818 361.687C75.7637 361.16 75.7038 360.578 75.9232 360.073C76.2589 359.299 76.7607 358.584 77.2947 357.878Z" fill="url(#paint7_linear)"/>
<path d="M618.1 259.42L611.44 266.26V277H603.64V235H611.44V256.54L632.2 235H640.96L623.32 253.78L642.04 277H632.92L618.1 259.42ZM792.851 270.46V277H761.351V235H792.011V241.54H769.151V252.46H789.431V258.88H769.151V270.46H792.851ZM952.866 235V277H946.446L923.286 248.56V277H915.546V235H921.966L945.126 263.44V235H952.866ZM1096.24 262.18V277H1088.44V262.3L1071.94 235H1080.28L1092.58 255.46L1105 235H1112.68L1096.24 262.18ZM1256.51 267.28H1235.51L1231.37 277H1223.33L1242.23 235H1249.91L1268.87 277H1260.71L1256.51 267.28ZM1253.93 261.16L1246.01 242.8L1238.15 261.16H1253.93Z" fill="black"/>
<path d="M665.65 354.75V384C661.983 386.7 658.067 388.683 653.9 389.95C649.767 391.183 645.333 391.8 640.6 391.8C634.7 391.8 629.35 390.883 624.55 389.05C619.783 387.217 615.7 384.667 612.3 381.4C608.933 378.133 606.333 374.233 604.5 369.7C602.667 365.167 601.75 360.217 601.75 354.85C601.75 349.417 602.633 344.433 604.4 339.9C606.167 335.367 608.667 331.467 611.9 328.2C615.167 324.933 619.117 322.4 623.75 320.6C628.383 318.8 633.583 317.9 639.35 317.9C642.283 317.9 645.017 318.133 647.55 318.6C650.117 319.067 652.483 319.717 654.65 320.55C656.85 321.35 658.85 322.333 660.65 323.5C662.45 324.667 664.1 325.95 665.6 327.35L661.75 333.45C661.15 334.417 660.367 335.017 659.4 335.25C658.433 335.45 657.383 335.2 656.25 334.5C655.15 333.867 654.05 333.233 652.95 332.6C651.85 331.967 650.617 331.417 649.25 330.95C647.917 330.483 646.4 330.1 644.7 329.8C643.033 329.5 641.1 329.35 638.9 329.35C635.333 329.35 632.1 329.95 629.2 331.15C626.333 332.35 623.883 334.067 621.85 336.3C619.817 338.533 618.25 341.217 617.15 344.35C616.05 347.483 615.5 350.983 615.5 354.85C615.5 358.983 616.083 362.683 617.25 365.95C618.45 369.183 620.117 371.933 622.25 374.2C624.417 376.433 627.017 378.15 630.05 379.35C633.083 380.517 636.467 381.1 640.2 381.1C642.867 381.1 645.25 380.817 647.35 380.25C649.45 379.683 651.5 378.917 653.5 377.95V364.85H644.4C643.533 364.85 642.85 364.617 642.35 364.15C641.883 363.65 641.65 363.05 641.65 362.35V354.75H665.65ZM702.109 329.4V349.45H727.409V359.8H702.109V380.25H734.209V391H688.609V318.7H734.209V329.4H702.109ZM823.516 354.85C823.516 360.15 822.632 365.067 820.866 369.6C819.132 374.1 816.666 378 813.466 381.3C810.266 384.6 806.416 387.183 801.916 389.05C797.416 390.883 792.416 391.8 786.916 391.8C781.449 391.8 776.466 390.883 771.966 389.05C767.466 387.183 763.599 384.6 760.366 381.3C757.166 378 754.682 374.1 752.916 369.6C751.149 365.067 750.266 360.15 750.266 354.85C750.266 349.55 751.149 344.65 752.916 340.15C754.682 335.617 757.166 331.7 760.366 328.4C763.599 325.1 767.466 322.533 771.966 320.7C776.466 318.833 781.449 317.9 786.916 317.9C790.582 317.9 794.032 318.333 797.266 319.2C800.499 320.033 803.466 321.233 806.166 322.8C808.866 324.333 811.282 326.217 813.416 328.45C815.582 330.65 817.416 333.117 818.916 335.85C820.416 338.583 821.549 341.55 822.316 344.75C823.116 347.95 823.516 351.317 823.516 354.85ZM809.766 354.85C809.766 350.883 809.232 347.333 808.166 344.2C807.099 341.033 805.582 338.35 803.616 336.15C801.649 333.95 799.249 332.267 796.416 331.1C793.616 329.933 790.449 329.35 786.916 329.35C783.382 329.35 780.199 329.933 777.366 331.1C774.566 332.267 772.166 333.95 770.166 336.15C768.199 338.35 766.682 341.033 765.616 344.2C764.549 347.333 764.016 350.883 764.016 354.85C764.016 358.817 764.549 362.383 765.616 365.55C766.682 368.683 768.199 371.35 770.166 373.55C772.166 375.717 774.566 377.383 777.366 378.55C780.199 379.717 783.382 380.3 786.916 380.3C790.449 380.3 793.616 379.717 796.416 378.55C799.249 377.383 801.649 375.717 803.616 373.55C805.582 371.35 807.099 368.683 808.166 365.55C809.232 362.383 809.766 358.817 809.766 354.85ZM883.827 331.85C883.427 332.55 882.994 333.067 882.527 333.4C882.094 333.7 881.544 333.85 880.877 333.85C880.177 333.85 879.411 333.6 878.577 333.1C877.777 332.567 876.811 331.983 875.677 331.35C874.544 330.717 873.211 330.15 871.677 329.65C870.177 329.117 868.394 328.85 866.327 328.85C864.461 328.85 862.827 329.083 861.427 329.55C860.027 329.983 858.844 330.6 857.877 331.4C856.944 332.2 856.244 333.167 855.777 334.3C855.311 335.4 855.077 336.617 855.077 337.95C855.077 339.65 855.544 341.067 856.477 342.2C857.444 343.333 858.711 344.3 860.277 345.1C861.844 345.9 863.627 346.617 865.627 347.25C867.627 347.883 869.677 348.567 871.777 349.3C873.877 350 875.927 350.833 877.927 351.8C879.927 352.733 881.711 353.933 883.277 355.4C884.844 356.833 886.094 358.6 887.027 360.7C887.994 362.8 888.477 365.35 888.477 368.35C888.477 371.617 887.911 374.683 886.777 377.55C885.677 380.383 884.044 382.867 881.877 385C879.744 387.1 877.127 388.767 874.027 390C870.927 391.2 867.377 391.8 863.377 391.8C861.077 391.8 858.811 391.567 856.577 391.1C854.344 390.667 852.194 390.033 850.127 389.2C848.094 388.367 846.177 387.367 844.377 386.2C842.577 385.033 840.977 383.733 839.577 382.3L843.527 375.85C843.861 375.383 844.294 375 844.827 374.7C845.361 374.367 845.927 374.2 846.527 374.2C847.361 374.2 848.261 374.55 849.227 375.25C850.194 375.917 851.344 376.667 852.677 377.5C854.011 378.333 855.561 379.1 857.327 379.8C859.127 380.467 861.277 380.8 863.777 380.8C867.611 380.8 870.577 379.9 872.677 378.1C874.777 376.267 875.827 373.65 875.827 370.25C875.827 368.35 875.344 366.8 874.377 365.6C873.444 364.4 872.194 363.4 870.627 362.6C869.061 361.767 867.277 361.067 865.277 360.5C863.277 359.933 861.244 359.317 859.177 358.65C857.111 357.983 855.077 357.183 853.077 356.25C851.077 355.317 849.294 354.1 847.727 352.6C846.161 351.1 844.894 349.233 843.927 347C842.994 344.733 842.527 341.95 842.527 338.65C842.527 336.017 843.044 333.45 844.077 330.95C845.144 328.45 846.677 326.233 848.677 324.3C850.677 322.367 853.144 320.817 856.077 319.65C859.011 318.483 862.377 317.9 866.177 317.9C870.444 317.9 874.377 318.567 877.977 319.9C881.577 321.233 884.644 323.1 887.177 325.5L883.827 331.85ZM933.71 355.05C936.177 355.05 938.327 354.75 940.16 354.15C941.993 353.517 943.51 352.633 944.71 351.5C945.943 350.333 946.86 348.933 947.46 347.3C948.06 345.633 948.36 343.783 948.36 341.75C948.36 339.817 948.06 338.067 947.46 336.5C946.86 334.933 945.96 333.6 944.76 332.5C943.56 331.4 942.043 330.567 940.21 330C938.377 329.4 936.21 329.1 933.71 329.1H923.66V355.05H933.71ZM933.71 318.7C938.543 318.7 942.727 319.267 946.26 320.4C949.793 321.533 952.71 323.117 955.01 325.15C957.31 327.183 959.01 329.617 960.11 332.45C961.243 335.283 961.81 338.383 961.81 341.75C961.81 345.25 961.227 348.467 960.06 351.4C958.893 354.3 957.143 356.8 954.81 358.9C952.477 361 949.543 362.633 946.01 363.8C942.51 364.967 938.41 365.55 933.71 365.55H923.66V391H910.21V318.7H933.71ZM1015.25 363.7L1006.45 339.65C1006.01 338.583 1005.56 337.317 1005.1 335.85C1004.63 334.383 1004.16 332.8 1003.7 331.1C1003.26 332.8 1002.81 334.4 1002.35 335.9C1001.88 337.367 1001.43 338.65 1001 339.75L992.246 363.7H1015.25ZM1039 391H1028.6C1027.43 391 1026.48 390.717 1025.75 390.15C1025.01 389.55 1024.46 388.817 1024.1 387.95L1018.7 373.2H988.746L983.346 387.95C983.079 388.717 982.563 389.417 981.796 390.05C981.029 390.683 980.079 391 978.946 391H968.446L996.896 318.7H1010.6L1039 391ZM1099.95 329.75H1078.15V391H1064.7V329.75H1042.9V318.7H1099.95V329.75ZM1132.91 391H1119.41V318.7H1132.91V391ZM1197.3 363.7L1188.5 339.65C1188.06 338.583 1187.61 337.317 1187.15 335.85C1186.68 334.383 1186.21 332.8 1185.75 331.1C1185.31 332.8 1184.86 334.4 1184.4 335.9C1183.93 337.367 1183.48 338.65 1183.05 339.75L1174.3 363.7H1197.3ZM1221.05 391H1210.65C1209.48 391 1208.53 390.717 1207.8 390.15C1207.06 389.55 1206.51 388.817 1206.15 387.95L1200.75 373.2H1170.8L1165.4 387.95C1165.13 388.717 1164.61 389.417 1163.85 390.05C1163.08 390.683 1162.13 391 1161 391H1150.5L1178.95 318.7H1192.65L1221.05 391ZM1280.88 379.9V391H1238.53V318.7H1251.98V379.9H1280.88Z" fill="black"/>
<defs>
<linearGradient id="paint0_linear" x1="63.5457" y1="136.563" x2="515.249" y2="400.408" gradientUnits="userSpaceOnUse">
<stop offset="0.00206825" stop-color="#34AE39"/>
<stop offset="1" stop-color="#00F0FF"/>
</linearGradient>
<linearGradient id="paint1_linear" x1="63.5455" y1="136.564" x2="515.249" y2="400.408" gradientUnits="userSpaceOnUse">
<stop offset="0.00206825" stop-color="#34AE39"/>
<stop offset="1" stop-color="#00F0FF"/>
</linearGradient>
<linearGradient id="paint2_linear" x1="63.5457" y1="136.563" x2="515.249" y2="400.408" gradientUnits="userSpaceOnUse">
<stop offset="0.00206825" stop-color="#34AE39"/>
<stop offset="1" stop-color="#00F0FF"/>
</linearGradient>
<linearGradient id="paint3_linear" x1="63.5456" y1="136.563" x2="515.249" y2="400.408" gradientUnits="userSpaceOnUse">
<stop offset="0.00206825" stop-color="#34AE39"/>
<stop offset="1" stop-color="#00F0FF"/>
</linearGradient>
<linearGradient id="paint4_linear" x1="63.5456" y1="136.563" x2="515.249" y2="400.408" gradientUnits="userSpaceOnUse">
<stop offset="0.00206825" stop-color="#34AE39"/>
<stop offset="1" stop-color="#00F0FF"/>
</linearGradient>
<linearGradient id="paint5_linear" x1="63.5458" y1="136.563" x2="515.249" y2="400.408" gradientUnits="userSpaceOnUse">
<stop offset="0.00206825" stop-color="#34AE39"/>
<stop offset="1" stop-color="#00F0FF"/>
</linearGradient>
<linearGradient id="paint6_linear" x1="63.5454" y1="136.563" x2="515.249" y2="400.408" gradientUnits="userSpaceOnUse">
<stop offset="0.00206825" stop-color="#34AE39"/>
<stop offset="1" stop-color="#00F0FF"/>
</linearGradient>
<linearGradient id="paint7_linear" x1="63.5458" y1="136.563" x2="515.249" y2="400.408" gradientUnits="userSpaceOnUse">
<stop offset="0.00206825" stop-color="#34AE39"/>
<stop offset="1" stop-color="#00F0FF"/>
</linearGradient>
</defs>
</svg>
