<svg width="431" height="551" viewBox="0 0 431 551" fill="none" xmlns="http://www.w3.org/2000/svg">
<path d="M307.423 316.991C293.235 307.556 289.267 288.341 298.562 274.074C307.856 259.806 326.892 255.889 341.08 265.324L413.821 313.697C428.009 323.133 431.976 342.348 422.682 356.615C413.388 370.883 394.351 374.8 380.163 365.365L307.423 316.991Z" fill="url(#paint0_linear)"/>
<path d="M0.546814 311.206C0.879619 311.289 1.2723 311.441 1.65906 311.592C1.90976 311.689 2.15798 311.785 2.38575 311.861C2.7428 311.98 3.19534 312.18 3.57045 312.391L3.69497 312.827C3.81623 312.836 3.92978 312.848 4.03793 312.858C4.5246 312.907 4.9019 312.944 5.37852 312.734C5.45924 312.698 5.525 312.65 5.59231 312.601C5.71298 312.514 5.83858 312.423 6.06412 312.391C6.82767 312.283 7.61346 312.119 7.31108 311.206C7.18762 310.834 6.89516 310.17 6.68772 309.835C6.59614 309.687 6.52736 309.56 6.47047 309.455L6.4699 309.454C6.21908 308.991 6.19933 308.955 5.47191 309.43C4.6712 309.954 3.27642 310.752 2.47939 310.022C2.18986 309.757 1.95748 310.102 1.75964 310.397C1.68311 310.51 1.61173 310.617 1.54423 310.677C1.43207 310.777 0.948001 311.011 0.697836 311.131C0.607752 311.175 0.547366 311.204 0.546814 311.206Z" fill="url(#paint1_linear)"/>
<path d="M14.4652 35.2777C13.8249 34.8519 13.2054 34.4062 12.607 33.9419L25.6394 20.8046L41.288 12.8885L73.509 0.466309L90.9398 12.058L94.8736 20.4618L101.108 22.7057L101.433 19.036L389.878 210.856C397.387 215.85 402.034 223.582 403.369 231.871L403.373 241.814C402.704 245.969 401.179 250.049 398.742 253.789C389.445 268.062 370.402 271.981 356.209 262.542L14.4652 35.2777Z" fill="url(#paint2_linear)"/>
<path d="M56.5005 150.065L380.163 365.365C391.941 373.198 412.565 365.463 422.682 356.615L413.821 313.697L403.401 306.682L13.2396 47.2194C10.2147 45.2078 6.96952 43.8029 3.64533 42.9757L3.00832 43.6179L4.87967 44.8957C5.63669 45.5668 6.29693 46.1692 6.68772 47.046C6.7032 47.0807 6.74441 47.156 6.80008 47.2578C7.07001 47.751 7.67962 48.8651 7.34221 48.9785C7.3422 49.1054 7.24123 49.2044 7.13313 49.3104C7.00866 49.4325 6.87477 49.5638 6.87477 49.7576C6.87477 50.0667 7.01454 50.2492 7.16979 50.4518C7.22722 50.5267 7.28685 50.6045 7.3422 50.6924C7.48284 50.9154 7.69515 51.0705 7.89944 51.2197C8.20655 51.444 8.49553 51.6551 8.49552 52.0638C8.49553 52.4989 8.68791 52.9356 8.86271 53.3325C9.26032 54.2351 9.56689 54.931 7.31107 54.931L7.27996 54.9621C7.27995 56.1567 7.67467 56.8322 8.93211 56.8322C9.05178 57.0109 9.27936 57.1475 9.51825 57.2908C9.76023 57.4361 10.014 57.5884 10.1788 57.7983L11.5194 58.515L10.9583 62.099L9.30617 63.1275L9.18139 64.4989L16.2575 63.0965L16.3511 66.1818C16.3165 66.2857 15.8588 66.2124 15.5315 66.16C15.394 66.138 15.2795 66.1196 15.2289 66.1196C15.1609 66.1196 15.0882 66.1186 15.0127 66.1175C14.616 66.1117 14.1389 66.1047 13.826 66.2442C13.4593 66.4074 12.2751 67.8322 13.2027 68.0205C13.3126 68.0428 13.5798 68.0504 13.8606 68.0583C14.2768 68.0701 14.723 68.0827 14.7301 68.1453C14.8101 68.8558 14.5899 69.4911 13.8572 69.6723L13.8572 69.7347C14.4923 69.7347 14.9225 69.4657 15.3144 69.2207C15.6157 69.0323 15.8944 68.858 16.2263 68.831C17.2143 68.7506 17.4818 69.0839 17.8714 69.5692C17.9971 69.7258 18.1355 69.8982 18.3148 70.0775C18.6775 70.4405 19.0369 70.7474 19.3739 71.0353C20.4552 71.9587 21.3073 72.6865 21.3073 74.4407C21.4783 74.4407 21.8414 73.7282 22.1379 73.1465C22.3007 72.827 22.4434 72.547 22.5231 72.4461C23.1168 71.6948 23.5377 71.7214 24.2483 71.7663C24.4391 71.7783 24.6508 71.7917 24.8923 71.7917C25.7469 71.7917 26.3838 72.6325 27.0507 73.5129C27.9056 74.6413 28.8098 75.835 30.2851 75.4068L29.911 81.9516C29.911 83.4274 29.5812 85.6914 27.7289 85.6914C27.4539 85.6915 27.1688 85.6574 26.8967 85.6249C26.6483 85.5953 26.4107 85.5669 26.2015 85.5669C26.2015 85.9559 26.546 86.4276 26.9066 86.9213C27.4306 87.6385 27.9885 88.4023 27.573 89.0264C27.4368 89.2311 27.2698 89.3315 27.1171 89.4234C26.9539 89.5216 26.8069 89.61 26.7312 89.8055C26.6081 90.123 26.6244 90.7846 26.6386 91.3594C26.6462 91.6674 26.6532 91.9509 26.6378 92.1427C26.9306 92.9498 27.4261 93.6144 27.9266 94.2856C28.5301 95.0951 29.1409 95.9142 29.4121 97.0046C29.5371 97.5072 29.5287 98.5851 29.5198 99.7215C29.5073 101.318 29.4939 103.031 29.8485 103.425C30.2226 103.84 30.6178 104.062 31.0101 104.281C31.518 104.565 32.0209 104.847 32.4669 105.544C32.5481 105.671 32.8682 105.578 33.2145 105.476C33.4807 105.398 33.7625 105.316 33.9632 105.326C35.7518 105.414 36.8278 108.511 36.3946 110.001C36.5452 111.132 36.9782 112.515 37.6104 113.429C38.1702 114.239 38.1141 114.827 38.0415 115.589C38.0142 115.876 37.9845 116.188 37.9845 116.546C37.9845 117.129 38.166 117.411 38.3208 117.652C38.4035 117.78 38.4786 117.897 38.5144 118.042C40.018 118.413 40.7292 119.862 41.0706 121.221C41.1308 121.235 41.1493 121.254 41.164 121.314C41.4724 121.314 41.8369 121.38 42.2135 121.447C42.6159 121.52 43.0326 121.594 43.4084 121.594C43.7418 121.594 43.8682 121.436 43.983 121.293C44.1179 121.124 44.2366 120.976 44.6553 121.127C45.2923 121.357 46.85 122.949 47.0245 123.651C47.1558 123.67 47.6452 123.764 47.679 123.901C48.9272 124.215 48.894 129.903 48.2089 130.882L52.5418 137.707C53.2706 138.211 54.23 138.484 54.3498 137.302C54.4482 136.329 55.4493 137.293 55.659 137.551C56.1691 138.18 56.2827 140.432 56.2827 141.291C57.5245 141.598 57.6438 142.149 57.8165 142.945C57.8935 143.3 57.9812 143.705 58.1841 144.158C58.4741 144.807 57.2806 145.959 56.479 146.733C56.2545 146.95 56.0608 147.137 55.9389 147.275L56.5005 150.065Z" fill="url(#paint3_linear)"/>
<path d="M342.21 427.384C350.893 433.158 361.391 433.933 370.362 430.397C371.165 429.969 371.985 429.587 372.808 429.306C377.504 426.96 381.66 423.365 384.744 418.631C394.041 404.358 390.073 385.137 375.88 375.698L59.5777 165.353L59.9914 167.408L60.2407 171.834L62.891 175.293L61.083 188.258C60.5198 189.949 59.8551 191.172 59.0481 192.657L58.9322 192.87C58.4713 193.72 57.7908 194.245 57.0946 194.782C56.7793 195.025 56.4607 195.271 56.1579 195.55C55.8577 195.827 55.5098 195.932 55.1737 196.033C54.9015 196.115 54.6371 196.194 54.4121 196.361C53.3105 197.179 52.9812 198.378 52.6447 199.604C52.6107 199.728 52.5767 199.852 52.5418 199.976C52.3239 200.457 52.2798 200.952 52.2371 201.433C52.1972 201.882 52.1584 202.318 51.9807 202.719C51.809 203.106 51.0784 203.038 50.3825 202.973C49.7942 202.918 49.2305 202.866 49.0507 203.093C48.9824 203.179 48.9264 203.258 48.8755 203.33C48.6433 203.659 48.5154 203.841 47.8037 203.841C47.8037 204.069 48.1616 204.718 48.396 204.776C48.3959 205.743 49.385 207.695 50.1104 208.422C51.0633 209.376 51.8583 210.538 51.4821 212.006C50.6694 215.177 48.3394 215.24 45.9826 215.304C44.53 215.344 43.0673 215.383 41.9433 216.151L38.7948 218.302C37.5075 218.443 37.13 219.327 36.777 220.153C36.4424 220.936 36.1298 221.667 35.0854 221.667C34.6504 221.667 34.2369 221.922 33.8622 222.328L342.21 427.384Z" fill="url(#paint4_linear)"/>
<path d="M345.292 478.04C345.043 478.228 344.821 478.451 344.686 478.782L344.431 479.409C335.072 493.468 316.175 497.281 302.069 487.901L29.604 306.707C29.6308 306.615 29.656 306.526 29.68 306.442C30.0682 305.079 30.1478 304.799 32.2176 304.101C32.3261 304.064 32.4422 304.024 32.5644 303.981C33.8537 303.532 35.8251 302.845 36.6752 303.914C37.4728 304.916 41.0209 304.691 43.2864 304.547C43.9091 304.508 44.435 304.475 44.7801 304.475L44.84 304.475L44.9352 304.475C45.0381 304.476 45.1404 304.478 45.2419 304.479C46.7216 304.499 48.0219 304.517 48.0219 302.574C48.0181 302.572 48.005 302.569 47.9842 302.563C47.7457 302.496 46.5155 302.15 47.0245 301.981C47.0245 301.827 47.4761 301.775 47.8391 301.733C48.0128 301.713 48.1661 301.695 48.2401 301.67C48.2997 301.649 48.3586 301.626 48.4173 301.603C48.6671 301.506 48.9136 301.409 49.2063 301.514C49.3079 301.55 49.502 301.75 49.7292 301.983C50.2307 302.499 50.8933 303.18 51.0769 302.636C51.6028 302.636 51.9428 302.117 52.2673 301.622C52.5184 301.238 52.7602 300.869 53.0717 300.766C53.0717 300.757 53.0722 300.748 53.0728 300.738L53.074 300.721C53.0778 300.671 53.0813 300.624 53.0406 300.61C53.0406 300.092 52.3973 299.706 51.7468 299.317C51.241 299.013 50.7309 298.708 50.5156 298.335C50.3856 298.11 50.1992 297.729 49.9839 297.289C49.4252 296.148 48.6723 294.609 48.2089 294.377C48.1219 294.334 47.9316 294.276 47.692 294.203L47.6897 294.202L47.6875 294.201C46.8327 293.941 45.3601 293.492 45.7153 292.85C46.1634 292.04 46.6504 290.452 46.6504 289.515L46.6193 289.484C45.8542 289.484 45.5078 289.914 45.0605 290.481C44.9139 290.668 44.3633 290.606 43.8663 290.551C43.5679 290.518 43.2887 290.486 43.128 290.512C42.1933 290.664 39.5744 292.032 39.5743 293.224C39.2068 293.316 38.4735 293.211 37.7694 293.111C37.2861 293.042 36.8161 292.975 36.4882 292.975C35.7979 292.975 35.1163 293.73 34.5834 294.321C34.4498 294.469 34.3254 294.607 34.2127 294.72C33.9684 294.964 33.7176 295.388 33.4868 295.778C32.9554 296.676 32.5294 297.396 32.5294 295.343C32.3138 295.271 32.0663 295.17 31.7982 295.06L31.7971 295.06L31.7919 295.058L31.7886 295.057L31.7875 295.056C30.2805 294.441 28.1318 293.564 27.3548 295.904C27.3362 295.899 27.3214 295.895 27.3078 295.891C27.2756 295.881 27.2506 295.873 27.1989 295.873C26.8678 294.54 25.2654 295.351 24.2519 295.864C23.9274 296.028 23.6633 296.161 23.5205 296.184C23.5824 296.516 23.6013 296.764 23.6159 296.956C23.6602 297.537 23.6656 297.608 24.7052 297.93C25.2302 298.092 25.7819 298.117 26.2949 298.117C26.3621 298.388 26.4211 298.688 26.4818 298.997L26.4821 298.999C26.5858 299.526 26.6942 300.078 26.856 300.548C27.0724 301.177 26.3599 301.773 25.8123 302.231C25.6625 302.356 25.5246 302.471 25.422 302.574C25.1863 302.809 24.9636 303.063 24.7403 303.317L24.7396 303.318L24.6539 303.416L19.0052 299.659C19.1385 298.758 18.3868 298.667 17.5939 298.721L15.2462 297.159C15.0519 296.706 14.845 296.298 14.6364 296.153C14.3836 295.978 14.0399 296.02 13.6845 296.121L9.37517 293.255C8.91409 292.624 9.26497 292.502 9.76131 292.33C10.2246 292.169 10.8146 291.964 10.9894 291.26C11.151 291.26 11.3391 291.32 11.5141 291.375C11.9221 291.504 12.2582 291.61 12.018 290.887L10.5529 290.793C10.5529 290.222 11.2429 289.9 11.6956 289.688C11.7561 289.66 11.8123 289.633 11.8621 289.609C12.07 289.506 11.9655 289.249 11.8529 288.972C11.7813 288.797 11.7064 288.613 11.7064 288.456C11.508 288.406 11.1982 288.478 10.8739 288.554C10.2283 288.704 9.5243 288.868 9.52432 288.113C9.41622 288.113 9.21709 288.536 8.98499 289.029C8.53411 289.987 7.95886 291.21 7.68514 290.107C7.59572 290.107 7.61456 290.037 7.63505 289.96C7.64435 289.925 7.654 289.889 7.654 289.858C7.76579 289.83 7.90095 289.72 8.03225 289.613C8.15625 289.512 8.27684 289.414 8.371 289.39C8.37099 288.544 7.40457 288.778 6.61089 288.97L6.60882 288.971C6.30936 289.043 6.03466 289.11 5.84596 289.11C5.77178 288.811 5.78639 288.627 5.80169 288.434C5.80819 288.353 5.81482 288.269 5.81483 288.175C5.8631 288.163 5.91496 288.145 5.9685 288.126L5.96973 288.125C6.07191 288.089 6.18047 288.05 6.28228 288.05L7.09292 287.271C7.32179 287.051 7.43036 286.482 6.93701 286.523C6.66073 286.546 6.41007 286.671 6.16288 286.794C5.65083 287.049 5.15367 287.297 4.47448 286.617C3.92402 286.066 3.75195 285.226 3.57973 284.386C3.35359 283.283 3.12717 282.178 2.04307 281.724C0.969274 281.274 0.469912 279.515 1.82465 279.137C2.71142 278.89 2.92329 278.487 2.94683 277.672C2.96048 277.577 2.96594 277.482 2.97135 277.387C2.98234 277.195 2.99315 277.006 3.07161 276.831C3.09969 276.768 3.16375 276.706 3.22901 276.642C3.32058 276.553 3.41454 276.462 3.41455 276.363C3.67523 276.233 3.4503 275.91 3.33454 275.744C3.31601 275.717 3.30028 275.695 3.28977 275.678C3.11335 275.39 3.17864 275.207 3.27278 274.943C3.28836 274.9 3.30471 274.854 3.3209 274.805C3.40197 274.56 3.55387 274.269 3.70688 273.977C3.91673 273.576 4.12864 273.171 4.16268 272.873C4.1733 272.78 4.23781 272.575 4.30734 272.354C4.42108 271.992 4.54819 271.588 4.47448 271.564L4.47448 271.439C4.28195 271.375 4.07949 271.298 3.88461 271.202L4.91079 270.068C5.83261 269.592 6.14346 268.808 6.45497 268.021C6.69186 267.423 6.92916 266.824 7.43586 266.359C7.77739 266.046 8.11823 265.816 8.43734 265.6C9.26575 265.041 9.94791 264.581 10.1166 263.024C10.199 262.263 9.87306 261.729 9.54692 261.194C9.25517 260.716 8.96323 260.238 8.96323 259.596C8.96323 258.38 9.31221 258.203 9.83993 257.935C10.0777 257.814 10.3517 257.675 10.6465 257.414C10.9294 257.164 11.051 255.607 11.1529 254.303C11.2105 253.566 11.2618 252.909 11.3324 252.615C11.7165 251.013 12.279 251.02 12.9127 251.028C13.3797 251.033 13.8855 251.039 14.3871 250.402C14.5891 250.146 14.7159 249.918 14.8252 249.721C15.1261 249.179 15.2949 248.875 16.5381 248.875C17.9025 248.875 19.8422 248.544 19.8422 246.849C19.8422 246.084 20.394 245.763 20.979 245.423L20.9802 245.422C21.1209 245.34 21.2636 245.257 21.4009 245.166C22.1358 244.681 22.0478 243.931 21.9587 243.172C21.9291 242.921 21.8995 242.668 21.8995 242.424C21.8172 241.376 22.4119 241.085 23.168 240.715C23.6911 240.459 24.2915 240.165 24.7986 239.557C25.0992 239.196 25.6867 239.159 26.2306 239.124C26.8019 239.088 27.325 239.054 27.4171 238.653C27.5181 238.212 27.4949 237.912 27.4758 237.664C27.4394 237.194 27.4178 236.913 28.29 236.222C29.0027 235.657 29.032 235.437 29.079 235.083C29.1094 234.855 29.1471 234.571 29.381 234.102C29.5916 233.681 29.8777 233.337 30.171 233.008L335.739 436.215C349.568 445.411 353.69 463.896 345.292 478.04Z" fill="url(#paint5_linear)"/>
<path d="M139.764 30.6396C141.03 31.8358 142.414 32.9405 143.911 33.9362L355.952 174.946C370.145 184.385 389.188 180.466 398.485 166.193C401.241 161.962 402.832 157.296 403.335 152.579L403.333 145.921C402.378 137.018 397.625 128.583 389.621 123.26L326.761 81.4577L322.836 85.0682L321.246 90.2418L318.565 89.7121C318.287 89.3632 318.153 88.8533 318.02 88.3487C317.877 87.8014 317.734 87.2604 317.412 86.9383C317.161 86.6877 316.737 86.8572 316.327 87.0212C316.077 87.121 315.833 87.2187 315.635 87.2187C314.785 87.2187 313.903 87.0854 313.005 86.9499C311.693 86.7516 310.349 86.5486 309.026 86.7513C307.979 86.9119 308.156 86.1068 308.32 85.3591L308.32 85.3581C308.378 85.0937 308.434 84.8365 308.434 84.6319C307.952 84.6319 307.59 85.0081 307.237 85.3752C307.057 85.5624 306.879 85.7473 306.688 85.8787C306.25 86.1813 305.393 86.1432 304.708 86.1128C304.52 86.1044 304.345 86.0967 304.195 86.0967C303.928 86.0967 303.632 86.1118 303.323 86.1275C301.913 86.1995 300.241 86.2848 299.924 85.0058C298.932 85.0058 295.422 83.696 294.656 83.0114C293.167 81.6796 292.976 82.669 292.835 83.3964C292.719 83.9989 292.637 84.4217 291.882 83.1984C291.742 82.9711 291.413 83.21 291.073 83.4568C290.784 83.6668 290.487 83.8825 290.292 83.8216C290.063 83.7502 289.907 83.6586 289.759 83.5717C289.51 83.4251 289.284 83.2918 288.765 83.2918C287.894 83.2918 287.345 83.4797 286.798 83.6669C286.085 83.9107 285.376 84.1533 283.964 83.9775L273.895 80.9233C273.109 80.529 272.934 80.1585 272.725 79.7126C272.626 79.5026 272.519 79.2759 272.337 79.0222C272.245 78.8939 272.16 78.7516 272.076 78.6092C271.779 78.1082 271.482 77.6061 270.84 77.7132C270.81 77.9262 270.623 78.343 270.454 78.7162C270.357 78.9317 270.267 79.133 270.217 79.2715C270.099 79.6007 269.527 79.5601 269.141 79.5328C269.101 79.5299 269.064 79.5273 269.028 79.5251C268.983 79.5224 268.943 79.5206 268.908 79.5206C267.921 79.5206 266.653 79.4546 265.697 79.2715C264.948 79.1279 264.817 78.9253 264.529 78.4804L264.528 78.4791C264.454 78.3653 264.37 78.2357 264.263 78.0871L264.19 77.9851L264.188 77.9829C263.772 77.4073 263.098 76.4724 262.798 75.8745C262.585 75.8745 261.45 76.2178 261.427 76.3108C261.358 76.322 261.359 76.3222 261.364 76.3236C261.368 76.3249 261.377 76.3275 261.333 76.3419C261.268 76.6047 261.468 76.8864 261.661 77.1588C261.765 77.3062 261.868 77.4509 261.925 77.5884L258.247 78.7104L242.723 77.8378L239.746 78.648L235.507 75.3444L232.966 72.0565L231.003 71.1061L183.808 40.0339C182.746 39.7014 182.214 38.9198 181.678 38.1337C181.266 37.5282 180.851 36.9199 180.192 36.512C179.984 36.3832 179.763 36.3281 179.546 36.2741C179.313 36.216 179.084 36.1591 178.883 36.0135C178.551 35.7748 178.378 35.483 178.195 35.1739C178.11 35.0305 178.023 34.883 177.916 34.7356C177.539 34.2123 177.14 34.3887 176.732 34.5695C176.465 34.6876 176.194 34.8077 175.921 34.7357C175.706 34.6788 175.45 34.4865 175.221 34.3151C175.024 34.167 174.847 34.0345 174.737 34.0189C174.695 33.7214 173.638 33.5784 173.07 33.5015C172.939 33.4838 172.834 33.4696 172.773 33.4578L166.695 30.8399L156.752 30.8712C156.227 30.7922 155.834 30.6307 155.417 30.4597C155.232 30.3836 155.042 30.3057 154.835 30.2323C154.235 30.0204 153.319 30.324 152.686 30.5334C152.625 30.5535 152.567 30.5727 152.512 30.5905C152.149 30.7084 151.776 30.7682 151.403 30.8279L151.402 30.8281C151.315 30.8421 151.227 30.8562 151.14 30.871L139.764 30.6396Z" fill="url(#paint6_linear)"/>
<path d="M349.343 85.0907C343.186 80.9962 338.953 75.0604 336.893 68.4863L339.108 63.8756L357.001 54.6506L357.313 53.6532L358.684 53.7156L386.054 42.122L388.236 42.0596L389.42 40.2519L391.373 39.9824C391.87 40.5535 392.555 40.8214 393.721 41.1559C395.194 41.5785 395.725 42.7684 396.288 44.03C396.468 44.4331 396.651 44.8435 396.87 45.2386L396.94 45.3667C397.368 46.1438 397.83 46.9833 398.646 47.4513C399.047 47.6807 399.488 47.8145 399.924 47.9469C400.407 48.0937 400.885 48.2388 401.296 48.5108C401.937 48.9353 402.391 49.332 402.819 49.7062C403.489 50.2915 404.095 50.8215 405.255 51.3157C405.853 51.5706 406.05 52.0878 406.256 52.6273C406.4 53.0069 406.549 53.3975 406.845 53.7156C408.091 55.0561 410.034 57.0479 411.521 58.0787C411.602 58.1352 411.69 58.1971 411.783 58.2628C412.874 59.0311 414.717 60.3294 415.916 59.7305C418.145 58.6169 419.336 58.9372 421.074 59.4042L421.174 59.431C431.591 69.6055 433.74 86.0927 425.52 98.7114C416.223 112.984 397.18 116.903 382.987 107.464L349.343 85.0907Z" fill="url(#paint7_linear)"/>
<path d="M14.3278 310.441L298.424 499.369C312.617 508.808 316.585 528.03 307.288 542.302C305.151 545.583 302.499 548.316 299.509 550.466L220.279 494.523L218.284 489.256L218.249 489.102C218.018 488.101 217.759 486.976 216.819 486.42C216.589 486.284 216.18 486.21 215.743 486.13C215.02 486 214.219 485.854 214.014 485.391C213.691 484.663 212.466 485.056 211.392 485.401C210.247 485.768 209.273 486.08 209.743 484.924C209.865 484.624 209.986 484.377 210.098 484.15C210.389 483.558 210.616 483.097 210.616 482.181H210.554C210.514 482.024 210.007 482.012 209.514 482.001C209.005 481.989 208.511 481.978 208.559 481.807C208.615 481.603 208.648 481.426 208.677 481.267C208.763 480.801 208.821 480.489 209.369 480.093C209.993 479.644 210.504 478.977 211.017 478.307C211.641 477.494 212.27 476.674 213.11 476.229C213.814 475.856 215.011 474.609 215.011 473.767C215.147 473.74 215.245 473.686 215.347 473.631C215.478 473.559 215.617 473.483 215.853 473.455L213.608 459.181L204.758 453.38L9.30119 343.379C9.45344 343.352 9.64753 343.338 9.89838 343.338C9.96354 343.076 9.91818 342.847 9.86841 342.596L9.86724 342.59C9.18277 342.396 8.68749 342.407 8.12139 342.42C7.78948 342.428 7.43237 342.436 6.99928 342.403C6.63463 342.376 6.85227 341.831 7.06178 341.749C7.1378 341.719 7.30093 341.742 7.46876 341.766C7.68596 341.797 7.91158 341.829 7.96556 341.749C8.09469 341.749 8.23917 341.666 8.37981 341.585C8.49754 341.518 8.61259 341.452 8.71368 341.437C8.73888 341.337 8.74004 341.171 8.74129 340.992C8.7441 340.59 8.74738 340.122 9.02547 340.191C9.14555 340.552 11.5835 343.399 11.4258 341.842C11.4025 341.613 11.2769 341.284 11.1368 340.917C10.7499 339.904 10.2519 338.6 11.488 338.289C11.5008 338.251 11.5124 338.24 11.5505 338.227C11.5628 338.177 11.612 338.051 11.6439 338.04C11.6439 337.398 11.8252 337.162 12.0006 336.933C12.1047 336.797 12.2067 336.664 12.2675 336.451C12.7656 336.406 13.4951 335.843 14.0865 335.386C14.3055 335.217 14.5055 335.063 14.6678 334.955C15.0471 334.703 14.5404 333.209 14.2312 333.209C14.1366 333.209 14.042 333.21 13.9476 333.211C13.3938 333.216 12.8451 333.221 12.3298 333.054C11.7153 332.854 10.76 331.768 10.7399 331.121C10.4732 330.587 9.00935 330.59 8.36517 330.591L8.27736 330.592C8.18057 330.297 8.35348 329.192 8.74508 329.096C8.76575 329.012 8.80165 328.95 8.83504 328.893C8.88991 328.798 8.93804 328.716 8.90096 328.566L7.87217 328.223C7.87217 327.799 7.93586 327.592 7.98691 327.426C8.05616 327.201 8.10215 327.051 7.93443 326.54L6.40705 326.571L6.37593 326.54C6.37591 326.053 6.84937 325.62 7.27994 325.511C7.32268 325.339 7.19903 325.189 7.05703 325.016C6.89926 324.823 6.71885 324.603 6.71886 324.296C6.71887 323.993 6.80824 323.735 6.89575 323.483C6.97963 323.241 7.06178 323.005 7.06177 322.738C7.06178 322.272 6.97769 321.947 6.9129 321.696C6.76043 321.106 6.71465 320.929 8.12146 320.307C8.48923 320.144 8.85208 319.609 9.12215 319.21C9.28713 318.966 9.4175 318.774 9.49318 318.749C9.49319 318.389 9.00093 318.3 8.66617 318.239C8.62772 318.232 8.59135 318.225 8.55804 318.219C8.5379 318.138 7.54101 317.349 7.40446 317.315C7.40446 317.082 8.39167 316.661 8.58917 316.661C8.70845 317.02 9.76132 317.233 10.0854 317.034C10.5921 316.723 10.5227 316.383 10.4384 315.97C10.4034 315.798 10.3658 315.614 10.3658 315.414C10.4646 315.381 10.6954 315.512 10.9443 315.652C11.3127 315.86 11.7208 316.091 11.7998 315.85C13.0118 315.85 12.9372 315.126 12.8476 314.257C12.7932 313.729 12.7332 313.146 12.9531 312.64C13.2895 311.865 13.7925 311.149 14.3278 310.441Z" fill="url(#paint8_linear)"/>
<path d="M11.6478 308.659L13.4 309.824C13.2209 309.93 13.0196 309.973 12.8598 309.866C12.7862 309.817 12.7162 309.698 12.6428 309.573C12.5036 309.335 12.3525 309.078 12.1428 309.243C12.0562 309.311 12.0226 309.394 11.9889 309.476C11.9373 309.602 11.8858 309.729 11.6439 309.804C11.1579 309.955 10.1396 308.744 10.9894 308.744C11.1982 308.744 11.4248 308.716 11.6478 308.659Z" fill="url(#paint9_linear)"/>
<defs>
<linearGradient id="paint0_linear" x1="0.546835" y1="88.7237" x2="453.184" y2="353.248" gradientUnits="userSpaceOnUse">
<stop offset="0.00206825" stop-color="#34AE39"/>
<stop offset="1" stop-color="#00F0FF"/>
</linearGradient>
<linearGradient id="paint1_linear" x1="0.546835" y1="88.7237" x2="453.184" y2="353.248" gradientUnits="userSpaceOnUse">
<stop offset="0.00206825" stop-color="#34AE39"/>
<stop offset="1" stop-color="#00F0FF"/>
</linearGradient>
<linearGradient id="paint2_linear" x1="0.546835" y1="88.7237" x2="453.184" y2="353.248" gradientUnits="userSpaceOnUse">
<stop offset="0.00206825" stop-color="#34AE39"/>
<stop offset="1" stop-color="#00F0FF"/>
</linearGradient>
<linearGradient id="paint3_linear" x1="0.546835" y1="88.7237" x2="453.184" y2="353.248" gradientUnits="userSpaceOnUse">
<stop offset="0.00206825" stop-color="#34AE39"/>
<stop offset="1" stop-color="#00F0FF"/>
</linearGradient>
<linearGradient id="paint4_linear" x1="0.546835" y1="88.7237" x2="453.184" y2="353.248" gradientUnits="userSpaceOnUse">
<stop offset="0.00206825" stop-color="#34AE39"/>
<stop offset="1" stop-color="#00F0FF"/>
</linearGradient>
<linearGradient id="paint5_linear" x1="0.546835" y1="88.7237" x2="453.184" y2="353.248" gradientUnits="userSpaceOnUse">
<stop offset="0.00206825" stop-color="#34AE39"/>
<stop offset="1" stop-color="#00F0FF"/>
</linearGradient>
<linearGradient id="paint6_linear" x1="0.546835" y1="88.7237" x2="453.184" y2="353.248" gradientUnits="userSpaceOnUse">
<stop offset="0.00206825" stop-color="#34AE39"/>
<stop offset="1" stop-color="#00F0FF"/>
</linearGradient>
<linearGradient id="paint7_linear" x1="0.546835" y1="88.7237" x2="453.184" y2="353.248" gradientUnits="userSpaceOnUse">
<stop offset="0.00206825" stop-color="#34AE39"/>
<stop offset="1" stop-color="#00F0FF"/>
</linearGradient>
<linearGradient id="paint8_linear" x1="0.546835" y1="88.7237" x2="453.184" y2="353.248" gradientUnits="userSpaceOnUse">
<stop offset="0.00206825" stop-color="#34AE39"/>
<stop offset="1" stop-color="#00F0FF"/>
</linearGradient>
<linearGradient id="paint9_linear" x1="0.546835" y1="88.7237" x2="453.184" y2="353.248" gradientUnits="userSpaceOnUse">
<stop offset="0.00206825" stop-color="#34AE39"/>
<stop offset="1" stop-color="#00F0FF"/>
</linearGradient>
</defs>
</svg>
