<?xml version="1.0" encoding="UTF-8"?>
<!DOCTYPE svg PUBLIC "-//W3C//DTD SVG 1.1//EN" "http://www.w3.org/Graphics/SVG/1.1/DTD/svg11.dtd">
<!-- Creator: CorelDRAW -->
<svg xmlns="http://www.w3.org/2000/svg" xml:space="preserve" width="100%" height="100%" version="1.1" style="shape-rendering:geometricPrecision; text-rendering:geometricPrecision; image-rendering:optimizeQuality; fill-rule:evenodd; clip-rule:evenodd"
viewBox="0 0 21000 29700"
 xmlns:xlink="http://www.w3.org/1999/xlink">
 <defs>
  <style type="text/css">
   <![CDATA[
    .str1 {stroke:black;stroke-width:10;stroke-miterlimit:3.864;stroke-opacity:0.501961}
    .str3 {stroke:black;stroke-width:50;stroke-miterlimit:22.9256}
    .str0 {stroke:black;stroke-width:10;stroke-miterlimit:22.9256}
    .str2 {stroke:black;stroke-width:10;stroke-miterlimit:3.864}
    .fil5 {fill:none}
    .fil0 {fill:#FEFEFE}
    .fil4 {fill:#FEFEFE;fill-rule:nonzero}
    .fil3 {fill:#D9DADA;fill-rule:nonzero}
    .fil2 {fill:black;fill-rule:nonzero}
    .fil1 {fill:#FEFEFE;fill-rule:nonzero;fill-opacity:0.501961}
   ]]>
  </style>
 </defs>
 <g id="Plan_x0020_1">
  <metadata id="CorelCorpID_0Corel-Layer"/>
  <path class="fil0 str0" d="M17396.24 17442.46c-25.45,5.84 -64.35,-32.23 -35.75,-53.71 36.47,-27.4 16.69,-47.72 28.6,-84.75 10.77,-33.52 38.05,-13.84 61.97,-27.45l96.52 -54.91c46.23,-26.3 91.61,-77.24 143,-29.84 18.31,16.9 110.65,49.76 95.34,72.81 -19.55,29.41 4.06,61.25 -35.75,84.75 -36.39,21.49 -26.36,-29.39 -35.75,-47.75 -13.07,-25.54 -23.58,41.98 -28.6,50.13 -7.77,12.59 -50.26,31.39 -58.39,13.13 -3.67,-8.26 -23.38,-46.55 -32.18,-22.67 -17.87,48.44 -44.86,0.51 -79.84,23.87 -49.57,33.12 -116.79,25.25 -72.69,94.29 6.17,9.67 22.82,3.94 27.4,13.13 4.39,8.78 -11.14,37.02 -19.06,40.58 -30.68,13.77 -22.6,-38.03 -38.14,-47.74l-16.68 -23.87zm-15264.2 -3673.84c-14.34,-8.08 -31.64,-15.74 -45.29,-20.29 -22.14,-7.37 -49.33,-19.88 -70.3,-25.07 0.08,-0.35 32.29,-15.07 38.13,-20.29 9.25,-8.25 20.4,-39.17 35.75,-25.07 30.47,27.97 83.79,-2.62 114.4,-22.67 34.13,-22.34 27.51,-15.16 46.48,15.51 7.93,12.81 19.11,38.26 23.83,52.52 11.56,34.96 -18.48,41.23 -47.67,45.36 -13.43,1.9 -17.59,9.31 -26.21,13.13 -22.27,9.85 -38.86,5.52 -64.36,3.58l-4.76 -16.71zm465.94 -206.49c7.46,-12.8 9.54,-19.67 9.54,-35.81 0,-16.9 9.59,-27.76 13.11,-41.78l2.38 0c6.72,20.51 7.23,54.61 1.19,76.39 -6.65,24.02 -21.33,28.72 -35.75,46.55 -11.78,14.56 -17.97,25.48 -38.13,20.29 -23.41,-6.04 -20.66,15.17 -27.41,27.46 -5.99,10.93 -23.86,24.63 -35.75,16.71 -8.15,-5.44 -15.17,-33.55 -27.41,-23.88 -8.38,6.63 -3.79,16.72 -19.07,21.49 -18.58,5.79 -57.51,-40.58 -25.02,-40.58 27.04,0 61.92,-12.41 72.69,-38.2 0.31,-0.76 -10.06,-100.86 25.03,-62.06 24.54,27.15 35.95,36.89 75.07,26.26l9.53 7.16zm-460.42 -553.23c-5.33,2.29 -18.47,2.66 -18.47,-5.97 0,-4.97 9.57,-11.53 13.7,-13.72 4.43,-2.36 12.65,-2.25 17.28,-0.6 15.81,5.63 28.41,4.18 45.28,4.18 9.41,0 27.63,-5.41 35.75,0 2.62,1.75 6.21,8.12 4.77,11.34 -3.11,6.97 -21.13,5.97 -28,5.97 -6.89,0 -14.03,-1.21 -20.86,-1.79 -10.88,-0.94 -21.41,3.56 -32.17,4.17l-17.28 -3.58zm213.56 1946.49c5.82,-1.04 13.24,-1.55 22.83,-1.55 2.51,-10.14 0.73,-18.95 -1.19,-28.64 -41.52,-11.82 -64.83,-3.8 -109.64,-7.17 -13.94,-1.05 -5.62,-21.91 2.39,-25.06 6.67,-2.63 30.89,5.47 34.55,0 9.07,0 20.12,-10.72 28.6,-11.94 3.13,-12.45 -3.44,-51.54 11.92,-47.74 4.59,13.86 97.79,122.88 91.76,63.26 -3.35,-33.06 -61.99,-119.85 2.38,-136.07 0.49,-1.46 0.93,-1.9 2.39,-2.39 0.47,-1.92 2.35,-6.75 3.57,-7.16 0,-39.16 17.6,-38.92 23.84,-60.87 26.09,-2.35 68.79,-41.97 91.76,-57.29 14.5,-9.66 -4.87,-66.84 -16.69,-66.84 -24.82,0 -49.63,1.54 -72.69,-5.97 -23.49,-7.64 -60.01,-49.22 -60.78,-74 -10.69,-21.47 -71.7,-20.29 -94.14,-20.29 -3.7,-11.3 2.91,-53.6 17.88,-57.29 2.09,-8.48 8.24,-11.05 5.96,-20.3l-39.33 -13.12c0,-38.23 13.52,-30.46 2.38,-64.46l-58.39 1.2 -1.19 -1.2c0,-18.64 18.1,-35.24 34.56,-39.39 3.45,-13.91 -21.45,-24.18 -21.45,-46.55 0,-22.74 13.11,-38.78 13.11,-59.68 0,-59.8 -36.13,-59.15 40.51,-93.09 22.65,-10.02 44.81,-57.16 52.44,-59.68 0,-15.35 -23.39,-17.84 -35.75,-20.29 -0.77,-3.09 -38.88,-33.31 -44.1,-34.62 0,-8.91 37.74,-25.06 45.29,-25.06 4.56,13.78 44.81,21.93 57.2,14.32 27.41,-16.86 10.72,-35.95 10.72,-62.07 9.36,-3.07 49.76,32.16 54.82,16.71 74.49,0 21.85,-71.64 44.09,-122.94 22.33,-51.53 63.88,-96.25 97.72,-144.42 35.18,11.81 113.56,5.38 137.04,39.39 19.74,28.58 55.4,70.42 91.76,70.42 7.03,-28.37 -20.86,-37 27.41,-37 0.54,2.19 0.2,1.84 2.38,2.39 1.2,4.77 52.86,47.12 58.4,47.74 33.78,3.81 41.37,-28.18 57.2,-33.42 0,-3.84 -1.1,-19.53 1.19,-20.29l0 -3.58 1.19 -1.19c6.16,0 56.61,14.91 57.2,16.71l2.38 0c0.64,1.9 10.83,21.83 4.77,23.87 0,27.58 3.94,34.61 20.26,57.29 13.98,19.41 7.27,50.39 14.3,71.61 47.19,0 178.12,-67.68 197.82,-112.19 8.19,-18.49 -30.48,-41.27 -42.9,-52.52 -43.85,-39.7 -70.5,-67.51 -101.29,-120.55 29.87,-89.88 12.91,-98.6 109.63,-131.3 47.87,-16.19 134.83,-51.96 170.41,-7.16 38.87,48.92 248.64,21.49 309.84,21.49 63.45,0 123.93,9.29 123.93,-72.81 -1.78,-0.6 -59.3,-15.67 -38.13,-22.68 0,-8.73 37.73,-8.93 46.47,-11.94 11.99,-4.12 23.12,-10.91 36.94,-5.96 12.46,4.47 61.31,73.23 71.51,42.97 35.67,0 48.97,-62.58 76.26,-71.62 0,-2.44 0.83,-5.29 -1.19,-5.97 0,-35.26 -77.71,-54.51 -96.53,-87.13 -17.86,-30.93 -63.64,-139.29 -88.18,-151.58 -15.18,-7.59 -112.75,-26.92 -95.33,-58.49 17.13,-31.03 35.75,-91.82 35.75,-127.71l-1.19 -1.2c-29.25,0 -42.49,16.46 -59.59,38.2 -8.97,11.42 -57.5,-1.46 -73.88,1.19 -35.73,5.8 -135.85,58.2 -135.85,103.84 -23.7,5.95 -87.18,-9.54 -117.98,-9.54 -33.01,0 -65.5,45.28 -86.99,66.84 -30.84,30.92 -64.35,136.65 -64.35,23.87 -54.59,-18.4 -162.75,-84.32 -197.82,21.48 -2.4,-0.59 -3.15,-1.19 -5.96,-1.19 -16.71,-67.4 -118.12,8.3 -140.62,11.93 9.52,51.07 -7.59,50.46 45.29,66.85 20.07,6.21 41.16,7.16 60.77,7.16 6.96,28.1 11.64,64.57 21.45,93.1 10.54,30.68 -36.55,59.31 -54.82,77.58 -18.08,18.08 -34.17,39.03 -52.43,57.29 -19,19 -38.41,50.43 -57.2,64.45 -27.73,20.67 -46.15,92.69 -76.27,58.49 -27.08,-30.76 -4.39,-19.25 2.39,-39.39 0.85,0 13.7,-1.8 14.3,-3.58l2.38 0c10.96,-33.08 -39.69,-62.75 -63.16,-81.16 -47.18,-36.99 20.84,-85.37 -57.2,-105.04 0,-25.63 21.24,-20.63 34.56,-38.19 40.49,-97.61 -86.56,-45.19 -107.25,-58.49 -12.65,-8.12 -32.33,-86.32 -52.44,-100.26 -25.81,-17.9 -76.36,23.24 -94.14,9.55 -24.18,-18.63 -59.63,-70.44 -85.8,-96.68 -79.16,-79.34 24.77,-36.73 40.52,-100.26 20.59,0 52.44,25.26 39.32,-14.32l-56.01 -3.58c0,-24.77 33.9,-37.35 50.05,-45.36 13,-6.46 -5.95,-28.64 -5.95,-44.16 -22.69,-5.69 -83.42,30.35 -83.42,-13.13 -12.16,0 -54.46,140.35 -70.31,76.39 -4.97,0 -1.19,-5.71 -1.19,-9.55 8.31,-2.09 20,-16.05 27.41,-17.91 0,-44.7 -70.19,-10.74 -96.53,-10.74 -4.04,-16.31 -1.19,-23.69 -1.19,-35.81 5.38,-1.33 11.92,-4.77 17.87,-4.77l30.99 -29.84c8.75,-8.42 12.9,-30.23 -5.96,-28.65 -32.44,2.71 -55.64,42.2 -94.14,3.59 -48.68,-48.84 -19.95,-156.74 -92.95,-187.4 -41.05,-17.23 -60.14,-84.59 -8.35,-99.06 33.9,-9.48 42,-24.9 42.9,-56.1 1.58,-11.02 0.29,-22.2 4.77,-32.23 2.58,-5.8 13.11,-11.41 13.11,-17.9 11.56,-5.78 -1.86,-21.5 -4.77,-26.26 -7.86,-12.82 -3.17,-20.22 1.19,-33.42 7.35,-22.28 29.93,-54.25 32.18,-74 1.07,-9.37 16.46,-48.63 11.92,-50.13l0 -4.78c-7.36,-2.44 -15.1,-5.39 -22.55,-9.08l0 0 39.23 -43.44c62.04,-32.04 51.69,-100.84 96.53,-142.03 46.95,-43.11 93.55,-45.15 102.48,-127.71 5.97,-55.26 -44.09,-79.24 -44.09,-131.3 0,-67.55 28.07,-51.39 64.35,-83.55 16.93,-15.02 18.75,-152.6 26.22,-183.81 25.51,-106.56 71.58,-27.24 116.78,-84.74 28.99,-36.87 17.44,-58.49 82.23,-58.49 52.16,0 126.31,-12.68 126.31,-77.58 0,-36.38 32.5,-46.55 59.59,-64.46 37.39,-24.74 19.06,-67.39 19.06,-105.03 -5.32,-67.87 63.42,-52.83 110.83,-109.81 23.56,-28.3 93.23,-4.61 100.1,-34.61 11.2,-48.94 -17.53,-52.67 33.37,-93.1 44.84,-35.6 18.92,-35.44 41.71,-81.17 17.15,-34.43 47.41,-55.25 65.54,-85.94 16.95,-28.71 34.56,-145.4 34.56,-181.42 0,-58.05 52.64,-208.88 117.97,-208.88 82.06,0 45.95,-118.33 141.81,-128.9l120.36 -82.36c112.69,-77.11 314.44,37.54 364.66,-158.75 14.38,-56.21 -16.01,-100.72 -52.44,-137.26 -27.73,-27.83 -65.54,-102.59 -65.54,-139.65 -8.96,-2.22 -22.64,-27.05 -22.64,-35.8 33.18,0 33.17,-10.33 47.67,-28.65 15.01,-18.95 99.9,13.03 112.01,-14.32 14.08,-31.81 5.35,-69.47 21.45,-105.04 14.56,-51.77 25.14,-103.98 71.5,-138.45 19.22,-14.28 45.97,-11.84 66.74,-31.04 37.14,-34.34 80.46,-55.38 106.06,-102.64 32.86,-60.63 59.67,-108.8 82.22,-176.65l69.12 -496.53 -101.32 -132.49 -9.53 -169.49 -154.92 -771.05c21.29,-24.16 100.02,-87.55 85.83,-119.36 -25.13,-56.3 -4.03,-92.79 -72.69,-109.81 0,-32.9 -4.34,-119.16 -23.84,-143.23 -8.02,-9.89 -46.29,-46.82 -50.05,-9.55 -4.58,45.28 -41.26,34.83 -69.12,15.52l-165.64 -261.4c26.19,-37.47 27.46,-255.33 -20.26,-267.36 -1.29,-5.22 -20,-8.83 -25.02,-9.55 -6.67,-26.91 -66.22,-87.87 -90.57,-96.68 -29.64,-10.73 -19.96,17.91 -47.67,17.91 -27.82,0 -61.41,-10.74 -85.8,-10.74 -0.56,-2.3 -1.27,-3.01 -3.57,-3.58 -13.05,-52.02 -40.24,-107.51 -97.72,-121.75 -3.94,-15.89 -20.26,-23.02 -20.26,-57.29 0,-50.03 15.16,-76.65 -14.3,-119.36 -24.17,-35.02 -40.72,-87.97 -46.48,-131.29 16.56,-57.06 -24.57,-175.65 -92.95,-179.04 -17.65,-0.87 -51.71,16.96 -57.2,8.35 -30.22,-47.31 -67.28,-44.64 -100.1,-81.16 -23.2,-25.83 -5.19,-199.58 -16.68,-245.88 -18.97,-76.39 -81.37,-118.02 -106.06,-186.2 1.69,-21.06 -3.66,-70.83 3.57,-89.51 5.6,-14.49 21.41,-13.62 32.18,-29.84 26.82,-40.35 -52.43,-95.95 -52.43,-132.49 16.76,0 38.28,4.77 58.39,4.77 70.81,0 83.42,-86.71 83.42,-143.23l14.3 -250.65c-100.4,29.19 -131.61,-138.45 -206.16,-138.45 -43.62,0 -61.78,-11.44 -90.57,25.06 -8.6,10.9 -36.35,76.39 -46.48,76.39 0,-88.13 -56.05,-108.61 -114.4,-167.1 -28.11,-28.17 -29.89,-51.81 -79.84,-47.74 -29.19,2.38 -47.62,34.61 -90.57,34.61l0 -2.39c28.01,-6.94 36.43,-31.27 33.37,-58.48 -0.45,-4.02 -47.96,-2.66 -58.39,-4.78 -35.46,-7.21 9.81,-61.78 23.83,-68.03 14.24,-6.36 37.37,-4.77 53.63,-4.77 6.54,0 41.02,8.03 42.9,2.38l-3.58 -118.16 -270.51 53.71 4.77 -52.52 63.16 -39.39 21.45 -137.26 -51.25 -27.45c-12.52,-15.98 -38.45,-23.22 -47.66,-37 -48.07,0 -63.16,-25.87 -63.16,-71.62l1.19 -1.19c124.15,0 45.28,-55.24 45.28,-109.81 0,-26.06 -30.63,-31.14 -44.09,-52.52 -7.84,-12.47 -17.87,-19.58 -17.87,-35.8 0,-13.87 17.87,-19.38 17.87,-29.84 15.56,-5.24 -21.56,-66.24 -25.02,-74.01 -14.94,-33.58 -40.18,-56.65 -69.12,-82.35l-71.54 -48.94 0 0 865.16 -873.7 598.23 -303.17 1291.78 -498.92 61.99 91.91 303.88 -195.75 27.41 59.68 -78.65 194.55 219.27 -13.12 166.83 25.06 -7.15 45.36 -102.48 226.78 165.64 354.49 238.34 85.94 15.49 -175.46 122.74 -42.97 33.37 17.91 4.77 105.03 356.29 5.97 0 0 -14.28 96.68 48.86 2.39 1.19 31.03 -50.05 41.77 222.84 206.49 1171.43 23.87c17.58,-2.98 35.3,-5.16 52.48,-10.74 23.99,-7.8 63.66,-22.61 88.77,-13.72 25.82,9.13 44.29,20.1 73.29,24.47l380.14 -1.2 232.34 100.26c12.38,2.41 73.09,7.47 75.07,21.49 9.13,1.29 29.96,23.39 45.28,27.45 26.36,6.98 52.41,-33.14 76.27,0 12.83,17.81 18.4,35.55 36.94,48.94 14.9,10.77 33.55,8.86 50.05,19.09 57.95,35.91 66.38,112.34 138.24,134.88l1804.2 1190 75.07 36.4 97.12 125.92 162.06 126.52 113.82 -31.03 593.46 33.42 140.62 -42.97c-6.29,-15.01 -26.49,-32.23 -22.65,-47.74 3.41,-1.13 -1.52,-0.35 3.58,-1.19 0.88,-3.56 44.27,-16.71 52.43,-16.71 12.17,24.34 40.55,63.26 56.01,84.74 20.15,27.97 18.84,38.45 54.82,45.36 36.54,7.01 85.02,9.54 122.74,9.54 12.44,0 44.46,6.03 50.05,-9.54 5.19,-14.49 22.01,-46.81 23.83,-59.68 31.49,-5.27 41.29,27.95 57.2,50.13 21.76,30.36 15.36,50.6 59.59,72.81l384.91 116.97c95.39,11.9 106.87,-26.26 183.52,-26.26 31.61,0 34.83,12.94 58.39,20.29 16.24,5.07 50.86,-39.98 60.78,-23.87 63.73,103.43 2,-100.4 106.06,-7.16 29.27,26.22 163.45,76.38 201.39,76.38 14.74,59.71 106.54,41.78 163.26,41.78 26.63,0 73.99,6.42 95.33,-8.35 21.55,-14.9 38.91,-47.75 66.74,-47.75 0,30.01 -31.57,89.5 22.64,81.17 85.08,-13.07 172.57,17.9 252.64,17.9 19.96,0 52.49,-26.17 67.92,-10.74 23.71,23.71 21.92,78.38 44.09,106.23l102.49 20.29 60.79 -198.14 417.09 -384.33 204.97 -427.3 684.03 -353.3 11.91 -38.2 52.44 2.39 1046.29 -444.01 83.42 -2.39 45.29 -69.23 74.65 -10.32c18.98,21.87 45.18,32.13 89.77,44.94 74.3,21.36 85.91,93.88 120.36,156.36 17.13,31.07 34.97,65.83 67.92,84.74 32.3,18.54 71.44,20.77 101.3,40.58 62.83,41.68 78.64,76.39 151.34,107.42 38.97,16.63 33.4,62.42 60.77,91.91 47.65,51.34 121.92,127.62 178.76,167.1 39.49,27.43 118.26,88.16 168.02,63.26 112.47,-56.29 155.85,-16.92 269.32,4.78 41.25,7.88 73.46,-60.07 127.51,-41.78 67.96,23 64.98,12.26 145.39,-1.19 55.91,-9.35 46.4,-25.19 102.48,0 28.44,12.77 60.5,-37 97.72,-37 51.62,0 152.38,-6.1 199.01,10.74 80.29,29 114.26,-47.06 190.67,-31.04 111.89,23.46 162.94,67.49 274.08,38.2 31.26,-8.24 50.06,11.18 74.08,-5.64l0 0 -1215.88 1772.57 -745.78 738.39 3.39 7999.49 1231.15 1656.57 3.08 148.23 0 0c-46.4,44.61 -85,99.38 -121.13,153.73 -21.46,21.48 -50.29,46.36 -67.92,72.8 -3.31,4.98 -37.89,45.45 -17.88,38.2 108.98,-39.46 -62.03,57.38 -67.92,81.16l-2.39 0c0,10.66 -22.64,25.42 -22.64,51.32 0,20.74 -165.55,165.46 -189.47,202.91 -19.23,30.12 -69.48,67.14 -96.53,94.29 -40.96,41.09 -14.3,-55.02 -14.3,-72.81 -11.49,-2.84 -37.14,-52.32 -47.67,0 -24.05,4.77 -22.84,11.82 -46.47,5.97 0,-12.85 30.16,-56.93 16.68,-58.49 -44.41,-5.17 -53.84,-48.19 -107.25,-22.67 -17.71,8.47 -34.49,7.87 -51.24,14.32 -20.36,7.83 -16.88,23.99 -33.36,33.42 -4.88,9.47 -8.14,16.9 -19.07,19.1 -15.82,31.65 -118.54,79.96 -152.53,79.96 -35.88,0 -12.36,29.12 -28.6,45.36 -7.44,7.44 -51.26,60.58 -57.2,62.07 -1.82,7.24 -18.19,14.2 -20.26,21.48 -29.11,4.11 -77.12,36.98 -97.72,-7.16 -14.1,-30.24 -17.53,-51.87 -10.72,-87.13 4.24,-22 -7.16,-36.77 -7.16,-56.1 0,-20.01 12.48,-68.75 22.65,-83.55 5.04,-7.32 29.6,-71.61 17.87,-71.61l-1.19 1.19c-2.41,9.78 -16.18,17.7 -17.87,26.26 -4.3,2.14 -12.08,17.43 -13.11,22.68 -24.49,12.24 -46.28,93.65 -54.82,119.35 4.45,34.59 3.03,102.15 20.26,130.1 29.02,47.04 35.73,-6.08 28.6,64.45 -4.4,43.61 -105.99,50.35 -102.49,-4.77 1.42,-22.34 -41.74,-46.22 -50.04,-68.03 -6.6,-17.32 -5.96,-63.12 -5.96,-82.36 -2.48,-0.61 -8.97,-4.89 -9.54,-7.16 -27.7,0 -161.54,-58.35 -151.34,-44.16 19.83,27.61 68.26,47.89 100.1,54.9 52.5,11.57 37.99,20.43 51.24,63.26 25.54,82.59 39.33,132.1 39.33,224.39 0,40.54 -19.78,122.37 -7.15,157.55 27.67,77.11 168.43,-4.81 145.38,134.87 -9.13,55.3 -55.97,89.61 -94.14,120.55 -15.37,12.45 -47.28,6.41 -65.54,1.19 -18.04,-5.15 8.34,-48.04 11.92,-60.87 3.09,-11.05 -33.5,-71.36 -44.1,-79.97 -24.84,-20.15 9.18,54.03 9.54,58.49 3.98,48.98 -14.15,24.24 -65.54,45.35 -19.86,8.15 -94.46,41.07 -97.72,60.88 -38.15,0 -44.2,-87.2 -27.41,-114.59 28.38,-46.33 -49.08,-39.75 -21.45,32.23 11.64,30.35 -26.87,43.36 -33.37,17.9 -3.56,-13.93 -56.01,-119.85 -56.01,-82.35 0,47.85 61.97,81.71 61.97,115.77 -40.96,0 -77.41,-22.67 -126.31,-22.67 0,6.78 148.38,78.16 164.44,90.71 8.11,44.61 53.79,71.14 9.54,122.93 -17.4,20.38 -60.72,33.94 -67.93,54.91 -10.37,30.2 13.05,30.3 -29.79,40.58 -94.09,22.57 -183.54,95.24 -249.06,164.71 -53.77,98.16 -144.64,85.4 -228.8,35.81 -164.61,-96.99 -370.55,87.94 -504.07,153.96 -102.56,50.72 -313.41,259.59 -313.41,380.75 62.13,15.4 -36.94,212.75 -36.94,257.81 30.26,7.5 16.41,77.91 25.02,103.84 13.36,18.06 26.75,28.63 41.71,40.58 9.58,7.64 -5.06,18.68 -13.11,25.06 -8.47,6.7 -19.42,4.89 -26.21,15.52 -11.81,18.5 -21.88,34.21 -8.35,53.71 5.25,7.58 40.87,-22.48 46.48,-27.45 6.5,-5.77 22.84,-8.96 30.98,-10.74 15.98,-3.49 30.93,-21.69 38.14,-31.04 11.8,-15.32 21.62,-19.2 39.32,-25.06l0 3.58c43.94,0 -26.11,41.1 -32.17,46.55 -10.29,9.24 -23.29,18.3 -33.37,26.26 -10.86,8.59 -21.66,26.38 -33.37,32.22 -21.54,31.31 -92.92,126.09 -72.69,159.94 26.96,45.14 -15.23,93.29 -40.52,127.71 -52.4,71.35 -3.58,157.55 -29.79,235.13 -49.56,146.73 -177.68,170.38 -290.76,255.42 -18.38,24.57 -52.54,30.08 -65.55,62.07l-65.54 161.13c-30.19,74.24 -53.31,174.16 -95.33,242.29 -32.8,53.2 -55.11,143.34 -109.63,60.87 -15.44,0 -29.31,4.78 -44.1,4.78 -0.65,1.98 -5.81,3.7 -8.34,4.77 0,2.78 -0.92,5.32 -3.57,5.97 0,10.26 -5.96,18.94 -5.96,29.84 10.48,3.47 116.75,-2.68 121.55,16.71 6.26,1.55 2.38,42.81 2.38,50.13 0,84.62 -16.15,168.48 -57.2,244.68 -33.27,84.31 -41.67,163.06 -88.18,243.49 -27.78,48.04 -42.86,103.86 -82.22,143.22 -63.8,63.8 -71.18,122.84 -113.21,190.97 -14.24,23.1 -33.99,55.41 -61.97,59.68 -37.91,5.8 -26.04,-41.73 -40.52,-45.36 0,-36.87 -9.75,-32.79 -16.68,-60.87 -2.72,0 -5.39,-1.19 -9.53,-1.19 0,22.56 15.4,40.74 9.53,64.45 -40.13,0 -179.26,-34.74 -194.24,-31.03 0,96.39 77.04,53.71 144.19,53.71 81.4,0 124.35,53.53 72.69,124.13 -24.28,33.2 -62.4,73.61 -76.26,111l-46.48 125.32c-4.06,46.35 -14.64,32.55 -46.48,50.13 -0.94,0.51 14.3,40.17 14.3,51.33 0,26.3 -103.66,265.06 -122.74,287.64 -97.3,115.12 -130.5,176 -173.98,317.49 -7.28,23.68 -25.86,104.06 -56.01,99.07 -37.11,-6.15 15.39,-113.39 -16.68,-113.39l-1.19 1.19c0,113.98 -29.49,64.45 -83.42,64.45 -8.84,35.81 47.04,76.72 50.05,122.94 4.97,76.44 -119.1,39.39 -166.83,39.39 -114.97,0 -21.71,-93.68 -71.5,-106.23 -7.27,-28.84 -21.45,20.87 -21.45,31.03 -1.46,0.49 -1.9,0.93 -2.39,2.39 -4.77,0 -4.56,-2.65 -8.34,-3.58 -1.84,-7.43 -29.46,-46.55 -34.56,-46.55 -10.12,51.31 -73.88,96.44 -73.88,133.68 -3.66,0.51 -6.27,3.61 -7.15,7.16 -16,4.03 -39.26,43.55 -50.74,68.97l0 0 -3114.33 -2202.95 -76.26 -201.72c-9.22,-39.71 -18.24,-86.24 -56.01,-108.61 -23.35,-13.84 -94.64,-10.92 -107.25,-39.39 -25.49,-57.59 -198.09,67.94 -163.26,-17.9 16.76,-41.33 33.36,-56.5 33.36,-105.04l-2.38 0c-3.04,-12.26 -79.83,-1.48 -76.27,-14.32 8.51,-30.73 2.85,-45.31 30.99,-65.65 52.78,-38.13 84.42,-116.9 143,-148 26.94,-14.29 72.69,-62.05 72.69,-94.3 11.84,-2.35 16.17,-10 32.17,-11.93l-85.8 -546.66 -338.35 -222.16 -7472.09 -4212.83 0 0zm-1351.12 -13955.39l19000 0 0 22670.46 -19000 0 0 -22670.46z"/>
  <polygon class="fil1 str1" points="15989.28,21847.12 19404.38,21847.12 19404.38,23440.02 15989.28,23440.02 "/>
  <path class="fil2" d="M19583.11 23347.12c0,-17.45 4.47,-34.48 13.46,-51.13 8.93,-16.61 21.77,-29.59 38.43,-38.86 16.69,-9.26 34.1,-13.92 52.16,-13.92 17.92,0 35.18,4.56 51.69,13.74 16.56,9.12 29.4,21.92 38.53,38.43 9.17,16.51 13.73,33.77 13.73,51.74 0,18.01 -4.56,35.27 -13.73,51.78 -9.13,16.51 -21.97,29.35 -38.53,38.53 -16.51,9.17 -33.77,13.78 -51.69,13.78 -18.06,0 -35.47,-4.66 -52.16,-13.97 -16.66,-9.36 -29.5,-22.34 -38.43,-38.95 -8.99,-16.65 -13.46,-33.68 -13.46,-51.17zm17.22 0c0,14.62 3.76,28.88 11.24,42.7 7.48,13.83 18.2,24.65 32.13,32.46 13.92,7.81 28.41,11.71 43.46,11.71 15,0 29.35,-3.85 43.08,-11.52 13.74,-7.67 24.46,-18.39 32.13,-32.17 7.67,-13.79 11.52,-28.18 11.52,-43.18 0,-14.96 -3.85,-29.36 -11.52,-43.14 -7.67,-13.78 -18.39,-24.5 -32.13,-32.12 -13.73,-7.62 -28.08,-11.43 -43.08,-11.43 -15.05,0 -29.54,3.9 -43.46,11.66 -13.93,7.76 -24.65,18.58 -32.13,32.46 -7.48,13.87 -11.24,28.08 -11.24,42.57zm103.57 -33.35l5.08 -16.94c11.53,2.78 20.7,8.61 27.52,17.55 6.87,8.98 10.3,19.85 10.3,32.59 0,16.19 -5.22,29.31 -15.71,39.42 -10.49,10.11 -24.98,15.15 -43.55,15.15 -12.14,0 -22.68,-2.31 -31.61,-6.92 -8.99,-4.56 -15.71,-11.15 -20.28,-19.61 -4.56,-8.52 -6.82,-18.25 -6.82,-29.16 0,-12.23 2.92,-22.39 8.8,-30.48 5.88,-8.09 13.88,-13.6 23.94,-16.56l4.23 16.37c-6.91,2.77 -12.23,6.82 -15.89,12.23 -3.72,5.41 -5.55,11.71 -5.55,19 0,10.58 3.76,19.33 11.28,26.2 7.53,6.87 18.35,10.3 32.37,10.3 14.06,0 24.69,-3.24 31.89,-9.74 7.19,-6.49 10.81,-14.86 10.81,-25.16 0,-8.28 -2.39,-15.57 -7.24,-21.83 -4.8,-6.25 -11.33,-10.39 -19.57,-12.41z"/>
  <path id="1" class="fil2" d="M19788.57 23051.96l-18.58 0c14.44,9.27 21.68,22.91 21.68,40.92 0,11.67 -3.19,22.39 -9.64,32.13 -6.4,9.78 -15.38,17.35 -26.86,22.76 -11.52,5.37 -24.74,8.05 -39.69,8.05 -14.59,0 -27.8,-2.45 -39.7,-7.29 -11.86,-4.9 -20.98,-12.19 -27.29,-21.92 -6.35,-9.69 -9.5,-20.61 -9.5,-32.6 0,-8.84 1.88,-16.7 5.6,-23.56 3.72,-6.87 8.61,-12.47 14.58,-16.8l-72.67 0 0 -24.83 202.07 0 0 23.14zm-73.05 78.46c18.72,0 32.69,-3.95 41.96,-11.9 9.26,-7.91 13.87,-17.27 13.87,-28.04 0,-10.86 -4.42,-20.08 -13.26,-27.7 -8.84,-7.57 -22.34,-11.38 -40.5,-11.38 -19.94,0 -34.62,3.85 -43.98,11.61 -9.36,7.72 -14.01,17.27 -14.01,28.6 0,11.06 4.46,20.27 13.45,27.71 8.98,7.38 23.14,11.1 42.47,11.1z"/>
  <polygon id="2" class="fil2" points="19727.89,22999.42 19703.06,22999.42 19703.06,22922.66 19727.89,22922.66 "/>
  <path id="3" class="fil2" d="M19788.57 22895.56l-146.47 0 0 -22.29 20.69 0c-7.15,-4.56 -12.93,-10.68 -17.26,-18.3 -4.37,-7.62 -6.54,-16.27 -6.54,-26.01 0,-10.82 2.26,-19.71 6.73,-26.62 4.52,-6.92 10.77,-11.81 18.86,-14.63 -17.07,-11.67 -25.59,-26.77 -25.59,-45.39 0,-14.58 4,-25.83 12.04,-33.63 8.05,-7.86 20.42,-11.81 37.12,-11.81l100.42 0 0 24.84 -92.19 0c-9.88,0 -17.03,0.84 -21.4,2.44 -4.38,1.6 -7.86,4.52 -10.54,8.8 -2.68,4.23 -4,9.22 -4,14.91 0,10.35 3.44,18.91 10.26,25.73 6.86,6.82 17.82,10.2 32.87,10.2l85 0 0 24.84 -95.06 0c-11.01,0 -19.29,2.02 -24.79,6.07 -5.5,4.04 -8.28,10.67 -8.28,19.85 0,6.96 1.84,13.4 5.51,19.33 3.66,5.93 9.03,10.21 16.13,12.89 7.05,2.63 17.26,3.95 30.57,3.95l75.92 0 0 24.83z"/>
  <path id="4" class="fil2" d="M19770.23 22564.8c7.85,9.22 13.35,18.11 16.6,26.62 3.25,8.52 4.84,17.64 4.84,27.43 0,16.08 -3.9,28.45 -11.75,37.11 -7.81,8.65 -17.83,12.98 -30.01,12.98 -7.15,0 -13.69,-1.65 -19.62,-4.89 -5.93,-3.29 -10.63,-7.57 -14.2,-12.84 -3.58,-5.32 -6.31,-11.24 -8.14,-17.88 -1.27,-4.89 -2.49,-12.27 -3.72,-22.1 -2.35,-20.04 -5.22,-34.86 -8.51,-44.31 -3.39,-0.1 -5.55,-0.14 -6.44,-0.14 -10.07,0 -17.17,2.35 -21.31,7.05 -5.6,6.35 -8.37,15.81 -8.37,28.32 0,11.71 2.07,20.36 6.16,25.92 4.09,5.59 11.38,9.68 21.78,12.37l-3.39 24.27c-10.4,-2.21 -18.82,-5.84 -25.21,-10.92 -6.4,-5.08 -11.29,-12.41 -14.77,-22.01 -3.44,-9.55 -5.18,-20.7 -5.18,-33.3 0,-12.51 1.46,-22.72 4.42,-30.57 2.97,-7.81 6.64,-13.6 11.11,-17.27 4.46,-3.67 10.11,-6.25 16.93,-7.76 4.23,-0.8 11.85,-1.22 22.81,-1.22l32.93 0c23,0 37.53,-0.52 43.69,-1.55 6.17,-0.99 12.05,-3.06 17.69,-6.07l0 25.96c-5.22,2.5 -11.34,4.1 -18.34,4.8zm-55.04 1.98c3.67,9.03 6.78,22.57 9.32,40.64 1.45,10.25 3.1,17.49 4.93,21.73 1.84,4.23 4.52,7.48 8,9.78 3.53,2.31 7.43,3.48 11.76,3.48 6.54,0 12.04,-2.49 16.42,-7.52 4.37,-5.04 6.58,-12.38 6.58,-22.02 0,-9.55 -2.07,-18.06 -6.25,-25.54 -4.14,-7.43 -9.84,-12.93 -17.03,-16.41 -5.6,-2.69 -13.83,-4 -24.7,-4l-9.03 -0.14z"/>
  <path id="5" class="fil2" d="M19844.73 22503.51l-202.63 0 0 -22.57 19.24 0c-7.44,-5.32 -13.03,-11.34 -16.75,-18.07 -3.72,-6.68 -5.6,-14.81 -5.6,-24.36 0,-12.51 3.2,-23.52 9.65,-33.07 6.39,-9.55 15.47,-16.74 27.14,-21.63 11.71,-4.85 24.5,-7.3 38.47,-7.3 14.91,0 28.37,2.69 40.36,8.05 11.95,5.36 21.12,13.17 27.52,23.42 6.35,10.21 9.54,20.98 9.54,32.27 0,8.28 -1.74,15.71 -5.22,22.25 -3.48,6.58 -7.85,11.94 -13.17,16.18l71.45 0 0 24.83zm-128.5 -22.57c18.77,0 32.69,-3.81 41.67,-11.39 8.99,-7.62 13.45,-16.84 13.45,-27.65 0,-11.01 -4.65,-20.42 -13.97,-28.23 -9.31,-7.85 -23.7,-11.76 -43.22,-11.76 -18.63,0 -32.55,3.81 -41.82,11.48 -9.26,7.67 -13.87,16.79 -13.87,27.42 0,10.54 4.94,19.85 14.77,27.94 9.87,8.14 24.17,12.19 42.99,12.19z"/>
  <path id="6" class="fil2" d="M19744.83 22356.43l-3.96 -24.55c9.84,-1.37 17.36,-5.22 22.63,-11.53 5.22,-6.3 7.85,-15.14 7.85,-26.43 0,-11.43 -2.3,-19.9 -6.96,-25.45 -4.61,-5.5 -10.06,-8.28 -16.32,-8.28 -5.6,0 -10.02,2.5 -13.22,7.44 -2.21,3.48 -4.98,11.94 -8.42,25.4 -4.56,18.15 -8.51,30.71 -11.85,37.77 -3.39,7 -7.99,12.32 -13.92,15.94 -5.88,3.62 -12.42,5.46 -19.57,5.46 -6.54,0 -12.56,-1.51 -18.11,-4.47 -5.55,-3.01 -10.16,-7.06 -13.83,-12.18 -2.82,-3.86 -5.22,-9.13 -7.19,-15.76 -1.98,-6.68 -2.97,-13.78 -2.97,-21.4 0,-11.48 1.65,-21.54 4.99,-30.2 3.29,-8.7 7.81,-15.1 13.45,-19.24 5.69,-4.09 13.27,-6.96 22.77,-8.51l3.38 24.27c-7.62,1.08 -13.59,4.28 -17.87,9.55 -4.28,5.27 -6.4,12.7 -6.4,22.34 0,11.34 1.88,19.47 5.65,24.32 3.76,4.84 8.18,7.29 13.21,7.29 3.2,0 6.12,-0.99 8.71,-3.01 2.63,-2.02 4.84,-5.18 6.58,-9.5 0.94,-2.5 3.06,-9.74 6.35,-21.87 4.66,-17.5 8.52,-29.73 11.48,-36.69 2.96,-6.96 7.34,-12.42 12.98,-16.37 5.69,-4 12.75,-5.98 21.21,-5.98 8.24,0 16,2.4 23.29,7.25 7.29,4.84 12.93,11.8 16.93,20.88 4,9.13 5.97,19.43 5.97,30.91 0,19 -3.95,33.53 -11.8,43.5 -7.9,9.98 -19.57,16.33 -35.04,19.1z"/>
  <polygon id="7" class="fil2" points="19788.57,22198.39 19760.35,22198.39 19760.35,22170.17 19788.57,22170.17 "/>
  <path id="8" class="fil2" d="M19734.95 22031.36l3.38 -24.27c16.7,2.68 29.73,9.45 39.19,20.41 9.45,10.96 14.15,24.46 14.15,40.41 0,19.99 -6.53,36.08 -19.61,48.21 -13.08,12.18 -31.8,18.25 -56.16,18.25 -15.81,0 -29.59,-2.63 -41.39,-7.85 -11.86,-5.22 -20.75,-13.17 -26.63,-23.9 -5.92,-10.68 -8.89,-22.29 -8.89,-34.9 0,-15.85 4,-28.88 12.04,-38.95 8.05,-10.11 19.48,-16.6 34.25,-19.42l3.67 23.99c-9.83,2.3 -17.22,6.35 -22.2,12.23 -4.94,5.83 -7.44,12.88 -7.44,21.16 0,12.51 4.47,22.67 13.41,30.53 8.98,7.81 23.09,11.71 42.47,11.71 19.66,0 33.92,-3.76 42.81,-11.29 8.89,-7.57 13.35,-17.4 13.35,-29.49 0,-9.78 -2.96,-17.92 -8.93,-24.41 -5.93,-6.54 -15.1,-10.68 -27.47,-12.42z"/>
  <path id="9" class="fil2" d="M19715.33 21995.24c-27.04,0 -47.08,-7.53 -60.11,-22.63 -10.82,-12.56 -16.23,-27.94 -16.23,-46.05 0,-20.08 6.59,-36.54 19.76,-49.34 13.12,-12.75 31.33,-19.14 54.51,-19.14 18.82,0 33.59,2.82 44.36,8.46 10.77,5.65 19.14,13.88 25.12,24.7 5.97,10.77 8.93,22.58 8.93,35.32 0,20.51 -6.53,37.07 -19.66,49.72 -13.12,12.65 -32.03,18.96 -56.68,18.96zm0.05 -25.4c18.72,0 32.74,-4.1 42,-12.28 9.32,-8.23 13.97,-18.53 13.97,-31 0,-12.32 -4.65,-22.57 -14.01,-30.81 -9.36,-8.18 -23.61,-12.27 -42.76,-12.27 -18.06,0 -31.75,4.14 -41.01,12.37 -9.32,8.23 -13.97,18.48 -13.97,30.71 0,12.47 4.61,22.77 13.87,31 9.27,8.18 23.24,12.28 41.91,12.28z"/>
  <path id="10" class="fil2" d="M19788.57 21828.96l-146.47 0 0 -22.29 20.69 0c-7.15,-4.56 -12.93,-10.68 -17.26,-18.3 -4.37,-7.62 -6.54,-16.27 -6.54,-26.01 0,-10.82 2.26,-19.71 6.73,-26.62 4.52,-6.92 10.77,-11.81 18.86,-14.63 -17.07,-11.67 -25.59,-26.77 -25.59,-45.39 0,-14.58 4,-25.83 12.04,-33.63 8.05,-7.86 20.42,-11.81 37.12,-11.81l100.42 0 0 24.84 -92.19 0c-9.88,0 -17.03,0.84 -21.4,2.44 -4.38,1.6 -7.86,4.52 -10.54,8.8 -2.68,4.23 -4,9.22 -4,14.91 0,10.35 3.44,18.91 10.26,25.73 6.86,6.82 17.82,10.2 32.87,10.2l85 0 0 24.84 -95.06 0c-11.01,0 -19.29,2.02 -24.79,6.07 -5.5,4.04 -8.28,10.67 -8.28,19.85 0,6.96 1.84,13.4 5.51,19.33 3.66,5.93 9.03,10.21 16.13,12.89 7.05,2.63 17.26,3.95 30.57,3.95l75.92 0 0 24.83z"/>
  <g id="_3105982711472">
   <polygon class="fil3 str2" points="16090.68,22451.82 17089.1,22451.82 17089.1,22550.98 16090.68,22550.98 "/>
   <polygon class="fil4 str2" points="17089.1,22451.82 18087.53,22451.82 18087.53,22550.98 17089.1,22550.98 "/>
   <polygon class="fil3 str2" points="18087.52,22451.82 19085.94,22451.82 19085.94,22550.98 18087.52,22550.98 "/>
   <polygon class="fil3 str2" points="17691.04,22750.76 19287.92,22750.76 19287.92,22849.92 17691.04,22849.92 "/>
   <polygon class="fil4 str2" points="16094.18,22750.76 17691.05,22750.76 17691.05,22849.92 16094.18,22849.92 "/>
   <path class="fil2" d="M17084.84 22042.68l57.09 -27.52 5.71 0 0 197.2c0,13.12 0.53,21.35 1.64,24.58 1.12,3.18 3.36,5.71 6.82,7.41 3.47,1.71 10.53,2.7 21.17,2.94l0 6.35 -88.19 0 0 -6.35c11.05,-0.24 18.16,-1.18 21.34,-2.88 3.23,-1.65 5.47,-3.88 6.76,-6.7 1.24,-2.83 1.88,-11.29 1.88,-25.35l0 -126.29c0,-16.99 -0.59,-27.93 -1.7,-32.75 -0.83,-3.7 -2.3,-6.41 -4.41,-8.11 -2.18,-1.71 -4.71,-2.59 -7.71,-2.59 -4.29,0 -10.23,1.76 -17.81,5.35l-2.59 -5.29z"/>
   <path id="1" class="fil2" d="M17719.15 22008.46l0 157.16 39.98 -36.63c8.52,-7.82 13.46,-12.76 14.81,-14.82 0.95,-1.41 1.42,-2.76 1.42,-4.17 0,-2.29 -1,-4.23 -2.89,-5.94 -1.88,-1.65 -4.99,-2.59 -9.4,-2.82l0 -5.65 68.61 0 0 5.65c-9.35,0.23 -17.17,1.7 -23.4,4.35 -6.23,2.7 -13.05,7.47 -20.52,14.29l-40.63 37.22 40.34 51.33c11.29,14.05 18.81,23.04 22.58,26.98 5.58,5.24 10.4,8.65 14.58,10.17 2.94,1.12 7.99,1.71 15.17,1.71l0 6.35 -76.73 0 0 -6.35c4.41,-0.12 7.35,-0.76 8.88,-1.94 1.58,-1.24 2.35,-2.88 2.35,-5.06 0,-2.64 -2.3,-6.88 -6.88,-12.7l-48.27 -61.79 0 52.21c0,10.23 0.7,16.93 2.11,20.17 1.47,3.17 3.47,5.46 6.12,6.88 2.64,1.35 8.35,2.11 17.17,2.23l0 6.35 -80.08 0 0 -6.35c7.99,0 14.05,-1 18.05,-2.94 2.41,-1.23 4.23,-3.17 5.46,-5.76 1.71,-3.76 2.59,-10.29 2.59,-19.52l0 -143.94c0,-18.05 -0.41,-29.1 -1.18,-33.16 -0.82,-4.05 -2.11,-6.82 -3.99,-8.35 -1.83,-1.58 -4.24,-2.35 -7.18,-2.35 -2.41,0 -6.05,1 -10.82,2.94l-2.93 -6.35 46.74 -19.4 7.94 0z"/>
   <path id="2" class="fil2" d="M17895.89 22124.76c11.41,-11.53 18.17,-18.17 20.22,-19.93 5.12,-4.36 10.65,-7.77 16.59,-10.18 5.93,-2.41 11.81,-3.64 17.63,-3.64 9.88,0 18.29,2.88 25.4,8.64 7.06,5.76 11.82,14.11 14.17,25.11 11.88,-13.88 21.88,-22.93 30.05,-27.28 8.17,-4.3 16.58,-6.47 25.22,-6.47 8.35,0 15.82,2.17 22.35,6.47 6.46,4.29 11.64,11.34 15.4,21.16 2.53,6.65 3.82,17.11 3.82,31.4l0 67.97c0,9.82 0.71,16.58 2.18,20.23 1.12,2.46 3.23,4.64 6.23,6.4 3.06,1.77 8,2.65 14.88,2.65l0 6.35 -77.26 0 0 -6.35 3.29 0c6.7,0 11.99,-1.29 15.76,-3.94 2.64,-1.82 4.52,-4.76 5.64,-8.76 0.47,-1.94 0.71,-7.47 0.71,-16.58l0 -67.91c0,-12.88 -1.53,-21.93 -4.65,-27.22 -4.52,-7.35 -11.7,-11.06 -21.63,-11.06 -6.06,0 -12.23,1.53 -18.41,4.59 -6.11,3 -13.58,8.7 -22.34,16.93l-0.35 1.94 0.7 7.41 0 75.32c0,10.7 0.59,17.4 1.77,20.05 1.23,2.59 3.46,4.82 6.76,6.58 3.29,1.77 8.93,2.65 16.87,2.65l0 6.35 -79.37 0 0 -6.35c8.64,0 14.58,-1 17.81,-3.06 3.24,-2.06 5.47,-5.17 6.7,-9.29 0.59,-1.94 0.89,-7.58 0.89,-16.93l0 -67.91c0,-12.88 -1.88,-22.17 -5.65,-27.87 -5.05,-7.41 -12.05,-11.11 -21.11,-11.11 -6.17,0 -12.28,1.7 -18.34,5.05 -9.47,5.06 -16.82,10.82 -21.93,17.17l0 84.67c0,10.29 0.7,16.93 2.12,20.05 1.41,3.06 3.52,5.35 6.35,6.94 2.76,1.53 8.4,2.29 16.93,2.29l0 6.35 -77.97 0 0 -6.35c7.24,0 12.29,-0.76 15.17,-2.29 2.89,-1.59 5.06,-4 6.59,-7.41 1.47,-3.35 2.23,-9.88 2.23,-19.58l0 -60.33c0,-17.28 -0.53,-28.45 -1.53,-33.51 -0.82,-3.82 -2.05,-6.41 -3.82,-7.82 -1.7,-1.47 -4.05,-2.18 -6.99,-2.18 -3.24,0 -7.06,0.89 -11.53,2.59l-2.58 -6.35 47.62 -19.4 7.41 0 0 33.75z"/>
   <path id="3" class="fil2" d="M17373.42 22019.75l-13.47 29.28 -70.55 0 -15.47 31.28c30.81,4.52 55.04,15.81 72.79,33.98 15.23,15.64 22.82,33.99 22.82,55.15 0,12.29 -2.47,23.7 -7.47,34.11 -5,10.46 -11.29,19.4 -18.87,26.75 -7.53,7.35 -16,13.29 -25.29,17.75 -13.17,6.3 -26.69,9.47 -40.57,9.47 -13.99,0 -24.16,-2.35 -30.57,-7.11 -6.35,-4.71 -9.53,-9.94 -9.53,-15.64 0,-3.18 1.3,-6 3.94,-8.47 2.65,-2.47 6,-3.65 10,-3.65 2.94,0 5.58,0.42 7.82,1.36 2.23,0.88 6,3.23 11.4,6.99 8.59,5.94 17.35,8.88 26.17,8.88 13.4,0 25.22,-5.11 35.39,-15.29 10.12,-10.17 15.23,-22.57 15.23,-37.21 0,-14.12 -4.52,-27.34 -13.58,-39.57 -9.11,-12.29 -21.58,-21.76 -37.57,-28.4 -12.46,-5.18 -29.52,-8.18 -51.09,-9l44.8 -90.66 83.67 0z"/>
   <path id="4" class="fil2" d="M17409.4 22138.05c0,-26.64 4,-49.51 12.05,-68.74 8.06,-19.22 18.7,-33.57 32.05,-42.98 10.29,-7.47 20.99,-11.17 31.98,-11.17 17.94,0 33.99,9.11 48.22,27.34 17.81,22.64 26.69,53.27 26.69,91.96 0,27.05 -3.88,50.09 -11.7,69.03 -7.82,18.93 -17.76,32.63 -29.87,41.21 -12.11,8.53 -23.81,12.82 -35.04,12.82 -22.29,0 -40.81,-13.11 -55.62,-39.39 -12.53,-22.17 -18.76,-48.86 -18.76,-80.08zm33.87 4.23c0,32.1 3.94,58.33 11.82,78.67 6.52,17.11 16.28,25.63 29.22,25.63 6.17,0 12.58,-2.76 19.22,-8.34 6.65,-5.59 11.65,-14.88 15.11,-27.99 5.24,-19.7 7.88,-47.57 7.88,-83.43 0,-26.64 -2.76,-48.86 -8.23,-66.62 -4.11,-13.23 -9.46,-22.58 -15.99,-28.05 -4.65,-3.82 -10.35,-5.7 -16.99,-5.7 -7.76,0 -14.7,3.53 -20.76,10.52 -8.23,9.53 -13.87,24.46 -16.81,44.92 -3,20.41 -4.47,40.52 -4.47,60.39z"/>
   <path class="fil2" d="M17235.49 23012.56l57.09 -27.52 5.71 0 0 197.2c0,13.12 0.53,21.35 1.64,24.58 1.12,3.18 3.36,5.71 6.82,7.41 3.47,1.71 10.53,2.7 21.17,2.94l0 6.35 -88.19 0 0 -6.35c11.05,-0.24 18.16,-1.18 21.34,-2.88 3.23,-1.65 5.47,-3.88 6.76,-6.7 1.24,-2.83 1.88,-11.29 1.88,-25.35l0 -126.29c0,-16.99 -0.59,-27.93 -1.7,-32.75 -0.83,-3.7 -2.3,-6.41 -4.41,-8.11 -2.18,-1.71 -4.71,-2.59 -7.71,-2.59 -4.29,0 -10.23,1.76 -17.81,5.35l-2.59 -5.29z"/>
   <path id="1" class="fil2" d="M17870.15 23094.64c11.41,-11.53 18.17,-18.17 20.22,-19.93 5.12,-4.36 10.65,-7.77 16.59,-10.18 5.93,-2.41 11.81,-3.64 17.63,-3.64 9.88,0 18.29,2.88 25.4,8.64 7.06,5.76 11.82,14.11 14.17,25.11 11.88,-13.88 21.88,-22.93 30.05,-27.28 8.17,-4.3 16.58,-6.47 25.22,-6.47 8.35,0 15.82,2.17 22.35,6.47 6.46,4.29 11.64,11.34 15.4,21.16 2.53,6.65 3.82,17.11 3.82,31.4l0 67.97c0,9.82 0.71,16.58 2.18,20.23 1.12,2.46 3.23,4.64 6.23,6.4 3.06,1.77 8,2.65 14.88,2.65l0 6.35 -77.26 0 0 -6.35 3.29 0c6.7,0 11.99,-1.29 15.76,-3.94 2.64,-1.82 4.52,-4.76 5.64,-8.76 0.47,-1.94 0.71,-7.47 0.71,-16.58l0 -67.91c0,-12.88 -1.53,-21.93 -4.65,-27.22 -4.52,-7.35 -11.7,-11.06 -21.63,-11.06 -6.06,0 -12.23,1.53 -18.41,4.59 -6.11,3 -13.58,8.7 -22.34,16.93l-0.35 1.94 0.7 7.41 0 75.32c0,10.7 0.59,17.4 1.77,20.05 1.23,2.59 3.46,4.82 6.76,6.58 3.29,1.77 8.93,2.65 16.87,2.65l0 6.35 -79.37 0 0 -6.35c8.64,0 14.58,-1 17.81,-3.06 3.24,-2.06 5.47,-5.17 6.7,-9.29 0.59,-1.94 0.89,-7.58 0.89,-16.93l0 -67.91c0,-12.88 -1.88,-22.17 -5.65,-27.87 -5.05,-7.41 -12.05,-11.11 -21.11,-11.11 -6.17,0 -12.28,1.7 -18.34,5.05 -9.47,5.06 -16.82,10.82 -21.93,17.17l0 84.67c0,10.29 0.7,16.93 2.12,20.05 1.41,3.06 3.52,5.35 6.35,6.94 2.76,1.53 8.4,2.29 16.93,2.29l0 6.35 -77.97 0 0 -6.35c7.24,0 12.29,-0.76 15.17,-2.29 2.89,-1.59 5.06,-4 6.59,-7.41 1.47,-3.35 2.23,-9.88 2.23,-19.58l0 -60.33c0,-17.28 -0.53,-28.45 -1.53,-33.51 -0.82,-3.82 -2.05,-6.41 -3.82,-7.82 -1.7,-1.47 -4.05,-2.18 -6.99,-2.18 -3.24,0 -7.06,0.89 -11.53,2.59l-2.58 -6.35 47.62 -19.4 7.41 0 0 33.75z"/>
   <path id="2" class="fil2" d="M18137.79 22978.34c4.76,0 8.88,1.7 12.29,5.05 3.35,3.41 5.05,7.53 5.05,12.29 0,4.82 -1.7,9 -5.05,12.41 -3.41,3.47 -7.53,5.17 -12.29,5.17 -4.82,0 -9,-1.7 -12.41,-5.17 -3.47,-3.41 -5.17,-7.59 -5.17,-12.41 0,-4.76 1.7,-8.88 5.05,-12.29 3.41,-3.35 7.59,-5.05 12.53,-5.05zm14.17 82.55l0 127c0,9.82 0.7,16.34 2.17,19.58 1.41,3.29 3.53,5.7 6.35,7.29 2.82,1.59 8,2.41 15.47,2.41l0 6.35 -76.56 0 0 -6.35c7.65,0 12.82,-0.76 15.41,-2.23 2.64,-1.47 4.7,-3.94 6.29,-7.35 1.53,-3.41 2.29,-10 2.29,-19.7l0 -61.03c0,-16.99 -0.53,-27.99 -1.53,-33.05 -0.82,-3.64 -2.05,-6.17 -3.82,-7.58 -1.7,-1.47 -4.06,-2.18 -7,-2.18 -3.23,0 -7.11,0.89 -11.7,2.59l-2.41 -6.35 47.45 -19.4 7.59 0z"/>
   <path id="3" class="fil2" d="M17383.66 23107.93c0,-26.64 4,-49.51 12.05,-68.74 8.06,-19.22 18.7,-33.57 32.05,-42.98 10.29,-7.47 20.99,-11.17 31.98,-11.17 17.94,0 33.99,9.11 48.22,27.34 17.81,22.64 26.69,53.27 26.69,91.96 0,27.05 -3.88,50.09 -11.7,69.03 -7.82,18.93 -17.76,32.63 -29.87,41.21 -12.11,8.53 -23.81,12.82 -35.04,12.82 -22.29,0 -40.81,-13.11 -55.62,-39.39 -12.53,-22.17 -18.76,-48.86 -18.76,-80.08zm33.87 4.23c0,32.1 3.94,58.33 11.82,78.67 6.52,17.11 16.28,25.63 29.22,25.63 6.17,0 12.58,-2.76 19.22,-8.34 6.65,-5.59 11.65,-14.88 15.11,-27.99 5.24,-19.7 7.88,-47.57 7.88,-83.43 0,-26.64 -2.76,-48.86 -8.23,-66.62 -4.11,-13.23 -9.46,-22.58 -15.99,-28.05 -4.65,-3.82 -10.35,-5.7 -16.99,-5.7 -7.76,0 -14.7,3.53 -20.76,10.52 -8.23,9.53 -13.87,24.46 -16.81,44.92 -3,20.41 -4.47,40.52 -4.47,60.39z"/>
   <path id="4" class="fil2" d="M17560.05 23107.93c0,-26.64 4,-49.51 12.05,-68.74 8.06,-19.22 18.7,-33.57 32.05,-42.98 10.29,-7.47 20.99,-11.17 31.98,-11.17 17.94,0 33.99,9.11 48.22,27.34 17.81,22.64 26.69,53.27 26.69,91.96 0,27.05 -3.88,50.09 -11.7,69.03 -7.82,18.93 -17.76,32.63 -29.87,41.21 -12.11,8.53 -23.81,12.82 -35.04,12.82 -22.29,0 -40.81,-13.11 -55.62,-39.39 -12.53,-22.17 -18.76,-48.86 -18.76,-80.08zm33.87 4.23c0,32.1 3.94,58.33 11.82,78.67 6.52,17.11 16.28,25.63 29.22,25.63 6.17,0 12.58,-2.76 19.22,-8.34 6.65,-5.59 11.65,-14.88 15.11,-27.99 5.24,-19.7 7.88,-47.57 7.88,-83.43 0,-26.64 -2.76,-48.86 -8.23,-66.62 -4.11,-13.23 -9.46,-22.58 -15.99,-28.05 -4.65,-3.82 -10.35,-5.7 -16.99,-5.7 -7.76,0 -14.7,3.53 -20.76,10.52 -8.23,9.53 -13.87,24.46 -16.81,44.92 -3,20.41 -4.47,40.52 -4.47,60.39z"/>
  </g>
  <rect class="fil5 str3" x="1000" y="1000" width="19000" height="22670.46"/>
 </g>
</svg>
