<svg width="1550" height="550" viewBox="0 0 1550 550" fill="none" xmlns="http://www.w3.org/2000/svg">
<path d="M553.485 180.337L543.384 190.711V207H531.554V143.3H543.384V175.969L574.87 143.3H588.156L561.402 171.783L589.794 207H575.962L553.485 180.337ZM818.524 197.081V207H770.749V143.3H817.25V153.219H782.579V169.781H813.337V179.518H782.579V197.081H818.524ZM1061.21 143.3V207H1051.48L1016.35 163.866V207H1004.61V143.3H1014.35L1049.47 186.434V143.3H1061.21ZM1278.66 184.523V207H1266.83V184.705L1241.81 143.3H1254.46L1273.11 174.331L1291.95 143.3H1303.6L1278.66 184.523ZM1521.74 192.258H1489.89L1483.61 207H1471.42L1500.08 143.3H1511.73L1540.48 207H1528.11L1521.74 192.258ZM1517.83 182.976L1505.81 155.13L1493.89 182.976H1517.83Z" fill="black"/>
<path d="M624.475 343.625V387.5C618.975 391.55 613.1 394.525 606.85 396.425C600.65 398.275 594 399.2 586.9 399.2C578.05 399.2 570.025 397.825 562.825 395.075C555.675 392.325 549.55 388.5 544.45 383.6C539.4 378.7 535.5 372.85 532.75 366.05C530 359.25 528.625 351.825 528.625 343.775C528.625 335.625 529.95 328.15 532.6 321.35C535.25 314.55 539 308.7 543.85 303.8C548.75 298.9 554.675 295.1 561.625 292.4C568.575 289.7 576.375 288.35 585.025 288.35C589.425 288.35 593.525 288.7 597.325 289.4C601.175 290.1 604.725 291.075 607.975 292.325C611.275 293.525 614.275 295 616.975 296.75C619.675 298.5 622.15 300.425 624.4 302.525L618.625 311.675C617.725 313.125 616.55 314.025 615.1 314.375C613.65 314.675 612.075 314.3 610.375 313.25C608.725 312.3 607.075 311.35 605.425 310.4C603.775 309.45 601.925 308.625 599.875 307.925C597.875 307.225 595.6 306.65 593.05 306.2C590.55 305.75 587.65 305.525 584.35 305.525C579 305.525 574.15 306.425 569.8 308.225C565.5 310.025 561.825 312.6 558.775 315.95C555.725 319.3 553.375 323.325 551.725 328.025C550.075 332.725 549.25 337.975 549.25 343.775C549.25 349.975 550.125 355.525 551.875 360.425C553.675 365.275 556.175 369.4 559.375 372.8C562.625 376.15 566.525 378.725 571.075 380.525C575.625 382.275 580.7 383.15 586.3 383.15C590.3 383.15 593.875 382.725 597.025 381.875C600.175 381.025 603.25 379.875 606.25 378.425V358.775H592.6C591.3 358.775 590.275 358.425 589.525 357.725C588.825 356.975 588.475 356.075 588.475 355.025V343.625H624.475ZM679.163 305.6V335.675H717.113V351.2H679.163V381.875H727.313V398H658.913V289.55H727.313V305.6H679.163ZM861.273 343.775C861.273 351.725 859.948 359.1 857.298 365.9C854.698 372.65 850.998 378.5 846.198 383.45C841.398 388.4 835.623 392.275 828.873 395.075C822.123 397.825 814.623 399.2 806.373 399.2C798.173 399.2 790.698 397.825 783.948 395.075C777.198 392.275 771.398 388.4 766.548 383.45C761.748 378.5 758.023 372.65 755.373 365.9C752.723 359.1 751.398 351.725 751.398 343.775C751.398 335.825 752.723 328.475 755.373 321.725C758.023 314.925 761.748 309.05 766.548 304.1C771.398 299.15 777.198 295.3 783.948 292.55C790.698 289.75 798.173 288.35 806.373 288.35C811.873 288.35 817.048 289 821.898 290.3C826.748 291.55 831.198 293.35 835.248 295.7C839.298 298 842.923 300.825 846.123 304.175C849.373 307.475 852.123 311.175 854.373 315.275C856.623 319.375 858.323 323.825 859.473 328.625C860.673 333.425 861.273 338.475 861.273 343.775ZM840.648 343.775C840.648 337.825 839.848 332.5 838.248 327.8C836.648 323.05 834.373 319.025 831.423 315.725C828.473 312.425 824.873 309.9 820.623 308.15C816.423 306.4 811.673 305.525 806.373 305.525C801.073 305.525 796.298 306.4 792.048 308.15C787.848 309.9 784.248 312.425 781.248 315.725C778.298 319.025 776.023 323.05 774.423 327.8C772.823 332.5 772.023 337.825 772.023 343.775C772.023 349.725 772.823 355.075 774.423 359.825C776.023 364.525 778.298 368.525 781.248 371.825C784.248 375.075 787.848 377.575 792.048 379.325C796.298 381.075 801.073 381.95 806.373 381.95C811.673 381.95 816.423 381.075 820.623 379.325C824.873 377.575 828.473 375.075 831.423 371.825C834.373 368.525 836.648 364.525 838.248 359.825C839.848 355.075 840.648 349.725 840.648 343.775ZM951.741 309.275C951.141 310.325 950.491 311.1 949.791 311.6C949.141 312.05 948.316 312.275 947.316 312.275C946.266 312.275 945.116 311.9 943.866 311.15C942.666 310.35 941.216 309.475 939.516 308.525C937.816 307.575 935.816 306.725 933.516 305.975C931.266 305.175 928.591 304.775 925.491 304.775C922.691 304.775 920.241 305.125 918.141 305.825C916.041 306.475 914.266 307.4 912.816 308.6C911.416 309.8 910.366 311.25 909.666 312.95C908.966 314.6 908.616 316.425 908.616 318.425C908.616 320.975 909.316 323.1 910.716 324.8C912.166 326.5 914.066 327.95 916.416 329.15C918.766 330.35 921.441 331.425 924.441 332.375C927.441 333.325 930.516 334.35 933.666 335.45C936.816 336.5 939.891 337.75 942.891 339.2C945.891 340.6 948.566 342.4 950.916 344.6C953.266 346.75 955.141 349.4 956.541 352.55C957.991 355.7 958.716 359.525 958.716 364.025C958.716 368.925 957.866 373.525 956.166 377.825C954.516 382.075 952.066 385.8 948.816 389C945.616 392.15 941.691 394.65 937.041 396.5C932.391 398.3 927.066 399.2 921.066 399.2C917.616 399.2 914.216 398.85 910.866 398.15C907.516 397.5 904.291 396.55 901.191 395.3C898.141 394.05 895.266 392.55 892.566 390.8C889.866 389.05 887.466 387.1 885.366 384.95L891.291 375.275C891.791 374.575 892.441 374 893.241 373.55C894.041 373.05 894.891 372.8 895.791 372.8C897.041 372.8 898.391 373.325 899.841 374.375C901.291 375.375 903.016 376.5 905.016 377.75C907.016 379 909.341 380.15 911.991 381.2C914.691 382.2 917.916 382.7 921.666 382.7C927.416 382.7 931.866 381.35 935.016 378.65C938.166 375.9 939.741 371.975 939.741 366.875C939.741 364.025 939.016 361.7 937.566 359.9C936.166 358.1 934.291 356.6 931.941 355.4C929.591 354.15 926.916 353.1 923.916 352.25C920.916 351.4 917.866 350.475 914.766 349.475C911.666 348.475 908.616 347.275 905.616 345.875C902.616 344.475 899.941 342.65 897.591 340.4C895.241 338.15 893.341 335.35 891.891 332C890.491 328.6 889.791 324.425 889.791 319.475C889.791 315.525 890.566 311.675 892.116 307.925C893.716 304.175 896.016 300.85 899.016 297.95C902.016 295.05 905.716 292.725 910.116 290.975C914.516 289.225 919.566 288.35 925.266 288.35C931.666 288.35 937.566 289.35 942.966 291.35C948.366 293.35 952.966 296.15 956.766 299.75L951.741 309.275ZM1026.57 344.075C1030.27 344.075 1033.49 343.625 1036.24 342.725C1038.99 341.775 1041.27 340.45 1043.07 338.75C1044.92 337 1046.29 334.9 1047.19 332.45C1048.09 329.95 1048.54 327.175 1048.54 324.125C1048.54 321.225 1048.09 318.6 1047.19 316.25C1046.29 313.9 1044.94 311.9 1043.14 310.25C1041.34 308.6 1039.07 307.35 1036.32 306.5C1033.57 305.6 1030.32 305.15 1026.57 305.15H1011.49V344.075H1026.57ZM1026.57 289.55C1033.82 289.55 1040.09 290.4 1045.39 292.1C1050.69 293.8 1055.07 296.175 1058.52 299.225C1061.97 302.275 1064.52 305.925 1066.17 310.175C1067.87 314.425 1068.72 319.075 1068.72 324.125C1068.72 329.375 1067.84 334.2 1066.09 338.6C1064.34 342.95 1061.72 346.7 1058.22 349.85C1054.72 353 1050.32 355.45 1045.02 357.2C1039.77 358.95 1033.62 359.825 1026.57 359.825H1011.49V398H991.315V289.55H1026.57ZM1148.87 357.05L1135.67 320.975C1135.02 319.375 1134.34 317.475 1133.64 315.275C1132.94 313.075 1132.24 310.7 1131.54 308.15C1130.89 310.7 1130.22 313.1 1129.52 315.35C1128.82 317.55 1128.14 319.475 1127.49 321.125L1114.37 357.05H1148.87ZM1184.49 398H1168.89C1167.14 398 1165.72 397.575 1164.62 396.725C1163.52 395.825 1162.69 394.725 1162.14 393.425L1154.04 371.3H1109.12L1101.02 393.425C1100.62 394.575 1099.84 395.625 1098.69 396.575C1097.54 397.525 1096.12 398 1094.42 398H1078.67L1121.34 289.55H1141.89L1184.49 398ZM1275.92 306.125H1243.22V398H1223.05V306.125H1190.35V289.55H1275.92V306.125ZM1325.36 398H1305.11V289.55H1325.36V398ZM1421.95 357.05L1408.75 320.975C1408.1 319.375 1407.42 317.475 1406.72 315.275C1406.02 313.075 1405.32 310.7 1404.62 308.15C1403.97 310.7 1403.3 313.1 1402.6 315.35C1401.9 317.55 1401.22 319.475 1400.57 321.125L1387.45 357.05H1421.95ZM1457.57 398H1441.97C1440.22 398 1438.8 397.575 1437.7 396.725C1436.6 395.825 1435.77 394.725 1435.22 393.425L1427.12 371.3H1382.2L1374.1 393.425C1373.7 394.575 1372.92 395.625 1371.77 396.575C1370.62 397.525 1369.2 398 1367.5 398H1351.75L1394.42 289.55H1414.97L1457.57 398ZM1547.32 381.35V398H1483.8V289.55H1503.97V381.35H1547.32Z" fill="black"/>
<path d="M306.876 316.525C292.688 307.09 288.721 287.875 298.015 273.607C307.309 259.34 326.345 255.422 340.533 264.858L413.274 313.231C427.462 322.666 431.429 341.881 422.135 356.149C412.841 370.417 393.805 374.334 379.617 364.899L306.876 316.525Z" fill="url(#paint0_linear)"/>
<path d="M0 310.74C0.332805 310.822 0.725489 310.975 1.11224 311.125C1.36294 311.223 1.61116 311.319 1.83894 311.395C2.19598 311.514 2.64853 311.714 3.02363 311.925L3.14815 312.361C3.26942 312.37 3.38297 312.381 3.49112 312.392C3.97779 312.44 4.35509 312.478 4.8317 312.267C4.91243 312.232 4.97818 312.184 5.0455 312.135C5.16617 312.048 5.29176 311.956 5.5173 311.925C6.28086 311.817 7.06665 311.653 6.76427 310.74C6.6408 310.368 6.34834 309.703 6.1409 309.369C6.04932 309.221 5.98054 309.094 5.92366 308.989L5.92309 308.988C5.67227 308.525 5.65252 308.489 4.92509 308.964C4.12439 309.487 2.72961 310.286 1.93258 309.556C1.64305 309.29 1.41067 309.636 1.21283 309.93C1.1363 310.044 1.06492 310.15 0.99742 310.21C0.885251 310.31 0.401187 310.544 0.151022 310.665C0.0609377 310.708 0.000552334 310.738 0 310.74Z" fill="url(#paint1_linear)"/>
<path d="M13.9183 34.8114C13.278 34.3856 12.6586 33.9399 12.0601 33.4756L25.0925 20.3383L40.7412 12.4222L72.9622 0L90.393 11.5917L94.3268 19.9955L100.561 22.2394L100.886 18.5697L389.331 210.39C396.841 215.384 401.488 223.116 402.822 231.405L402.827 241.348C402.157 245.503 400.632 249.583 398.195 253.323C388.898 267.596 369.855 271.514 355.662 262.076L13.9183 34.8114Z" fill="url(#paint2_linear)"/>
<path d="M55.9537 149.599L379.617 364.899C391.395 372.731 412.018 364.997 422.135 356.149L413.274 313.231L402.854 306.216L12.6928 46.7531C9.66788 44.7415 6.4227 43.3366 3.09852 42.5094L2.46151 43.1515L4.33285 44.4294C5.08988 45.1005 5.75012 45.7029 6.14091 46.5797C6.15638 46.6144 6.1976 46.6897 6.25327 46.7915C6.5232 47.2847 7.1328 48.3988 6.7954 48.5122C6.79539 48.6391 6.69441 48.7381 6.58632 48.8441C6.46185 48.9662 6.32795 49.0975 6.32796 49.2913C6.32796 49.6004 6.46773 49.7828 6.62297 49.9854C6.6804 50.0604 6.74003 50.1382 6.79539 50.2261C6.93603 50.4491 7.14834 50.6042 7.35263 50.7534C7.65974 50.9777 7.94872 51.1888 7.94871 51.5975C7.94871 52.0326 8.1411 52.4693 8.31589 52.8662C8.7135 53.7688 9.02008 54.4647 6.76426 54.4647L6.73315 54.4958C6.73314 55.6904 7.12786 56.3659 8.3853 56.3658C8.50497 56.5446 8.73255 56.6812 8.97144 56.8245C9.21342 56.9698 9.4672 57.1221 9.63198 57.332L10.9726 58.0487L10.4115 61.6327L8.75935 62.6612L8.63458 64.0326L15.7106 62.6302L15.8043 65.7155C15.7696 65.8194 15.312 65.7461 14.9846 65.6937C14.8472 65.6717 14.7327 65.6533 14.6821 65.6533C14.614 65.6533 14.5414 65.6523 14.4659 65.6512C14.0692 65.6454 13.5921 65.6384 13.2792 65.7779C12.9125 65.9411 11.7283 67.3659 12.6559 67.5542C12.7658 67.5765 13.033 67.5841 13.3138 67.592C13.73 67.6038 14.1762 67.6164 14.1833 67.679C14.2633 68.3895 14.043 69.0248 13.3104 69.206L13.3104 69.2684C13.9455 69.2684 14.3757 68.9994 14.7676 68.7544C15.0689 68.566 15.3476 68.3917 15.6795 68.3647C16.6674 68.2843 16.935 68.6176 17.3246 69.1029C17.4502 69.2594 17.5887 69.4319 17.768 69.6112C18.1307 69.9742 18.4901 70.2811 18.8271 70.569C19.9084 71.4924 20.7605 72.2201 20.7605 73.9744C20.9315 73.9744 21.2946 73.2619 21.5911 72.6802C21.7539 72.3607 21.8966 72.0807 21.9763 71.9798C22.57 71.2284 22.9909 71.2551 23.7015 71.3C23.8923 71.312 24.1039 71.3254 24.3455 71.3254C25.2001 71.3254 25.837 72.1662 26.5039 73.0466C27.3587 74.175 28.263 75.3687 29.7382 74.9405L29.3642 81.4853C29.3642 82.961 29.0343 85.2251 27.1821 85.2251C26.9071 85.2251 26.622 85.1911 26.3499 85.1586C26.1015 85.129 25.8639 85.1006 25.6547 85.1006C25.6547 85.4896 25.9992 85.9612 26.3598 86.4549C26.8838 87.1722 27.4417 87.936 27.0261 88.5601C26.89 88.7648 26.723 88.8652 26.5703 88.9571C26.407 89.0553 26.2601 89.1437 26.1844 89.3392C26.0613 89.6567 26.0776 90.3183 26.0918 90.8931C26.0994 91.2011 26.1064 91.4845 26.091 91.6764C26.3838 92.4835 26.8793 93.1481 27.3798 93.8193C27.9833 94.6288 28.5941 95.4479 28.8653 96.5383C28.9903 97.0409 28.9819 98.1188 28.973 99.2552C28.9605 100.852 28.9471 102.564 29.3017 102.958C29.6758 103.374 30.071 103.595 30.4633 103.815C30.9711 104.099 31.4741 104.381 31.9201 105.078C32.0013 105.205 32.3214 105.111 32.6677 105.01C32.9339 104.932 33.2157 104.85 33.4163 104.86C35.205 104.948 36.2809 108.045 35.8478 109.535C35.9984 110.666 36.4314 112.048 37.0636 112.963C37.6233 113.773 37.5673 114.361 37.4947 115.123C37.4674 115.41 37.4376 115.722 37.4376 116.079C37.4376 116.663 37.6191 116.945 37.774 117.186C37.8567 117.314 37.9318 117.431 37.9676 117.575C39.4712 117.947 40.1824 119.396 40.5238 120.754C40.584 120.769 40.6025 120.788 40.6172 120.848C40.9255 120.848 41.2901 120.913 41.6667 120.981C42.0691 121.053 42.4858 121.128 42.8616 121.128C43.1949 121.128 43.3214 120.97 43.4362 120.826C43.571 120.658 43.6898 120.509 44.1085 120.661C44.7455 120.891 46.3032 122.482 46.4777 123.185C46.609 123.204 47.0984 123.298 47.1321 123.434C48.3804 123.748 48.3472 129.437 47.6621 130.415L51.995 137.241C52.7237 137.745 53.6832 138.018 53.803 136.836C53.9014 135.862 54.9024 136.827 55.1122 137.085C55.6223 137.713 55.7358 139.966 55.7358 140.825C56.9777 141.132 57.097 141.682 57.2697 142.479C57.3467 142.834 57.4344 143.238 57.6373 143.692C57.9273 144.341 56.7338 145.493 55.9322 146.267C55.7077 146.484 55.514 146.671 55.3921 146.809L55.9537 149.599Z" fill="url(#paint3_linear)"/>
<path d="M341.663 426.917C350.346 432.692 360.844 433.467 369.815 429.931C370.618 429.503 371.439 429.121 372.262 428.84C376.957 426.494 381.113 422.899 384.197 418.165C393.494 403.892 389.526 384.67 375.333 375.232L59.0309 164.886L59.4446 166.942L59.6938 171.367L62.3442 174.827L60.5361 187.792C59.973 189.483 59.3083 190.706 58.5013 192.191L58.3854 192.404C57.9245 193.253 57.244 193.778 56.5478 194.316C56.2325 194.559 55.9139 194.805 55.6111 195.084C55.3109 195.361 54.963 195.466 54.6269 195.567C54.3547 195.648 54.0903 195.728 53.8653 195.895C52.7637 196.712 52.4344 197.912 52.0979 199.138C52.0639 199.262 52.0299 199.386 51.995 199.51C51.777 199.99 51.733 200.486 51.6903 200.967C51.6504 201.415 51.6116 201.852 51.4339 202.252C51.2622 202.639 50.5316 202.572 49.8357 202.507C49.2474 202.452 48.6837 202.4 48.5039 202.626C48.4356 202.713 48.3796 202.792 48.3287 202.864C48.0965 203.193 47.9686 203.374 47.2569 203.374C47.2569 203.603 47.6148 204.251 47.8492 204.309C47.8491 205.277 48.8382 207.229 49.5636 207.956C50.5165 208.91 51.3115 210.072 50.9353 211.54C50.1225 214.711 47.7926 214.774 45.4358 214.838C43.9832 214.877 42.5205 214.917 41.3964 215.685L38.248 217.835C36.9606 217.977 36.5832 218.86 36.2302 219.686C35.8956 220.469 35.583 221.201 34.5385 221.201C34.1036 221.201 33.6901 221.456 33.3153 221.862L341.663 426.917Z" fill="url(#paint4_linear)"/>
<path d="M344.745 477.574C344.496 477.762 344.274 477.984 344.139 478.316L343.884 478.943C334.525 493.002 315.628 496.815 301.522 487.434L29.0572 306.241C29.084 306.148 29.1092 306.06 29.1331 305.976C29.5214 304.612 29.601 304.333 31.6708 303.634C31.7792 303.598 31.8953 303.557 32.0176 303.515C33.3069 303.066 35.2783 302.379 36.1284 303.447C36.926 304.449 40.4741 304.225 42.7396 304.081C43.3623 304.042 43.8881 304.008 44.2333 304.008L44.2932 304.009L44.3884 304.009C44.4912 304.01 44.5936 304.011 44.6951 304.013C46.1748 304.033 47.4751 304.051 47.4751 302.107C47.4713 302.106 47.4581 302.102 47.4373 302.096C47.1989 302.029 45.9687 301.683 46.4777 301.515C46.4777 301.361 46.9293 301.309 47.2923 301.267C47.4659 301.247 47.6193 301.229 47.6932 301.203C47.7529 301.183 47.8118 301.16 47.8705 301.137C48.1202 301.039 48.3668 300.943 48.6595 301.048C48.7611 301.084 48.9552 301.284 49.1824 301.517C49.6838 302.033 50.3465 302.714 50.5301 302.17C51.056 302.17 51.396 301.651 51.7204 301.155C51.9716 300.772 52.2134 300.403 52.5249 300.3C52.5249 300.291 52.5254 300.281 52.5259 300.272L52.5272 300.255C52.531 300.205 52.5345 300.157 52.4938 300.144C52.4938 299.626 51.8504 299.24 51.2 298.85C50.6942 298.547 50.1841 298.241 49.9688 297.869C49.8388 297.644 49.6524 297.263 49.4371 296.823C48.8784 295.681 48.1254 294.142 47.6621 293.911C47.5751 293.867 47.3847 293.809 47.1452 293.736L47.1429 293.735L47.1406 293.735C46.2858 293.474 44.8133 293.026 45.1684 292.384C45.6165 291.573 46.1036 289.986 46.1036 289.049L46.0725 289.018C45.3074 289.018 44.961 289.447 44.5137 290.015C44.3671 290.201 43.8165 290.14 43.3195 290.085C43.0211 290.051 42.7419 290.02 42.5811 290.046C41.6465 290.198 39.0275 291.566 39.0275 292.757C38.66 292.85 37.9267 292.745 37.2226 292.644C36.7393 292.575 36.2693 292.508 35.9414 292.508C35.2511 292.508 34.5695 293.264 34.0366 293.855C33.9029 294.003 33.7786 294.141 33.6659 294.254C33.4216 294.498 33.1708 294.922 32.94 295.312C32.4086 296.21 31.9826 296.93 31.9826 294.877C31.767 294.804 31.5195 294.703 31.2514 294.594L31.2503 294.594L31.2451 294.592L31.2418 294.59L31.2407 294.59C29.7337 293.975 27.585 293.098 26.808 295.438C26.7894 295.433 26.7746 295.429 26.761 295.424C26.7288 295.414 26.7038 295.407 26.6521 295.407C26.321 294.074 24.7186 294.884 23.7051 295.397C23.3806 295.562 23.1164 295.695 22.9737 295.718C23.0356 296.049 23.0544 296.297 23.0691 296.49C23.1134 297.071 23.1188 297.142 24.1584 297.464C24.6834 297.626 25.2351 297.651 25.7481 297.651C25.8153 297.921 25.8743 298.222 25.935 298.531L25.9353 298.532C26.039 299.06 26.1474 299.612 26.3092 300.082C26.5256 300.71 25.8131 301.306 25.2655 301.764C25.1157 301.889 24.9778 302.005 24.8752 302.107C24.6395 302.342 24.4168 302.596 24.1935 302.851L24.1928 302.852L24.1071 302.949L18.4583 299.193C18.5917 298.292 17.84 298.2 17.0471 298.254L14.6994 296.693C14.5051 296.24 14.2982 295.831 14.0896 295.687C13.8367 295.512 13.4931 295.553 13.1377 295.654L8.82836 292.789C8.36727 292.158 8.71816 292.036 9.2145 291.864C9.6778 291.703 10.2678 291.498 10.4426 290.794C10.6042 290.794 10.7923 290.854 10.9672 290.909C11.3753 291.038 11.7114 291.144 11.4712 290.42L10.006 290.327C10.006 289.756 10.6961 289.433 11.1488 289.222C11.2093 289.193 11.2655 289.167 11.3153 289.142C11.5232 289.039 11.4187 288.783 11.306 288.506C11.2345 288.33 11.1596 288.147 11.1596 287.989C10.9612 287.94 10.6514 288.012 10.327 288.087C9.68144 288.238 8.97749 288.402 8.9775 287.646C8.8694 287.646 8.67028 288.07 8.43818 288.563C7.9873 289.521 7.41205 290.744 7.13833 289.641C7.04891 289.641 7.06774 289.571 7.08823 289.494C7.09754 289.459 7.10718 289.423 7.10719 289.392C7.21898 289.364 7.35413 289.254 7.48543 289.147C7.60944 289.046 7.73003 288.948 7.82419 288.924C7.82418 288.077 6.85775 288.312 6.06407 288.504L6.06201 288.505C5.76254 288.577 5.48784 288.644 5.29915 288.644C5.22496 288.345 5.23958 288.161 5.25487 287.968C5.26138 287.886 5.26801 287.803 5.26801 287.709C5.31629 287.697 5.36814 287.678 5.42169 287.659L5.42291 287.659C5.5251 287.623 5.63365 287.584 5.73547 287.584L6.5461 286.805C6.77497 286.585 6.88354 286.016 6.39019 286.057C6.11392 286.08 5.86326 286.205 5.61606 286.328C5.10402 286.583 4.60685 286.83 3.92766 286.151C3.3772 285.599 3.20514 284.76 3.03292 283.92C2.80677 282.816 2.58036 281.712 1.49626 281.257C0.42246 280.807 -0.0769016 279.049 1.27784 278.671C2.16461 278.423 2.37648 278.021 2.40002 277.206C2.41366 277.111 2.41912 277.016 2.42454 276.921C2.43553 276.729 2.44633 276.54 2.5248 276.364C2.55287 276.301 2.61694 276.239 2.6822 276.176C2.77376 276.087 2.86772 275.996 2.86773 275.897C3.12841 275.767 2.90348 275.444 2.78773 275.278C2.7692 275.251 2.75346 275.228 2.74295 275.211C2.56654 274.924 2.63183 274.741 2.72596 274.477C2.74155 274.433 2.7579 274.388 2.77409 274.339C2.85516 274.093 3.00706 273.803 3.16007 273.511C3.36992 273.11 3.58183 272.705 3.61586 272.406C3.62649 272.314 3.691 272.108 3.76053 271.887C3.87427 271.526 4.00137 271.122 3.92767 271.098L3.92767 270.973C3.73514 270.909 3.53267 270.832 3.33779 270.736L4.36398 269.601C5.28579 269.126 5.59664 268.341 5.90815 267.555C6.14505 266.957 6.38235 266.357 6.88905 265.893C7.23057 265.58 7.57141 265.35 7.89053 265.134C8.71893 264.575 9.40109 264.114 9.56974 262.558C9.65216 261.796 9.32624 261.262 9.00011 260.728C8.70835 260.25 8.41642 259.772 8.41641 259.13C8.41641 257.914 8.76539 257.737 9.29311 257.469C9.53088 257.348 9.80493 257.209 10.0997 256.948C10.3826 256.698 10.5042 255.141 10.6061 253.837C10.6637 253.1 10.715 252.443 10.7856 252.149C11.1697 250.547 11.7321 250.554 12.3659 250.561C12.8329 250.567 13.3387 250.573 13.8403 249.936C14.0423 249.68 14.1691 249.451 14.2784 249.255C14.5793 248.713 14.7481 248.409 15.9913 248.409C17.3557 248.409 19.2954 248.078 19.2954 246.383C19.2954 245.618 19.8472 245.297 20.4322 244.956L20.4334 244.956C20.5741 244.874 20.7168 244.791 20.8541 244.7C21.589 244.215 21.501 243.465 21.4118 242.706C21.3823 242.454 21.3527 242.202 21.3527 241.958C21.2704 240.91 21.8651 240.619 22.6212 240.249C23.1443 239.993 23.7447 239.699 24.2518 239.09C24.5524 238.73 25.1399 238.692 25.6837 238.658C26.255 238.621 26.7782 238.588 26.8703 238.187C26.9713 237.746 26.9481 237.445 26.9289 237.198C26.8926 236.727 26.8709 236.447 27.7432 235.756C28.4559 235.191 28.4852 234.971 28.5322 234.617C28.5626 234.389 28.6003 234.105 28.8342 233.636C29.0448 233.214 29.3309 232.871 29.6242 232.542L335.192 435.749C349.021 444.945 353.143 463.43 344.745 477.574Z" fill="url(#paint5_linear)"/>
<path d="M139.217 30.1733C140.484 31.3695 141.867 32.4742 143.365 33.4699L355.405 174.48C369.598 183.918 388.641 180 397.938 165.727C400.694 161.496 402.285 156.83 402.789 152.113L402.786 145.455C401.831 136.551 397.078 128.117 389.074 122.794L326.215 80.9914L322.289 84.6019L320.699 89.7755L318.018 89.2458C317.74 88.8969 317.606 88.387 317.474 87.8824C317.33 87.3351 317.188 86.7941 316.865 86.4719C316.614 86.2214 316.19 86.3909 315.78 86.5549C315.53 86.6547 315.286 86.7524 315.088 86.7524C314.238 86.7524 313.356 86.6191 312.459 86.4836C311.146 86.2853 309.802 86.0823 308.48 86.285C307.432 86.4456 307.609 85.6404 307.773 84.8928L307.773 84.8918C307.831 84.6274 307.887 84.3702 307.887 84.1656C307.405 84.1656 307.043 84.5418 306.69 84.9089C306.51 85.0961 306.332 85.281 306.142 85.4124C305.704 85.715 304.847 85.6769 304.161 85.6465C303.973 85.6381 303.798 85.6304 303.648 85.6304C303.381 85.6304 303.085 85.6455 302.777 85.6612C301.367 85.7332 299.694 85.8185 299.377 84.5395C298.385 84.5395 294.875 83.2297 294.109 82.5451C292.62 81.2133 292.429 82.2027 292.288 82.9301C292.172 83.5325 292.09 83.9554 291.335 82.7321C291.195 82.5048 290.866 82.7437 290.526 82.9905C290.237 83.2005 289.94 83.4162 289.745 83.3553C289.516 83.2839 289.36 83.1923 289.213 83.1054C288.963 82.9588 288.737 82.8255 288.218 82.8255C287.347 82.8255 286.798 83.0134 286.251 83.2006C285.538 83.4444 284.829 83.687 283.417 83.5112L273.349 80.457C272.562 80.0627 272.388 79.6922 272.178 79.2463C272.079 79.0363 271.972 78.8096 271.79 78.5558C271.698 78.4276 271.613 78.2853 271.529 78.1429C271.232 77.6419 270.935 77.1398 270.294 77.2469C270.264 77.4599 270.076 77.8767 269.908 78.2498C269.811 78.4654 269.72 78.6667 269.67 78.8052C269.552 79.1343 268.98 79.0938 268.594 79.0665C268.555 79.0636 268.517 79.061 268.482 79.0588C268.437 79.0561 268.396 79.0543 268.361 79.0543C267.374 79.0543 266.106 78.9882 265.15 78.8052C264.401 78.6616 264.27 78.459 263.982 78.014L263.981 78.0128C263.908 77.899 263.824 77.7694 263.716 77.6208L263.643 77.5188L263.641 77.5166C263.226 76.941 262.551 76.0061 262.251 75.4082C262.038 75.4082 260.903 75.7515 260.88 75.8445C260.812 75.8557 260.812 75.8558 260.817 75.8573C260.821 75.8586 260.83 75.8612 260.786 75.8756C260.721 76.1384 260.921 76.42 261.114 76.6925C261.218 76.8399 261.321 76.9845 261.379 77.1221L257.7 78.2441L242.176 77.3714L239.199 78.1817L234.96 74.8781L232.419 71.5902L230.456 70.6397L183.261 39.5676C182.199 39.2351 181.667 38.4535 181.131 37.6674C180.719 37.0619 180.304 36.4536 179.645 36.0457C179.437 35.9169 179.216 35.8618 178.999 35.8078C178.766 35.7497 178.538 35.6928 178.336 35.5472C178.005 35.3085 177.832 35.0167 177.648 34.7076C177.563 34.5642 177.476 34.4167 177.369 34.2693C176.992 33.746 176.594 33.9223 176.185 34.1032C175.918 34.2213 175.647 34.3414 175.374 34.2693C175.159 34.2125 174.903 34.0202 174.675 33.8488C174.477 33.7007 174.301 33.5682 174.19 33.5526C174.148 33.2551 173.091 33.1121 172.523 33.0352C172.392 33.0175 172.287 33.0033 172.226 32.9915L166.149 30.3736L156.205 30.4049C155.68 30.3259 155.287 30.1644 154.871 29.9934C154.685 29.9173 154.496 29.8394 154.288 29.766C153.688 29.5541 152.772 29.8576 152.139 30.0671C152.079 30.0872 152.021 30.1064 151.966 30.1242C151.602 30.2421 151.229 30.3019 150.857 30.3616L150.855 30.3618C150.768 30.3758 150.68 30.3899 150.593 30.4046L139.217 30.1733Z" fill="url(#paint6_linear)"/>
<path d="M348.796 84.6244C342.639 80.5298 338.406 74.5941 336.346 68.02L338.561 63.4093L356.454 54.1843L356.766 53.1868L358.138 53.2492L385.507 41.6557L387.689 41.5933L388.874 39.7856L390.826 39.5161C391.323 40.0872 392.008 40.3551 393.174 40.6895C394.647 41.1122 395.178 42.3021 395.742 43.5637C395.921 43.9668 396.105 44.3772 396.323 44.7723L396.393 44.9004C396.821 45.6775 397.283 46.517 398.1 46.9849C398.5 47.2144 398.941 47.3482 399.377 47.4806C399.861 47.6274 400.339 47.7725 400.749 48.0445C401.39 48.469 401.844 48.8657 402.272 49.2399C402.942 49.8252 403.548 50.3551 404.708 50.8494C405.307 51.1043 405.503 51.6215 405.709 52.161C405.853 52.5406 406.002 52.9312 406.298 53.2492C407.544 54.5898 409.487 56.5815 410.974 57.6124C411.055 57.6689 411.143 57.7308 411.237 57.7965C412.327 58.5648 414.17 59.8631 415.369 59.2642C417.598 58.1506 418.79 58.4709 420.527 58.9379L420.627 58.9647C431.044 69.1392 433.193 85.6264 424.973 98.2451C415.676 112.518 396.633 116.437 382.44 106.998L348.796 84.6244Z" fill="url(#paint7_linear)"/>
<path d="M13.781 309.975L297.877 498.903C312.07 508.342 316.039 527.563 306.741 541.836C304.604 545.116 301.952 547.85 298.963 550L219.732 494.057L217.738 488.79L217.702 488.636C217.471 487.635 217.212 486.509 216.272 485.954C216.042 485.817 215.633 485.743 215.196 485.664C214.473 485.533 213.672 485.388 213.467 484.925C213.144 484.197 211.919 484.59 210.845 484.934C209.7 485.302 208.726 485.614 209.196 484.458C209.318 484.158 209.44 483.911 209.551 483.683C209.843 483.091 210.069 482.63 210.069 481.715H210.007C209.968 481.557 209.46 481.546 208.967 481.534C208.459 481.523 207.964 481.511 208.012 481.341C208.068 481.137 208.101 480.96 208.13 480.8C208.216 480.335 208.274 480.023 208.822 479.627C209.446 479.177 209.957 478.511 210.471 477.841C211.094 477.027 211.723 476.208 212.563 475.762C213.268 475.389 214.464 474.142 214.464 473.3C214.6 473.273 214.698 473.22 214.8 473.164C214.932 473.093 215.07 473.017 215.306 472.989L213.062 458.715L204.211 452.914L8.75438 342.912C8.90662 342.885 9.10072 342.872 9.35156 342.872C9.41672 342.609 9.37136 342.381 9.32159 342.13L9.32043 342.124C8.63596 341.93 8.14067 341.941 7.57458 341.954C7.24267 341.961 6.88555 341.969 6.45247 341.937C6.08782 341.909 6.30546 341.365 6.51497 341.283C6.59099 341.253 6.75411 341.276 6.92195 341.3C7.13915 341.331 7.36476 341.363 7.41874 341.283C7.54787 341.283 7.69236 341.2 7.833 341.119C7.95072 341.051 8.06577 340.985 8.16686 340.971C8.19207 340.871 8.19323 340.705 8.19447 340.526C8.19729 340.123 8.20057 339.656 8.47866 339.724C8.59874 340.086 11.0367 342.933 10.8789 341.376C10.8557 341.147 10.7301 340.818 10.59 340.451C10.2031 339.438 9.70508 338.134 10.9412 337.823C10.954 337.785 10.9655 337.773 11.0037 337.761C11.016 337.711 11.0652 337.584 11.0971 337.574C11.0971 336.932 11.2784 336.696 11.4538 336.467C11.5579 336.331 11.6599 336.198 11.7207 335.984C12.2188 335.94 12.9483 335.376 13.5397 334.92C13.7587 334.751 13.9587 334.597 14.121 334.488C14.5003 334.236 13.9936 332.743 13.6844 332.743C13.5898 332.743 13.4952 332.744 13.4008 332.745C12.847 332.75 12.2983 332.755 11.783 332.587C11.1685 332.388 10.2132 331.302 10.1931 330.655C9.9264 330.12 8.46254 330.124 7.81836 330.125L7.73054 330.125C7.63376 329.83 7.80666 328.726 8.19826 328.629C8.21893 328.546 8.25484 328.484 8.28822 328.427C8.34309 328.332 8.39123 328.249 8.35415 328.099L7.32536 327.757C7.32535 327.333 7.38904 327.126 7.44009 326.96C7.50935 326.734 7.55534 326.585 7.38761 326.074L5.86024 326.105L5.82911 326.074C5.8291 325.587 6.30256 325.153 6.73313 325.045C6.77587 324.873 6.65222 324.722 6.51022 324.549C6.35245 324.357 6.17203 324.137 6.17205 323.83C6.17205 323.526 6.26143 323.269 6.34893 323.017C6.43282 322.775 6.51497 322.538 6.51496 322.271C6.51496 321.806 6.43088 321.48 6.36608 321.23C6.21362 320.64 6.16783 320.463 7.57464 319.841C7.94242 319.678 8.30527 319.142 8.57534 318.743C8.74032 318.5 8.87069 318.307 8.94637 318.282C8.94637 317.923 8.45411 317.833 8.11936 317.773C8.0809 317.766 8.04454 317.759 8.01123 317.753C7.99108 317.672 6.99419 316.883 6.85765 316.849C6.85764 316.616 7.84485 316.194 8.04235 316.194C8.16163 316.554 9.21451 316.767 9.5386 316.568C10.0453 316.257 9.97588 315.917 9.89159 315.503C9.85659 315.332 9.81903 315.147 9.81902 314.947C9.91775 314.915 10.1486 315.045 10.3975 315.186C10.7659 315.394 11.174 315.624 11.253 315.384C12.4649 315.384 12.3904 314.66 12.3008 313.791C12.2464 313.262 12.1864 312.68 12.4063 312.174C12.7427 311.399 13.2457 310.683 13.781 309.975Z" fill="url(#paint8_linear)"/>
<path d="M11.101 308.193L12.8532 309.358C12.6741 309.464 12.4728 309.506 12.3129 309.4C12.2394 309.351 12.1694 309.232 12.096 309.106C11.9568 308.869 11.8057 308.611 11.596 308.777C11.5094 308.845 11.4757 308.927 11.4421 309.01C11.3905 309.136 11.339 309.262 11.0971 309.338C10.6111 309.489 9.59274 308.278 10.4426 308.278C10.6514 308.278 10.878 308.25 11.101 308.193Z" fill="url(#paint9_linear)"/>
<defs>
<linearGradient id="paint0_linear" x1="0.453189" y1="77.5337" x2="441.829" y2="344.743" gradientUnits="userSpaceOnUse">
<stop offset="0.00206825" stop-color="#373B50"/>
<stop offset="1" stop-color="#00F0FF"/>
</linearGradient>
<linearGradient id="paint1_linear" x1="0.453189" y1="77.5337" x2="441.829" y2="344.743" gradientUnits="userSpaceOnUse">
<stop offset="0.00206825" stop-color="#373B50"/>
<stop offset="1" stop-color="#00F0FF"/>
</linearGradient>
<linearGradient id="paint2_linear" x1="0.453189" y1="77.5337" x2="441.829" y2="344.743" gradientUnits="userSpaceOnUse">
<stop offset="0.00206825" stop-color="#373B50"/>
<stop offset="1" stop-color="#00F0FF"/>
</linearGradient>
<linearGradient id="paint3_linear" x1="0.453189" y1="77.5337" x2="441.829" y2="344.743" gradientUnits="userSpaceOnUse">
<stop offset="0.00206825" stop-color="#373B50"/>
<stop offset="1" stop-color="#00F0FF"/>
</linearGradient>
<linearGradient id="paint4_linear" x1="0.453189" y1="77.5337" x2="441.829" y2="344.743" gradientUnits="userSpaceOnUse">
<stop offset="0.00206825" stop-color="#373B50"/>
<stop offset="1" stop-color="#00F0FF"/>
</linearGradient>
<linearGradient id="paint5_linear" x1="0.453189" y1="77.5337" x2="441.829" y2="344.743" gradientUnits="userSpaceOnUse">
<stop offset="0.00206825" stop-color="#373B50"/>
<stop offset="1" stop-color="#00F0FF"/>
</linearGradient>
<linearGradient id="paint6_linear" x1="0.453189" y1="77.5337" x2="441.829" y2="344.743" gradientUnits="userSpaceOnUse">
<stop offset="0.00206825" stop-color="#373B50"/>
<stop offset="1" stop-color="#00F0FF"/>
</linearGradient>
<linearGradient id="paint7_linear" x1="0.453189" y1="77.5337" x2="441.829" y2="344.743" gradientUnits="userSpaceOnUse">
<stop offset="0.00206825" stop-color="#373B50"/>
<stop offset="1" stop-color="#00F0FF"/>
</linearGradient>
<linearGradient id="paint8_linear" x1="0.453189" y1="77.5337" x2="441.829" y2="344.743" gradientUnits="userSpaceOnUse">
<stop offset="0.00206825" stop-color="#373B50"/>
<stop offset="1" stop-color="#00F0FF"/>
</linearGradient>
<linearGradient id="paint9_linear" x1="0.453189" y1="77.5337" x2="441.829" y2="344.743" gradientUnits="userSpaceOnUse">
<stop offset="0.00206825" stop-color="#373B50"/>
<stop offset="1" stop-color="#00F0FF"/>
</linearGradient>
</defs>
</svg>
