<svg width="40" height="40" viewBox="0 0 40 40" fill="none" xmlns="http://www.w3.org/2000/svg">
<path d="M20 0C8.95427 0 0 8.95427 0 20C0 31.0457 8.95427 40 20 40C31.0457 40 40 31.0457 40 20C40 8.95427 31.0457 0 20 0ZM12.5062 33.5411H6.88368V15.4508H12.5062V33.5411ZM9.69616 12.978C7.89402 12.978 6.43519 11.5171 6.43519 9.71744C6.4356 7.91939 7.89402 6.45852 9.69616 6.45852C11.4934 6.45852 12.9543 7.91939 12.9543 9.71744C12.9543 11.5175 11.493 12.978 9.69616 12.978ZM33.5644 33.5411H27.9464V24.7435C27.9464 22.6455 27.9075 19.9472 25.0238 19.9472C22.0996 19.9472 21.6499 22.2322 21.6499 24.5917V33.5407H16.0323V15.4508H21.4249V17.9229H21.5006C22.2515 16.5005 24.0847 15.0011 26.8203 15.0011C32.5136 15.0011 33.5644 18.7478 33.5644 23.6186V33.5411Z" fill="#1F4E5F"/>
</svg>
