<svg width="101" height="129" viewBox="0 0 101 129" fill="none" xmlns="http://www.w3.org/2000/svg">
<path fill-rule="evenodd" clip-rule="evenodd" d="M0 46.5129C0 20.7979 22.5538 0 50.4399 0C78.326 0 100.88 20.7979 100.88 46.5129C100.88 73.3767 70.9666 110.091 57.2133 125.555C53.6152 129.601 47.2646 129.601 43.6665 125.555C29.9132 110.091 0 73.3767 0 46.5129ZM50.2155 71.1653C67.337 71.1653 81.2155 57.2864 81.2155 40.1653C81.2155 23.0445 67.337 9.1653 50.2155 9.1653C33.0939 9.1653 19.2155 23.0445 19.2155 40.1653C19.2155 57.2864 33.0939 71.1653 50.2155 71.1653Z" fill="#6EC401"/>
</svg>
