<svg width="99" height="131" viewBox="0 0 99 131" fill="none" xmlns="http://www.w3.org/2000/svg">
<path fill-rule="evenodd" clip-rule="evenodd" d="M0 47.385C0 21.1879 22.1336 0 49.5 0C76.8664 0 99 21.1879 99 47.385C99 74.7525 69.6442 112.155 56.1472 127.909C52.6162 132.03 46.3838 132.03 42.8528 127.909C29.3558 112.155 0 74.7525 0 47.385ZM49.4992 70.0271C66.4234 70.0271 80.142 56.4414 80.142 39.682C80.142 22.9229 66.4234 9.33696 49.4992 9.33696C32.5749 9.33696 18.8563 22.9229 18.8563 39.682C18.8563 56.4414 32.5749 70.0271 49.4992 70.0271Z" fill="#47D881"/>
</svg>
