<svg width="548" height="183" viewBox="0 0 548 183" fill="none" xmlns="http://www.w3.org/2000/svg">
<circle cx="91.5" cy="91.5" r="91.5" fill="#1F4E5F"/>
<circle cx="92" cy="68" r="68" fill="#477680"/>
<path d="M130.33 106.891C122.848 114.583 113.315 119.821 102.937 121.943C92.5593 124.065 81.8023 122.976 72.0264 118.813C62.2506 114.651 53.895 107.601 48.0164 98.5564C42.1377 89.5117 39 78.878 39 68C39 57.122 42.1377 46.4883 48.0164 37.4436C53.895 28.3989 62.2506 21.3494 72.0264 17.1866C81.8023 13.0238 92.5593 11.9346 102.937 14.0568C113.315 16.179 122.848 21.4172 130.33 29.1091L120.873 38.8318C115.261 33.0629 108.111 29.1342 100.328 27.5426C92.5445 25.951 84.4767 26.7679 77.1448 29.89C69.8129 33.0121 63.5463 38.2992 59.1373 45.0827C54.7283 51.8663 52.375 59.8415 52.375 68C52.375 76.1585 54.7283 84.1337 59.1373 90.9173C63.5463 97.7008 69.8129 102.988 77.1448 106.11C84.4767 109.232 92.5445 110.049 100.328 108.457C108.111 106.866 115.261 102.937 120.873 97.1682L130.33 106.891Z" fill="white"/>
<path d="M94.988 81.0708L100.943 78.9999L131.184 143.356C133.92 149.177 134.529 155.641 132.924 161.801L94.988 81.0708Z" fill="white"/>
<path d="M89.8128 81.0708L83.8581 78.9999L53.6166 143.356C50.8812 149.177 50.2715 155.641 51.8771 161.801L89.8128 81.0708Z" fill="white"/>
<path d="M89.9192 33.3839H94.2782L96.4577 61.0597H87.7397L89.9192 33.3839Z" fill="white"/>
<ellipse cx="92.0984" cy="33.3838" rx="2.17948" ry="1.38379" fill="white"/>
<path fill-rule="evenodd" clip-rule="evenodd" d="M92.5 84C99.4036 84 105 78.4036 105 71.5C105 64.5964 99.4036 59 92.5 59C85.5964 59 80 64.5964 80 71.5C80 78.4036 85.5964 84 92.5 84ZM92.5 79C96.6421 79 100 75.6421 100 71.5C100 67.3579 96.6421 64 92.5 64C88.3579 64 85 67.3579 85 71.5C85 75.6421 88.3579 79 92.5 79Z" fill="white"/>
<line x1="200" y1="151" x2="548" y2="151" stroke="black" stroke-opacity="0.25" stroke-width="4"/>
<path d="M229.275 67.975C229.592 67.975 229.867 68.1 230.1 68.35L232.425 70.875C230.958 72.6417 229.158 74.0083 227.025 74.975C224.892 75.925 222.342 76.4 219.375 76.4C216.742 76.4 214.358 75.95 212.225 75.05C210.108 74.1333 208.3 72.8667 206.8 71.25C205.3 69.6167 204.142 67.675 203.325 65.425C202.525 63.175 202.125 60.7 202.125 58C202.125 55.3 202.55 52.825 203.4 50.575C204.267 48.3083 205.475 46.3667 207.025 44.75C208.592 43.1167 210.458 41.85 212.625 40.95C214.808 40.05 217.208 39.6 219.825 39.6C222.425 39.6 224.717 40.025 226.7 40.875C228.7 41.7083 230.433 42.825 231.9 44.225L229.975 46.95C229.842 47.1333 229.683 47.2917 229.5 47.425C229.317 47.5583 229.067 47.625 228.75 47.625C228.417 47.625 228.033 47.475 227.6 47.175C227.183 46.8583 226.642 46.5167 225.975 46.15C225.325 45.7667 224.5 45.425 223.5 45.125C222.517 44.8083 221.283 44.65 219.8 44.65C218.083 44.65 216.508 44.95 215.075 45.55C213.642 46.15 212.408 47.025 211.375 48.175C210.342 49.325 209.533 50.725 208.95 52.375C208.383 54.025 208.1 55.9 208.1 58C208.1 60.1167 208.4 62.0083 209 63.675C209.6 65.325 210.425 66.725 211.475 67.875C212.525 69.0083 213.758 69.875 215.175 70.475C216.592 71.075 218.117 71.375 219.75 71.375C220.75 71.375 221.642 71.325 222.425 71.225C223.225 71.1083 223.958 70.9333 224.625 70.7C225.292 70.45 225.917 70.1417 226.5 69.775C227.1 69.4083 227.692 68.9583 228.275 68.425C228.608 68.125 228.942 67.975 229.275 67.975ZM267.278 40V76H261.428V59.975H243.353V76H237.478V40H243.353V55.75H261.428V40H267.278ZM286.307 57.25C287.64 57.25 288.807 57.0917 289.807 56.775C290.807 56.4417 291.64 55.9833 292.307 55.4C292.974 54.8167 293.474 54.125 293.807 53.325C294.14 52.5083 294.307 51.6083 294.307 50.625C294.307 48.6583 293.657 47.1583 292.357 46.125C291.057 45.0917 289.09 44.575 286.457 44.575H281.707V57.25H286.307ZM303.257 76H298.032C296.999 76 296.249 75.6 295.782 74.8L287.382 62.675C287.099 62.2583 286.79 61.9583 286.457 61.775C286.124 61.5917 285.624 61.5 284.957 61.5H281.707V76H275.857V40H286.457C288.824 40 290.857 40.2417 292.557 40.725C294.274 41.2083 295.682 41.9 296.782 42.8C297.882 43.6833 298.69 44.75 299.207 46C299.74 47.25 300.007 48.6417 300.007 50.175C300.007 51.425 299.815 52.5917 299.432 53.675C299.065 54.7583 298.524 55.7417 297.807 56.625C297.107 57.5083 296.24 58.275 295.207 58.925C294.174 59.575 292.999 60.0833 291.682 60.45C292.399 60.8833 293.015 61.4917 293.532 62.275L303.257 76ZM313.47 76H307.595V40H313.47V76ZM340.825 46.15C340.641 46.45 340.45 46.675 340.25 46.825C340.05 46.9583 339.8 47.025 339.5 47.025C339.183 47.025 338.825 46.8917 338.425 46.625C338.041 46.3583 337.558 46.0667 336.975 45.75C336.408 45.4167 335.733 45.1167 334.95 44.85C334.166 44.5667 333.233 44.425 332.15 44.425C331.15 44.425 330.266 44.55 329.5 44.8C328.75 45.05 328.116 45.4 327.6 45.85C327.083 46.3 326.691 46.8333 326.425 47.45C326.175 48.05 326.05 48.7083 326.05 49.425C326.05 50.3417 326.291 51.1083 326.775 51.725C327.258 52.325 327.891 52.8417 328.675 53.275C329.475 53.7083 330.383 54.0917 331.4 54.425C332.416 54.7417 333.45 55.0833 334.5 55.45C335.566 55.8167 336.608 56.2333 337.625 56.7C338.641 57.1667 339.541 57.7583 340.325 58.475C341.125 59.1917 341.766 60.0667 342.25 61.1C342.733 62.1333 342.975 63.3917 342.975 64.875C342.975 66.475 342.7 67.975 342.15 69.375C341.6 70.775 340.8 72 339.75 73.05C338.716 74.0833 337.433 74.9 335.9 75.5C334.383 76.1 332.65 76.4 330.7 76.4C329.55 76.4 328.425 76.2833 327.325 76.05C326.241 75.8333 325.2 75.525 324.2 75.125C323.216 74.7083 322.291 74.2083 321.425 73.625C320.558 73.0417 319.783 72.3917 319.1 71.675L320.8 68.875C320.95 68.6417 321.141 68.4583 321.375 68.325C321.608 68.1917 321.866 68.125 322.15 68.125C322.533 68.125 322.958 68.3083 323.425 68.675C323.891 69.025 324.45 69.4167 325.1 69.85C325.766 70.2667 326.566 70.6583 327.5 71.025C328.433 71.375 329.55 71.55 330.85 71.55C332.966 71.55 334.6 71.0333 335.75 70C336.916 68.9667 337.5 67.5417 337.5 65.725C337.5 64.7083 337.258 63.8833 336.775 63.25C336.291 62.6 335.65 62.0583 334.85 61.625C334.066 61.1917 333.166 60.825 332.15 60.525C331.133 60.225 330.1 59.9083 329.05 59.575C328 59.225 326.966 58.825 325.95 58.375C324.933 57.9083 324.025 57.3083 323.225 56.575C322.441 55.825 321.808 54.9083 321.325 53.825C320.841 52.725 320.6 51.3583 320.6 49.725C320.6 48.425 320.85 47.1667 321.35 45.95C321.866 44.7333 322.608 43.6583 323.575 42.725C324.558 41.775 325.766 41.0167 327.2 40.45C328.633 39.8833 330.266 39.6 332.1 39.6C334.166 39.6 336.058 39.925 337.775 40.575C339.508 41.225 341 42.15 342.25 43.35L340.825 46.15ZM374.07 44.875H362.845V76H357.02V44.875H345.77V40H374.07V44.875ZM411.489 58C411.489 60.6667 411.055 63.125 410.189 65.375C409.322 67.625 408.097 69.5667 406.514 71.2C404.947 72.8167 403.055 74.0833 400.839 75C398.639 75.9167 396.189 76.375 393.489 76.375C390.805 76.375 388.355 75.9167 386.139 75C383.939 74.0833 382.047 72.8167 380.464 71.2C378.88 69.5667 377.655 67.625 376.789 65.375C375.922 63.125 375.489 60.6667 375.489 58C375.489 55.3333 375.922 52.875 376.789 50.625C377.655 48.375 378.88 46.4333 380.464 44.8C382.047 43.1667 383.939 41.8917 386.139 40.975C388.355 40.0583 390.805 39.6 393.489 39.6C396.189 39.6 398.639 40.0583 400.839 40.975C403.055 41.8917 404.947 43.1667 406.514 44.8C408.097 46.4333 409.322 48.375 410.189 50.625C411.055 52.875 411.489 55.3333 411.489 58ZM405.514 58C405.514 55.9333 405.23 54.075 404.664 52.425C404.114 50.775 403.314 49.375 402.264 48.225C401.23 47.075 399.972 46.1917 398.489 45.575C397.005 44.9583 395.339 44.65 393.489 44.65C391.655 44.65 389.997 44.9583 388.514 45.575C387.03 46.1917 385.764 47.075 384.714 48.225C383.664 49.375 382.855 50.775 382.289 52.425C381.722 54.075 381.439 55.9333 381.439 58C381.439 60.0833 381.722 61.95 382.289 63.6C382.855 65.25 383.664 66.65 384.714 67.8C385.764 68.9333 387.03 69.8083 388.514 70.425C389.997 71.025 391.655 71.325 393.489 71.325C395.339 71.325 397.005 71.025 398.489 70.425C399.972 69.8083 401.23 68.9333 402.264 67.8C403.314 66.65 404.114 65.25 404.664 63.6C405.23 61.95 405.514 60.0833 405.514 58ZM429.098 58.35C430.398 58.35 431.54 58.1833 432.523 57.85C433.523 57.5167 434.348 57.05 434.998 56.45C435.665 55.8333 436.165 55.0917 436.498 54.225C436.831 53.3583 436.998 52.3917 436.998 51.325C436.998 50.275 436.831 49.3333 436.498 48.5C436.181 47.6667 435.698 46.9583 435.048 46.375C434.398 45.7917 433.573 45.35 432.573 45.05C431.59 44.7333 430.431 44.575 429.098 44.575H423.748V58.35H429.098ZM429.098 40C431.448 40 433.481 40.275 435.198 40.825C436.931 41.375 438.356 42.15 439.473 43.15C440.606 44.1333 441.448 45.325 441.998 46.725C442.548 48.1083 442.823 49.6417 442.823 51.325C442.823 53.0417 442.531 54.6167 441.948 56.05C441.365 57.4667 440.498 58.6917 439.348 59.725C438.198 60.7417 436.765 61.5417 435.048 62.125C433.348 62.6917 431.365 62.975 429.098 62.975H423.748V76H417.898V40H429.098ZM478.216 40V76H472.366V59.975H454.291V76H448.416V40H454.291V55.75H472.366V40H478.216ZM509.27 71.275L509.245 76H486.795V40H509.245V44.725H492.67V55.575H505.92V60.15H492.67V71.275H509.27ZM526.053 57.25C527.386 57.25 528.553 57.0917 529.553 56.775C530.553 56.4417 531.386 55.9833 532.053 55.4C532.72 54.8167 533.22 54.125 533.553 53.325C533.886 52.5083 534.053 51.6083 534.053 50.625C534.053 48.6583 533.403 47.1583 532.103 46.125C530.803 45.0917 528.836 44.575 526.203 44.575H521.453V57.25H526.053ZM543.003 76H537.778C536.745 76 535.995 75.6 535.528 74.8L527.128 62.675C526.845 62.2583 526.536 61.9583 526.203 61.775C525.87 61.5917 525.37 61.5 524.703 61.5H521.453V76H515.603V40H526.203C528.57 40 530.603 40.2417 532.303 40.725C534.02 41.2083 535.428 41.9 536.528 42.8C537.628 43.6833 538.436 44.75 538.953 46C539.486 47.25 539.753 48.6417 539.753 50.175C539.753 51.425 539.561 52.5917 539.178 53.675C538.811 54.7583 538.27 55.7417 537.553 56.625C536.853 57.5083 535.986 58.275 534.953 58.925C533.92 59.575 532.745 60.0833 531.428 60.45C532.145 60.8833 532.761 61.4917 533.278 62.275L543.003 76ZM234.075 100V136H228.225V119.975H210.15V136H204.275V100H210.15V115.75H228.225V100H234.075ZM261.704 122.5L256.754 109.35C256.354 108.333 255.946 107.042 255.529 105.475C255.346 106.258 255.146 106.983 254.929 107.65C254.712 108.3 254.512 108.875 254.329 109.375L249.379 122.5H261.704ZM272.779 136H268.254C267.737 136 267.321 135.875 267.004 135.625C266.687 135.358 266.446 135.033 266.279 134.65L263.279 126.7H247.779L244.779 134.65C244.646 134.983 244.412 135.292 244.079 135.575C243.746 135.858 243.329 136 242.829 136H238.304L252.579 100H258.504L272.779 136ZM287.43 117.25C288.763 117.25 289.93 117.092 290.93 116.775C291.93 116.442 292.763 115.983 293.43 115.4C294.097 114.817 294.597 114.125 294.93 113.325C295.263 112.508 295.43 111.608 295.43 110.625C295.43 108.658 294.78 107.158 293.48 106.125C292.18 105.092 290.213 104.575 287.58 104.575H282.83V117.25H287.43ZM304.38 136H299.155C298.122 136 297.372 135.6 296.905 134.8L288.505 122.675C288.222 122.258 287.913 121.958 287.58 121.775C287.247 121.592 286.747 121.5 286.08 121.5H282.83V136H276.98V100H287.58C289.947 100 291.98 100.242 293.68 100.725C295.397 101.208 296.805 101.9 297.905 102.8C299.005 103.683 299.813 104.75 300.33 106C300.863 107.25 301.13 108.642 301.13 110.175C301.13 111.425 300.938 112.592 300.555 113.675C300.188 114.758 299.647 115.742 298.93 116.625C298.23 117.508 297.363 118.275 296.33 118.925C295.297 119.575 294.122 120.083 292.805 120.45C293.522 120.883 294.138 121.492 294.655 122.275L304.38 136ZM319.168 117.25C320.502 117.25 321.668 117.092 322.668 116.775C323.668 116.442 324.502 115.983 325.168 115.4C325.835 114.817 326.335 114.125 326.668 113.325C327.002 112.508 327.168 111.608 327.168 110.625C327.168 108.658 326.518 107.158 325.218 106.125C323.918 105.092 321.952 104.575 319.318 104.575H314.568V117.25H319.168ZM336.118 136H330.893C329.86 136 329.11 135.6 328.643 134.8L320.243 122.675C319.96 122.258 319.652 121.958 319.318 121.775C318.985 121.592 318.485 121.5 317.818 121.5H314.568V136H308.718V100H319.318C321.685 100 323.718 100.242 325.418 100.725C327.135 101.208 328.543 101.9 329.643 102.8C330.743 103.683 331.552 104.75 332.068 106C332.602 107.25 332.868 108.642 332.868 110.175C332.868 111.425 332.677 112.592 332.293 113.675C331.927 114.758 331.385 115.742 330.668 116.625C329.968 117.508 329.102 118.275 328.068 118.925C327.035 119.575 325.86 120.083 324.543 120.45C325.26 120.883 325.877 121.492 326.393 122.275L336.118 136ZM362.932 131.275L362.907 136H340.457V100H362.907V104.725H346.332V115.575H359.582V120.15H346.332V131.275H362.932ZM390.065 131.1V136H369.265V100H375.115V131.1H390.065ZM415.895 131.1V136H395.095V100H400.945V131.1H415.895Z" fill="black"/>
</svg>
