<svg width="538" height="183" viewBox="0 0 538 183" fill="none" xmlns="http://www.w3.org/2000/svg">
<circle cx="91.5" cy="91.5" r="91.5" fill="#1F4E5F"/>
<circle cx="92" cy="68" r="68" fill="#477680"/>
<path d="M130.33 106.891C122.848 114.583 113.315 119.821 102.937 121.943C92.5593 124.065 81.8023 122.976 72.0264 118.813C62.2506 114.651 53.895 107.601 48.0164 98.5564C42.1377 89.5117 39 78.878 39 68C39 57.122 42.1377 46.4883 48.0164 37.4436C53.895 28.3989 62.2506 21.3494 72.0264 17.1866C81.8023 13.0238 92.5593 11.9346 102.937 14.0568C113.315 16.179 122.848 21.4172 130.33 29.1091L120.873 38.8318C115.261 33.0629 108.111 29.1342 100.328 27.5426C92.5445 25.951 84.4767 26.7679 77.1448 29.89C69.8129 33.0121 63.5463 38.2992 59.1373 45.0827C54.7283 51.8663 52.375 59.8415 52.375 68C52.375 76.1585 54.7283 84.1337 59.1373 90.9173C63.5463 97.7008 69.8129 102.988 77.1448 106.11C84.4767 109.232 92.5445 110.049 100.328 108.457C108.111 106.866 115.261 102.937 120.873 97.1682L130.33 106.891Z" fill="white"/>
<path d="M94.988 81.0708L100.943 78.9999L131.184 143.356C133.92 149.177 134.529 155.641 132.924 161.801L94.988 81.0708Z" fill="white"/>
<path d="M89.8128 81.0708L83.8581 78.9999L53.6166 143.356C50.8812 149.177 50.2715 155.641 51.8771 161.801L89.8128 81.0708Z" fill="white"/>
<path d="M89.9192 33.3839H94.2782L96.4577 61.0597H87.7397L89.9192 33.3839Z" fill="white"/>
<ellipse cx="92.0984" cy="33.3838" rx="2.17948" ry="1.38379" fill="white"/>
<path fill-rule="evenodd" clip-rule="evenodd" d="M92.5 84C99.4036 84 105 78.4036 105 71.5C105 64.5964 99.4036 59 92.5 59C85.5964 59 80 64.5964 80 71.5C80 78.4036 85.5964 84 92.5 84ZM92.5 79C96.6421 79 100 75.6421 100 71.5C100 67.3579 96.6421 64 92.5 64C88.3579 64 85 67.3579 85 71.5C85 75.6421 88.3579 79 92.5 79Z" fill="white"/>
<line x1="190" y1="152" x2="538" y2="152" stroke="black" stroke-opacity="0.25" stroke-width="4"/>
<path d="M219.275 68.975C219.592 68.975 219.867 69.1 220.1 69.35L222.425 71.875C220.958 73.6417 219.158 75.0083 217.025 75.975C214.892 76.925 212.342 77.4 209.375 77.4C206.742 77.4 204.358 76.95 202.225 76.05C200.108 75.1333 198.3 73.8667 196.8 72.25C195.3 70.6167 194.142 68.675 193.325 66.425C192.525 64.175 192.125 61.7 192.125 59C192.125 56.3 192.55 53.825 193.4 51.575C194.267 49.3083 195.475 47.3667 197.025 45.75C198.592 44.1167 200.458 42.85 202.625 41.95C204.808 41.05 207.208 40.6 209.825 40.6C212.425 40.6 214.717 41.025 216.7 41.875C218.7 42.7083 220.433 43.825 221.9 45.225L219.975 47.95C219.842 48.1333 219.683 48.2917 219.5 48.425C219.317 48.5583 219.067 48.625 218.75 48.625C218.417 48.625 218.033 48.475 217.6 48.175C217.183 47.8583 216.642 47.5167 215.975 47.15C215.325 46.7667 214.5 46.425 213.5 46.125C212.517 45.8083 211.283 45.65 209.8 45.65C208.083 45.65 206.508 45.95 205.075 46.55C203.642 47.15 202.408 48.025 201.375 49.175C200.342 50.325 199.533 51.725 198.95 53.375C198.383 55.025 198.1 56.9 198.1 59C198.1 61.1167 198.4 63.0083 199 64.675C199.6 66.325 200.425 67.725 201.475 68.875C202.525 70.0083 203.758 70.875 205.175 71.475C206.592 72.075 208.117 72.375 209.75 72.375C210.75 72.375 211.642 72.325 212.425 72.225C213.225 72.1083 213.958 71.9333 214.625 71.7C215.292 71.45 215.917 71.1417 216.5 70.775C217.1 70.4083 217.692 69.9583 218.275 69.425C218.608 69.125 218.942 68.975 219.275 68.975ZM257.278 41V77H251.428V60.975H233.353V77H227.478V41H233.353V56.75H251.428V41H257.278ZM276.307 58.25C277.64 58.25 278.807 58.0917 279.807 57.775C280.807 57.4417 281.64 56.9833 282.307 56.4C282.974 55.8167 283.474 55.125 283.807 54.325C284.14 53.5083 284.307 52.6083 284.307 51.625C284.307 49.6583 283.657 48.1583 282.357 47.125C281.057 46.0917 279.09 45.575 276.457 45.575H271.707V58.25H276.307ZM293.257 77H288.032C286.999 77 286.249 76.6 285.782 75.8L277.382 63.675C277.099 63.2583 276.79 62.9583 276.457 62.775C276.124 62.5917 275.624 62.5 274.957 62.5H271.707V77H265.857V41H276.457C278.824 41 280.857 41.2417 282.557 41.725C284.274 42.2083 285.682 42.9 286.782 43.8C287.882 44.6833 288.69 45.75 289.207 47C289.74 48.25 290.007 49.6417 290.007 51.175C290.007 52.425 289.815 53.5917 289.432 54.675C289.065 55.7583 288.524 56.7417 287.807 57.625C287.107 58.5083 286.24 59.275 285.207 59.925C284.174 60.575 282.999 61.0833 281.682 61.45C282.399 61.8833 283.015 62.4917 283.532 63.275L293.257 77ZM303.47 77H297.595V41H303.47V77ZM330.825 47.15C330.641 47.45 330.45 47.675 330.25 47.825C330.05 47.9583 329.8 48.025 329.5 48.025C329.183 48.025 328.825 47.8917 328.425 47.625C328.041 47.3583 327.558 47.0667 326.975 46.75C326.408 46.4167 325.733 46.1167 324.95 45.85C324.166 45.5667 323.233 45.425 322.15 45.425C321.15 45.425 320.266 45.55 319.5 45.8C318.75 46.05 318.116 46.4 317.6 46.85C317.083 47.3 316.691 47.8333 316.425 48.45C316.175 49.05 316.05 49.7083 316.05 50.425C316.05 51.3417 316.291 52.1083 316.775 52.725C317.258 53.325 317.891 53.8417 318.675 54.275C319.475 54.7083 320.383 55.0917 321.4 55.425C322.416 55.7417 323.45 56.0833 324.5 56.45C325.566 56.8167 326.608 57.2333 327.625 57.7C328.641 58.1667 329.541 58.7583 330.325 59.475C331.125 60.1917 331.766 61.0667 332.25 62.1C332.733 63.1333 332.975 64.3917 332.975 65.875C332.975 67.475 332.7 68.975 332.15 70.375C331.6 71.775 330.8 73 329.75 74.05C328.716 75.0833 327.433 75.9 325.9 76.5C324.383 77.1 322.65 77.4 320.7 77.4C319.55 77.4 318.425 77.2833 317.325 77.05C316.241 76.8333 315.2 76.525 314.2 76.125C313.216 75.7083 312.291 75.2083 311.425 74.625C310.558 74.0417 309.783 73.3917 309.1 72.675L310.8 69.875C310.95 69.6417 311.141 69.4583 311.375 69.325C311.608 69.1917 311.866 69.125 312.15 69.125C312.533 69.125 312.958 69.3083 313.425 69.675C313.891 70.025 314.45 70.4167 315.1 70.85C315.766 71.2667 316.566 71.6583 317.5 72.025C318.433 72.375 319.55 72.55 320.85 72.55C322.966 72.55 324.6 72.0333 325.75 71C326.916 69.9667 327.5 68.5417 327.5 66.725C327.5 65.7083 327.258 64.8833 326.775 64.25C326.291 63.6 325.65 63.0583 324.85 62.625C324.066 62.1917 323.166 61.825 322.15 61.525C321.133 61.225 320.1 60.9083 319.05 60.575C318 60.225 316.966 59.825 315.95 59.375C314.933 58.9083 314.025 58.3083 313.225 57.575C312.441 56.825 311.808 55.9083 311.325 54.825C310.841 53.725 310.6 52.3583 310.6 50.725C310.6 49.425 310.85 48.1667 311.35 46.95C311.866 45.7333 312.608 44.6583 313.575 43.725C314.558 42.775 315.766 42.0167 317.2 41.45C318.633 40.8833 320.266 40.6 322.1 40.6C324.166 40.6 326.058 40.925 327.775 41.575C329.508 42.225 331 43.15 332.25 44.35L330.825 47.15ZM364.07 45.875H352.845V77H347.02V45.875H335.77V41H364.07V45.875ZM401.489 59C401.489 61.6667 401.055 64.125 400.189 66.375C399.322 68.625 398.097 70.5667 396.514 72.2C394.947 73.8167 393.055 75.0833 390.839 76C388.639 76.9167 386.189 77.375 383.489 77.375C380.805 77.375 378.355 76.9167 376.139 76C373.939 75.0833 372.047 73.8167 370.464 72.2C368.88 70.5667 367.655 68.625 366.789 66.375C365.922 64.125 365.489 61.6667 365.489 59C365.489 56.3333 365.922 53.875 366.789 51.625C367.655 49.375 368.88 47.4333 370.464 45.8C372.047 44.1667 373.939 42.8917 376.139 41.975C378.355 41.0583 380.805 40.6 383.489 40.6C386.189 40.6 388.639 41.0583 390.839 41.975C393.055 42.8917 394.947 44.1667 396.514 45.8C398.097 47.4333 399.322 49.375 400.189 51.625C401.055 53.875 401.489 56.3333 401.489 59ZM395.514 59C395.514 56.9333 395.23 55.075 394.664 53.425C394.114 51.775 393.314 50.375 392.264 49.225C391.23 48.075 389.972 47.1917 388.489 46.575C387.005 45.9583 385.339 45.65 383.489 45.65C381.655 45.65 379.997 45.9583 378.514 46.575C377.03 47.1917 375.764 48.075 374.714 49.225C373.664 50.375 372.855 51.775 372.289 53.425C371.722 55.075 371.439 56.9333 371.439 59C371.439 61.0833 371.722 62.95 372.289 64.6C372.855 66.25 373.664 67.65 374.714 68.8C375.764 69.9333 377.03 70.8083 378.514 71.425C379.997 72.025 381.655 72.325 383.489 72.325C385.339 72.325 387.005 72.025 388.489 71.425C389.972 70.8083 391.23 69.9333 392.264 68.8C393.314 67.65 394.114 66.25 394.664 64.6C395.23 62.95 395.514 61.0833 395.514 59ZM419.098 59.35C420.398 59.35 421.54 59.1833 422.523 58.85C423.523 58.5167 424.348 58.05 424.998 57.45C425.665 56.8333 426.165 56.0917 426.498 55.225C426.831 54.3583 426.998 53.3917 426.998 52.325C426.998 51.275 426.831 50.3333 426.498 49.5C426.181 48.6667 425.698 47.9583 425.048 47.375C424.398 46.7917 423.573 46.35 422.573 46.05C421.59 45.7333 420.431 45.575 419.098 45.575H413.748V59.35H419.098ZM419.098 41C421.448 41 423.481 41.275 425.198 41.825C426.931 42.375 428.356 43.15 429.473 44.15C430.606 45.1333 431.448 46.325 431.998 47.725C432.548 49.1083 432.823 50.6417 432.823 52.325C432.823 54.0417 432.531 55.6167 431.948 57.05C431.365 58.4667 430.498 59.6917 429.348 60.725C428.198 61.7417 426.765 62.5417 425.048 63.125C423.348 63.6917 421.365 63.975 419.098 63.975H413.748V77H407.898V41H419.098ZM468.216 41V77H462.366V60.975H444.291V77H438.416V41H444.291V56.75H462.366V41H468.216ZM499.27 72.275L499.245 77H476.795V41H499.245V45.725H482.67V56.575H495.92V61.15H482.67V72.275H499.27ZM516.053 58.25C517.386 58.25 518.553 58.0917 519.553 57.775C520.553 57.4417 521.386 56.9833 522.053 56.4C522.72 55.8167 523.22 55.125 523.553 54.325C523.886 53.5083 524.053 52.6083 524.053 51.625C524.053 49.6583 523.403 48.1583 522.103 47.125C520.803 46.0917 518.836 45.575 516.203 45.575H511.453V58.25H516.053ZM533.003 77H527.778C526.745 77 525.995 76.6 525.528 75.8L517.128 63.675C516.845 63.2583 516.536 62.9583 516.203 62.775C515.87 62.5917 515.37 62.5 514.703 62.5H511.453V77H505.603V41H516.203C518.57 41 520.603 41.2417 522.303 41.725C524.02 42.2083 525.428 42.9 526.528 43.8C527.628 44.6833 528.436 45.75 528.953 47C529.486 48.25 529.753 49.6417 529.753 51.175C529.753 52.425 529.561 53.5917 529.178 54.675C528.811 55.7583 528.27 56.7417 527.553 57.625C526.853 58.5083 525.986 59.275 524.953 59.925C523.92 60.575 522.745 61.0833 521.428 61.45C522.145 61.8833 522.761 62.4917 523.278 63.275L533.003 77ZM224.075 101V137H218.225V120.975H200.15V137H194.275V101H200.15V116.75H218.225V101H224.075ZM251.704 123.5L246.754 110.35C246.354 109.333 245.946 108.042 245.529 106.475C245.346 107.258 245.146 107.983 244.929 108.65C244.712 109.3 244.512 109.875 244.329 110.375L239.379 123.5H251.704ZM262.779 137H258.254C257.737 137 257.321 136.875 257.004 136.625C256.687 136.358 256.446 136.033 256.279 135.65L253.279 127.7H237.779L234.779 135.65C234.646 135.983 234.412 136.292 234.079 136.575C233.746 136.858 233.329 137 232.829 137H228.304L242.579 101H248.504L262.779 137ZM277.43 118.25C278.763 118.25 279.93 118.092 280.93 117.775C281.93 117.442 282.763 116.983 283.43 116.4C284.097 115.817 284.597 115.125 284.93 114.325C285.263 113.508 285.43 112.608 285.43 111.625C285.43 109.658 284.78 108.158 283.48 107.125C282.18 106.092 280.213 105.575 277.58 105.575H272.83V118.25H277.43ZM294.38 137H289.155C288.122 137 287.372 136.6 286.905 135.8L278.505 123.675C278.222 123.258 277.913 122.958 277.58 122.775C277.247 122.592 276.747 122.5 276.08 122.5H272.83V137H266.98V101H277.58C279.947 101 281.98 101.242 283.68 101.725C285.397 102.208 286.805 102.9 287.905 103.8C289.005 104.683 289.813 105.75 290.33 107C290.863 108.25 291.13 109.642 291.13 111.175C291.13 112.425 290.938 113.592 290.555 114.675C290.188 115.758 289.647 116.742 288.93 117.625C288.23 118.508 287.363 119.275 286.33 119.925C285.297 120.575 284.122 121.083 282.805 121.45C283.522 121.883 284.138 122.492 284.655 123.275L294.38 137ZM309.168 118.25C310.502 118.25 311.668 118.092 312.668 117.775C313.668 117.442 314.502 116.983 315.168 116.4C315.835 115.817 316.335 115.125 316.668 114.325C317.002 113.508 317.168 112.608 317.168 111.625C317.168 109.658 316.518 108.158 315.218 107.125C313.918 106.092 311.952 105.575 309.318 105.575H304.568V118.25H309.168ZM326.118 137H320.893C319.86 137 319.11 136.6 318.643 135.8L310.243 123.675C309.96 123.258 309.652 122.958 309.318 122.775C308.985 122.592 308.485 122.5 307.818 122.5H304.568V137H298.718V101H309.318C311.685 101 313.718 101.242 315.418 101.725C317.135 102.208 318.543 102.9 319.643 103.8C320.743 104.683 321.552 105.75 322.068 107C322.602 108.25 322.868 109.642 322.868 111.175C322.868 112.425 322.677 113.592 322.293 114.675C321.927 115.758 321.385 116.742 320.668 117.625C319.968 118.508 319.102 119.275 318.068 119.925C317.035 120.575 315.86 121.083 314.543 121.45C315.26 121.883 315.877 122.492 316.393 123.275L326.118 137ZM352.932 132.275L352.907 137H330.457V101H352.907V105.725H336.332V116.575H349.582V121.15H336.332V132.275H352.932ZM380.065 132.1V137H359.265V101H365.115V132.1H380.065ZM405.895 132.1V137H385.095V101H390.945V132.1H405.895Z" fill="black"/>
</svg>
