<svg width="183" height="183" viewBox="0 0 183 183" fill="none" xmlns="http://www.w3.org/2000/svg">
<path d="M91.5 183C142.034 183 183 142.034 183 91.5C183 40.9659 142.034 0 91.5 0C40.9659 0 0 40.9659 0 91.5C0 142.034 40.9659 183 91.5 183Z" fill="#1F4E5F"/>
<path d="M91 136C128.555 136 159 105.555 159 68C159 30.4446 128.555 0 91 0C53.4446 0 23 30.4446 23 68C23 105.555 53.4446 136 91 136Z" fill="#477680"/>
<path d="M145.075 165.683C130.016 176.578 111.508 183 91.5001 183C71.1873 183 52.4205 176.381 37.2388 165.182C48.3121 147.678 68.2476 136 91.0001 136C113.969 136 134.067 147.902 145.075 165.683Z" fill="url(#paint0_radial)"/>
<path d="M99.6951 77.8876C99.113 78.3947 98.4759 78.8543 97.7862 79.2571C97.0965 79.6599 96.3844 79.9882 95.6592 80.2445L140.041 158C140.571 157.69 140.888 157.021 140.975 156.03C141.063 155.038 140.917 153.745 140.548 152.222C140.179 150.7 139.593 148.979 138.824 147.158C138.055 145.337 137.117 143.451 136.065 141.607L99.6951 77.8876Z" fill="#FEFEFE"/>
<path d="M82.3047 77.8876C82.8868 78.3948 83.5239 78.8543 84.2136 79.2571C84.9033 79.6599 85.6154 79.9882 86.3406 80.2445L41.9592 158C41.4292 157.69 41.1116 157.021 41.0245 156.03C40.9375 155.038 41.0827 153.745 41.4518 152.222C41.821 150.7 42.4069 148.979 43.176 147.158C43.9452 145.337 44.8826 143.451 45.9346 141.607L82.3047 77.8876Z" fill="#FEFEFE"/>
<path fill-rule="evenodd" clip-rule="evenodd" d="M90.9998 79.3019C97.1757 79.3019 102.183 74.2378 102.183 67.9908C102.183 61.7438 97.1757 56.6797 90.9998 56.6797C84.8239 56.6797 79.8174 61.7438 79.8174 67.9908C79.8174 74.2378 84.8239 79.3019 90.9998 79.3019ZM90.9998 74.7775C94.7054 74.7775 97.7093 71.739 97.7093 67.9908C97.7093 64.2426 94.7054 61.2041 90.9998 61.2041C87.2943 61.2041 84.2903 64.2426 84.2903 67.9908C84.2903 71.739 87.2943 74.7775 90.9998 74.7775Z" fill="#FEFEFE"/>
<path d="M89.3015 36.1785H92.4083L93.9616 55.4268V57.7837H87.748V55.4268L89.3015 36.1785Z" fill="#FEFEFE"/>
<path d="M92.4086 36.1785C92.4086 36.8293 91.7131 37.3569 90.8552 37.3569C89.9973 37.3569 89.3018 36.8293 89.3018 36.1785C89.3018 35.5276 89.9973 35 90.8552 35C91.7131 35 92.4086 35.5276 92.4086 36.1785Z" fill="#FEFEFE"/>
<path d="M128.33 106.891C120.848 114.583 111.315 119.821 100.937 121.943C90.5593 124.065 79.8023 122.976 70.0264 118.813C60.2506 114.651 51.895 107.601 46.0164 98.5564C40.1377 89.5117 37 78.878 37 68C37 57.122 40.1377 46.4883 46.0164 37.4436C51.895 28.3989 60.2506 21.3494 70.0264 17.1866C79.8023 13.0238 90.5593 11.9346 100.937 14.0568C111.315 16.179 120.848 21.4172 128.33 29.1091L118.873 38.8318C113.261 33.0629 106.111 29.1342 98.328 27.5426C90.5445 25.951 82.4767 26.7679 75.1448 29.89C67.8129 33.0121 61.5463 38.2992 57.1373 45.0827C52.7283 51.8663 50.375 59.8415 50.375 68C50.375 76.1585 52.7283 84.1337 57.1373 90.9173C61.5463 97.7008 67.8129 102.988 75.1448 106.11C82.4767 109.232 90.5445 110.049 98.328 108.457C106.111 106.866 113.261 102.937 118.873 97.1681L128.33 106.891Z" fill="white"/>
<defs>
<radialGradient id="paint0_radial" cx="0" cy="0" r="1" gradientUnits="userSpaceOnUse" gradientTransform="translate(91 136) rotate(89.8219) scale(47.0002 105.438)">
<stop stop-color="#C4EAFF"/>
<stop offset="0.675583" stop-color="#00C2FF" stop-opacity="0.05"/>
</radialGradient>
</defs>
</svg>
