<svg width="572" height="183" viewBox="0 0 572 183" fill="none" xmlns="http://www.w3.org/2000/svg">
<path d="M91.5 183C142.034 183 183 142.034 183 91.5C183 40.9659 142.034 0 91.5 0C40.9659 0 0 40.9659 0 91.5C0 142.034 40.9659 183 91.5 183Z" fill="#1F4E5F"/>
<path d="M91 136C128.555 136 159 105.555 159 68C159 30.4446 128.555 0 91 0C53.4446 0 23 30.4446 23 68C23 105.555 53.4446 136 91 136Z" fill="#477680"/>
<path d="M145.075 165.683C130.016 176.578 111.508 183 91.5001 183C71.1873 183 52.4205 176.381 37.2388 165.182C48.3121 147.678 68.2476 136 91.0001 136C113.969 136 134.067 147.902 145.075 165.683Z" fill="url(#paint0_radial)"/>
<path d="M99.6951 77.8877C99.113 78.3948 98.4759 78.8544 97.7862 79.2572C97.0965 79.66 96.3844 79.9883 95.6592 80.2446L140.041 158C140.571 157.69 140.888 157.021 140.975 156.03C141.063 155.038 140.917 153.745 140.548 152.222C140.179 150.7 139.593 148.979 138.824 147.158C138.055 145.337 137.117 143.451 136.065 141.607L99.6951 77.8877Z" fill="white"/>
<path d="M82.3047 77.8877C82.8868 78.3949 83.5239 78.8544 84.2136 79.2572C84.9033 79.66 85.6154 79.9883 86.3406 80.2446L41.9592 158C41.4292 157.69 41.1116 157.021 41.0245 156.03C40.9375 155.038 41.0827 153.745 41.4518 152.222C41.821 150.7 42.4069 148.979 43.176 147.158C43.9452 145.337 44.8826 143.451 45.9346 141.607L82.3047 77.8877Z" fill="white"/>
<path fill-rule="evenodd" clip-rule="evenodd" d="M90.9998 79.3019C97.1757 79.3019 102.183 74.2378 102.183 67.9908C102.183 61.7438 97.1757 56.6797 90.9998 56.6797C84.8239 56.6797 79.8174 61.7438 79.8174 67.9908C79.8174 74.2378 84.8239 79.3019 90.9998 79.3019ZM90.9998 74.7775C94.7054 74.7775 97.7093 71.739 97.7093 67.9908C97.7093 64.2426 94.7054 61.2041 90.9998 61.2041C87.2943 61.2041 84.2903 64.2426 84.2903 67.9908C84.2903 71.739 87.2943 74.7775 90.9998 74.7775Z" fill="white"/>
<path d="M89.3015 36.1785H92.4083L93.9616 55.4268V57.7837H87.748V55.4268L89.3015 36.1785Z" fill="white"/>
<path d="M92.4086 36.1785C92.4086 36.8293 91.7131 37.3569 90.8552 37.3569C89.9973 37.3569 89.3018 36.8293 89.3018 36.1785C89.3018 35.5276 89.9973 35 90.8552 35C91.7131 35 92.4086 35.5276 92.4086 36.1785Z" fill="white"/>
<path d="M128.33 106.891C120.848 114.583 111.315 119.821 100.937 121.943C90.5593 124.065 79.8023 122.976 70.0264 118.813C60.2506 114.651 51.895 107.601 46.0164 98.5564C40.1377 89.5117 37 78.878 37 68C37 57.122 40.1377 46.4883 46.0164 37.4436C51.895 28.3989 60.2506 21.3494 70.0264 17.1866C79.8023 13.0238 90.5593 11.9346 100.937 14.0568C111.315 16.179 120.848 21.4172 128.33 29.1091L118.873 38.8318C113.261 33.0629 106.111 29.1342 98.328 27.5426C90.5445 25.951 82.4767 26.7679 75.1448 29.89C67.8129 33.0121 61.5463 38.2992 57.1373 45.0827C52.7283 51.8663 50.375 59.8415 50.375 68C50.375 76.1585 52.7283 84.1337 57.1373 90.9173C61.5463 97.7008 67.8129 102.988 75.1448 106.11C82.4767 109.232 90.5445 110.049 98.328 108.457C106.111 106.866 113.261 102.937 118.873 97.1681L128.33 106.891Z" fill="white"/>
<path d="M475.387 128.416H488.584V144.29C486.623 145.721 484.529 146.772 482.303 147.443C480.095 148.097 477.754 148.424 475.281 148.424C472.118 148.424 469.256 147.938 466.695 146.966C464.133 145.977 461.942 144.608 460.123 142.859C458.303 141.11 456.899 139.034 455.909 136.631C454.92 134.229 454.425 131.605 454.425 128.761C454.425 125.881 454.893 123.24 455.83 120.837C456.784 118.435 458.135 116.368 459.884 114.636C461.633 112.905 463.744 111.554 466.218 110.582C468.709 109.61 471.491 109.124 474.565 109.124C476.155 109.124 477.639 109.257 479.017 109.522C480.395 109.769 481.667 110.123 482.833 110.582C483.999 111.024 485.068 111.554 486.04 112.172C487.011 112.79 487.895 113.47 488.69 114.212L486.384 117.763C486.031 118.329 485.572 118.673 485.006 118.797C484.441 118.921 483.823 118.779 483.151 118.373C482.515 117.984 481.888 117.64 481.27 117.339C480.669 117.021 480.024 116.748 479.335 116.518C478.646 116.288 477.895 116.112 477.083 115.988C476.27 115.864 475.334 115.802 474.274 115.802C472.489 115.802 470.873 116.112 469.424 116.73C467.976 117.348 466.739 118.223 465.714 119.353C464.707 120.484 463.93 121.844 463.382 123.434C462.835 125.024 462.561 126.8 462.561 128.761C462.561 130.881 462.861 132.78 463.462 134.458C464.062 136.119 464.91 137.524 466.006 138.672C467.101 139.82 468.408 140.695 469.928 141.295C471.465 141.896 473.17 142.196 475.042 142.196C476.314 142.196 477.445 142.073 478.434 141.825C479.441 141.56 480.422 141.207 481.376 140.765V134.299H477.03C476.517 134.299 476.111 134.167 475.811 133.902C475.528 133.619 475.387 133.266 475.387 132.842V128.416ZM521.105 148H513.102V109.548H521.105V148ZM567.996 116.915C567.749 117.322 567.492 117.622 567.227 117.816C566.98 117.993 566.653 118.081 566.247 118.081C565.858 118.081 565.434 117.949 564.975 117.684C564.533 117.401 564.012 117.101 563.411 116.783C562.811 116.465 562.122 116.173 561.344 115.908C560.567 115.626 559.657 115.484 558.615 115.484C556.778 115.484 555.4 115.9 554.481 116.73C553.562 117.543 553.103 118.611 553.103 119.936C553.103 120.784 553.35 121.491 553.845 122.056C554.357 122.604 555.02 123.081 555.832 123.487C556.663 123.894 557.599 124.256 558.641 124.574C559.684 124.892 560.753 125.245 561.848 125.634C562.943 126.005 564.012 126.447 565.054 126.959C566.097 127.471 567.024 128.116 567.837 128.893C568.667 129.671 569.33 130.625 569.824 131.755C570.337 132.868 570.593 134.229 570.593 135.836C570.593 137.585 570.284 139.228 569.665 140.765C569.065 142.285 568.19 143.619 567.042 144.767C565.894 145.898 564.471 146.79 562.775 147.443C561.097 148.097 559.189 148.424 557.051 148.424C555.832 148.424 554.613 148.3 553.394 148.053C552.193 147.806 551.027 147.461 549.896 147.019C548.783 146.578 547.732 146.048 546.743 145.429C545.754 144.811 544.888 144.122 544.146 143.362L546.478 139.599C546.672 139.317 546.928 139.087 547.246 138.91C547.564 138.716 547.9 138.619 548.253 138.619C548.73 138.619 549.234 138.796 549.764 139.149C550.294 139.502 550.903 139.891 551.592 140.315C552.281 140.739 553.076 141.128 553.977 141.481C554.896 141.834 555.991 142.011 557.263 142.011C559.118 142.011 560.549 141.587 561.556 140.739C562.581 139.891 563.093 138.628 563.093 136.949C563.093 135.978 562.837 135.192 562.325 134.591C561.83 133.99 561.177 133.487 560.364 133.08C559.551 132.674 558.624 132.33 557.581 132.047C556.539 131.747 555.47 131.42 554.375 131.066C553.28 130.713 552.211 130.289 551.168 129.794C550.126 129.3 549.199 128.646 548.386 127.833C547.573 127.021 546.911 126.014 546.398 124.812C545.904 123.611 545.656 122.118 545.656 120.334C545.656 118.903 545.939 117.516 546.504 116.173C547.07 114.831 547.9 113.638 548.995 112.596C550.091 111.554 551.433 110.714 553.023 110.078C554.631 109.442 556.468 109.124 558.535 109.124C560.85 109.124 562.987 109.487 564.948 110.211C566.927 110.918 568.597 111.907 569.957 113.179L567.996 116.915Z" fill="#1F4E5F"/>
<path d="M198 92H569" stroke="black" stroke-opacity="0.25" stroke-width="4" stroke-linecap="round"/>
<path d="M226.203 68.1725C226.551 68.1725 226.853 68.31 227.11 68.585L229.668 71.3625C228.054 73.3058 226.074 74.8092 223.728 75.8725C221.381 76.9175 218.576 77.44 215.313 77.44C212.416 77.44 209.794 76.945 207.448 75.955C205.119 74.9467 203.13 73.5533 201.48 71.775C199.83 69.9783 198.556 67.8425 197.658 65.3675C196.778 62.8925 196.338 60.17 196.338 57.2C196.338 54.23 196.805 51.5075 197.74 49.0325C198.693 46.5392 200.023 44.4033 201.728 42.625C203.451 40.8283 205.504 39.435 207.887 38.445C210.289 37.455 212.929 36.96 215.808 36.96C218.668 36.96 221.188 37.4275 223.37 38.3625C225.57 39.2792 227.477 40.5075 229.09 42.0475L226.973 45.045C226.826 45.2467 226.652 45.4208 226.45 45.5675C226.248 45.7142 225.973 45.7875 225.625 45.7875C225.258 45.7875 224.837 45.6225 224.36 45.2925C223.902 44.9442 223.306 44.5683 222.573 44.165C221.858 43.7433 220.95 43.3675 219.85 43.0375C218.768 42.6892 217.412 42.515 215.78 42.515C213.892 42.515 212.159 42.845 210.583 43.505C209.006 44.165 207.649 45.1275 206.513 46.3925C205.376 47.6575 204.487 49.1975 203.845 51.0125C203.222 52.8275 202.91 54.89 202.91 57.2C202.91 59.5283 203.24 61.6092 203.9 63.4425C204.56 65.2575 205.468 66.7975 206.623 68.0625C207.778 69.3092 209.134 70.2625 210.693 70.9225C212.251 71.5825 213.928 71.9125 215.725 71.9125C216.825 71.9125 217.806 71.8575 218.668 71.7475C219.548 71.6192 220.354 71.4267 221.088 71.17C221.821 70.895 222.508 70.5558 223.15 70.1525C223.81 69.7492 224.461 69.2542 225.103 68.6675C225.469 68.3375 225.836 68.1725 226.203 68.1725ZM268.006 37.4V77H261.571V59.3725H241.688V77H235.226V37.4H241.688V54.725H261.571V37.4H268.006ZM288.938 56.375C290.404 56.375 291.688 56.2008 292.788 55.8525C293.888 55.4858 294.804 54.9817 295.538 54.34C296.271 53.6983 296.821 52.9375 297.188 52.0575C297.554 51.1592 297.738 50.1692 297.738 49.0875C297.738 46.9242 297.023 45.2742 295.593 44.1375C294.163 43.0008 291.999 42.4325 289.103 42.4325H283.878V56.375H288.938ZM307.583 77H301.835C300.699 77 299.874 76.56 299.36 75.68L290.12 62.3425C289.809 61.8842 289.469 61.5542 289.103 61.3525C288.736 61.1508 288.186 61.05 287.453 61.05H283.878V77H277.443V37.4H289.103C291.706 37.4 293.943 37.6658 295.813 38.1975C297.701 38.7292 299.25 39.49 300.46 40.48C301.67 41.4517 302.559 42.625 303.128 44C303.714 45.375 304.008 46.9058 304.008 48.5925C304.008 49.9675 303.797 51.2508 303.375 52.4425C302.972 53.6342 302.376 54.7158 301.588 55.6875C300.818 56.6592 299.864 57.5025 298.728 58.2175C297.591 58.9325 296.299 59.4917 294.85 59.895C295.639 60.3717 296.317 61.0408 296.885 61.9025L307.583 77ZM318.817 77H312.355V37.4H318.817V77ZM348.907 44.165C348.705 44.495 348.495 44.7425 348.275 44.9075C348.055 45.0542 347.78 45.1275 347.45 45.1275C347.101 45.1275 346.707 44.9808 346.267 44.6875C345.845 44.3942 345.314 44.0733 344.672 43.725C344.049 43.3583 343.306 43.0283 342.445 42.735C341.583 42.4233 340.556 42.2675 339.365 42.2675C338.265 42.2675 337.293 42.405 336.45 42.68C335.625 42.955 334.928 43.34 334.36 43.835C333.791 44.33 333.36 44.9167 333.067 45.595C332.792 46.255 332.655 46.9792 332.655 47.7675C332.655 48.7758 332.92 49.6192 333.452 50.2975C333.984 50.9575 334.68 51.5258 335.542 52.0025C336.422 52.4792 337.421 52.9008 338.54 53.2675C339.658 53.6158 340.795 53.9917 341.95 54.395C343.123 54.7983 344.269 55.2567 345.387 55.77C346.505 56.2833 347.495 56.9342 348.357 57.7225C349.237 58.5108 349.943 59.4733 350.475 60.61C351.006 61.7467 351.272 63.1308 351.272 64.7625C351.272 66.5225 350.97 68.1725 350.365 69.7125C349.76 71.2525 348.88 72.6 347.725 73.755C346.588 74.8917 345.176 75.79 343.49 76.45C341.821 77.11 339.915 77.44 337.77 77.44C336.505 77.44 335.267 77.3117 334.057 77.055C332.865 76.8167 331.72 76.4775 330.62 76.0375C329.538 75.5792 328.52 75.0292 327.567 74.3875C326.614 73.7458 325.761 73.0308 325.01 72.2425L326.88 69.1625C327.045 68.9058 327.255 68.7042 327.512 68.5575C327.769 68.4108 328.053 68.3375 328.365 68.3375C328.786 68.3375 329.254 68.5392 329.767 68.9425C330.28 69.3275 330.895 69.7583 331.61 70.235C332.343 70.6933 333.223 71.1242 334.25 71.5275C335.276 71.9125 336.505 72.105 337.935 72.105C340.263 72.105 342.06 71.5367 343.325 70.4C344.608 69.2633 345.25 67.6958 345.25 65.6975C345.25 64.5792 344.984 63.6717 344.452 62.975C343.92 62.26 343.215 61.6642 342.335 61.1875C341.473 60.7108 340.483 60.3075 339.365 59.9775C338.246 59.6475 337.11 59.2992 335.955 58.9325C334.8 58.5475 333.663 58.1075 332.545 57.6125C331.426 57.0992 330.427 56.4392 329.547 55.6325C328.685 54.8075 327.989 53.7992 327.457 52.6075C326.925 51.3975 326.66 49.8942 326.66 48.0975C326.66 46.6675 326.935 45.2833 327.485 43.945C328.053 42.6067 328.869 41.4242 329.932 40.3975C331.014 39.3525 332.343 38.5183 333.92 37.895C335.496 37.2717 337.293 36.96 339.31 36.96C341.583 36.96 343.664 37.3175 345.552 38.0325C347.459 38.7475 349.1 39.765 350.475 41.085L348.907 44.165ZM385.476 42.7625H373.129V77H366.721V42.7625H354.346V37.4H385.476V42.7625ZM426.638 57.2C426.638 60.1333 426.161 62.8375 425.208 65.3125C424.254 67.7875 422.907 69.9233 421.165 71.72C419.442 73.4983 417.361 74.8917 414.923 75.9C412.503 76.9083 409.808 77.4125 406.838 77.4125C403.886 77.4125 401.191 76.9083 398.753 75.9C396.333 74.8917 394.252 73.4983 392.51 71.72C390.768 69.9233 389.421 67.7875 388.468 65.3125C387.514 62.8375 387.038 60.1333 387.038 57.2C387.038 54.2667 387.514 51.5625 388.468 49.0875C389.421 46.6125 390.768 44.4767 392.51 42.68C394.252 40.8833 396.333 39.4808 398.753 38.4725C401.191 37.4642 403.886 36.96 406.838 36.96C409.808 36.96 412.503 37.4642 414.923 38.4725C417.361 39.4808 419.442 40.8833 421.165 42.68C422.907 44.4767 424.254 46.6125 425.208 49.0875C426.161 51.5625 426.638 54.2667 426.638 57.2ZM420.065 57.2C420.065 54.9267 419.753 52.8825 419.13 51.0675C418.525 49.2525 417.645 47.7125 416.49 46.4475C415.353 45.1825 413.969 44.2108 412.338 43.5325C410.706 42.8542 408.873 42.515 406.838 42.515C404.821 42.515 402.997 42.8542 401.365 43.5325C399.733 44.2108 398.34 45.1825 397.185 46.4475C396.03 47.7125 395.141 49.2525 394.518 51.0675C393.894 52.8825 393.583 54.9267 393.583 57.2C393.583 59.4917 393.894 61.545 394.518 63.36C395.141 65.175 396.03 66.715 397.185 67.98C398.34 69.2267 399.733 70.1892 401.365 70.8675C402.997 71.5275 404.821 71.8575 406.838 71.8575C408.873 71.8575 410.706 71.5275 412.338 70.8675C413.969 70.1892 415.353 69.2267 416.49 67.98C417.645 66.715 418.525 65.175 419.13 63.36C419.753 61.545 420.065 59.4917 420.065 57.2ZM446.008 57.585C447.438 57.585 448.694 57.4017 449.775 57.035C450.875 56.6683 451.783 56.155 452.498 55.495C453.231 54.8167 453.781 54.0008 454.148 53.0475C454.515 52.0942 454.698 51.0308 454.698 49.8575C454.698 48.7025 454.515 47.6667 454.148 46.75C453.8 45.8333 453.268 45.0542 452.553 44.4125C451.838 43.7708 450.93 43.285 449.83 42.955C448.749 42.6067 447.475 42.4325 446.008 42.4325H440.123V57.585H446.008ZM446.008 37.4C448.593 37.4 450.83 37.7025 452.718 38.3075C454.625 38.9125 456.192 39.765 457.42 40.865C458.667 41.9467 459.593 43.2575 460.198 44.7975C460.803 46.3192 461.105 48.0058 461.105 49.8575C461.105 51.7458 460.785 53.4783 460.143 55.055C459.501 56.6133 458.548 57.9608 457.283 59.0975C456.018 60.2158 454.441 61.0958 452.553 61.7375C450.683 62.3608 448.501 62.6725 446.008 62.6725H440.123V77H433.688V37.4H446.008ZM500.037 37.4V77H493.602V59.3725H473.72V77H467.257V37.4H473.72V54.725H493.602V37.4H500.037ZM534.196 71.8025L534.169 77H509.474V37.4H534.169V42.5975H515.936V54.5325H530.511V59.565H515.936V71.8025H534.196ZM552.658 56.375C554.125 56.375 555.408 56.2008 556.508 55.8525C557.608 55.4858 558.525 54.9817 559.258 54.34C559.992 53.6983 560.542 52.9375 560.908 52.0575C561.275 51.1592 561.458 50.1692 561.458 49.0875C561.458 46.9242 560.743 45.2742 559.313 44.1375C557.883 43.0008 555.72 42.4325 552.823 42.4325H547.598V56.375H552.658ZM571.303 77H565.556C564.419 77 563.594 76.56 563.081 75.68L553.841 62.3425C553.529 61.8842 553.19 61.5542 552.823 61.3525C552.457 61.1508 551.907 61.05 551.173 61.05H547.598V77H541.163V37.4H552.823C555.427 37.4 557.663 37.6658 559.533 38.1975C561.422 38.7292 562.971 39.49 564.181 40.48C565.391 41.4517 566.28 42.625 566.848 44C567.435 45.375 567.728 46.9058 567.728 48.5925C567.728 49.9675 567.518 51.2508 567.096 52.4425C566.693 53.6342 566.097 54.7158 565.308 55.6875C564.538 56.6592 563.585 57.5025 562.448 58.2175C561.312 58.9325 560.019 59.4917 558.571 59.895C559.359 60.3717 560.038 61.0408 560.606 61.9025L571.303 77ZM231.483 108.4V148H225.048V130.372H205.165V148H198.703V108.4H205.165V125.725H225.048V108.4H231.483ZM261.874 133.15L256.429 118.685C255.989 117.567 255.54 116.146 255.082 114.422C254.88 115.284 254.66 116.082 254.422 116.815C254.183 117.53 253.963 118.162 253.762 118.712L248.317 133.15H261.874ZM274.057 148H269.079C268.511 148 268.053 147.862 267.704 147.587C267.356 147.294 267.09 146.937 266.907 146.515L263.607 137.77H246.557L243.257 146.515C243.11 146.882 242.853 147.221 242.487 147.532C242.12 147.844 241.662 148 241.112 148H236.134L251.837 108.4H258.354L274.057 148ZM290.173 127.375C291.64 127.375 292.923 127.201 294.023 126.852C295.123 126.486 296.04 125.982 296.773 125.34C297.506 124.698 298.056 123.937 298.423 123.057C298.79 122.159 298.973 121.169 298.973 120.087C298.973 117.924 298.258 116.274 296.828 115.137C295.398 114.001 293.235 113.432 290.338 113.432H285.113V127.375H290.173ZM308.818 148H303.071C301.934 148 301.109 147.56 300.596 146.68L291.356 133.342C291.044 132.884 290.705 132.554 290.338 132.352C289.971 132.151 289.421 132.05 288.688 132.05H285.113V148H278.678V108.4H290.338C292.941 108.4 295.178 108.666 297.048 109.197C298.936 109.729 300.486 110.49 301.696 111.48C302.906 112.452 303.795 113.625 304.363 115C304.95 116.375 305.243 117.906 305.243 119.593C305.243 120.967 305.032 122.251 304.611 123.442C304.207 124.634 303.611 125.716 302.823 126.687C302.053 127.659 301.1 128.502 299.963 129.217C298.826 129.932 297.534 130.492 296.086 130.895C296.874 131.372 297.552 132.041 298.121 132.902L308.818 148ZM325.085 127.375C326.552 127.375 327.835 127.201 328.935 126.852C330.035 126.486 330.952 125.982 331.685 125.34C332.419 124.698 332.969 123.937 333.335 123.057C333.702 122.159 333.885 121.169 333.885 120.087C333.885 117.924 333.17 116.274 331.74 115.137C330.31 114.001 328.147 113.432 325.25 113.432H320.025V127.375H325.085ZM343.73 148H337.983C336.846 148 336.021 147.56 335.508 146.68L326.268 133.342C325.956 132.884 325.617 132.554 325.25 132.352C324.884 132.151 324.334 132.05 323.6 132.05H320.025V148H313.59V108.4H325.25C327.854 108.4 330.09 108.666 331.96 109.197C333.849 109.729 335.398 110.49 336.608 111.48C337.818 112.452 338.707 113.625 339.275 115C339.862 116.375 340.155 117.906 340.155 119.593C340.155 120.967 339.944 122.251 339.523 123.442C339.119 124.634 338.524 125.716 337.735 126.687C336.965 127.659 336.012 128.502 334.875 129.217C333.739 129.932 332.446 130.492 330.998 130.895C331.786 131.372 332.464 132.041 333.033 132.902L343.73 148ZM373.225 142.802L373.197 148H348.502V108.4H373.197V113.597H354.965V125.532H369.54V130.565H354.965V142.802H373.225ZM403.072 142.61V148H380.192V108.4H386.627V142.61H403.072ZM431.485 142.61V148H408.605V108.4H415.04V142.61H431.485Z" fill="black"/>
<defs>
<radialGradient id="paint0_radial" cx="0" cy="0" r="1" gradientUnits="userSpaceOnUse" gradientTransform="translate(91 136) rotate(89.8219) scale(47.0002 105.438)">
<stop stop-color="#C4EAFF"/>
<stop offset="0.675583" stop-color="#00C2FF" stop-opacity="0.05"/>
</radialGradient>
</defs>
</svg>
