<svg width="510" height="163" viewBox="0 0 510 163" fill="none" xmlns="http://www.w3.org/2000/svg">
<path d="M475.538 135.84C467.099 135.84 460.214 134.026 454.884 130.399C449.628 126.698 447 121.479 447 114.742C447 114.076 447.074 113.076 447.222 111.744H466.988C466.766 114.557 467.432 116.778 468.987 118.406C470.541 120.035 472.91 120.849 476.093 120.849C478.98 120.849 481.238 120.22 482.867 118.962C484.57 117.703 485.421 115.926 485.421 113.631C485.421 111.263 484.348 109.338 482.201 107.857C480.128 106.377 476.871 104.711 472.429 102.86C468.135 101.084 464.619 99.4179 461.88 97.8633C459.215 96.2347 456.883 94.0508 454.884 91.3118C452.885 88.5727 451.886 85.1304 451.886 80.9847C451.812 75.8768 453.07 71.435 455.661 67.6595C458.252 63.8841 461.843 60.9969 466.433 58.9982C471.022 56.9994 476.278 56 482.201 56C487.531 56 492.269 56.8513 496.414 58.554C500.56 60.1826 503.78 62.5886 506.075 65.7718C508.37 68.881 509.517 72.5825 509.517 76.8761C509.517 77.9866 509.48 78.8009 509.406 79.3191H489.196C489.271 79.023 489.308 78.5788 489.308 77.9866C489.308 75.9138 488.567 74.2481 487.087 72.9896C485.68 71.6571 483.718 70.9908 481.201 70.9908C478.536 70.9908 476.352 71.6571 474.65 72.9896C473.021 74.2481 472.207 75.9878 472.207 78.2087C472.207 80.4295 473.243 82.3173 475.316 83.8719C477.389 85.3525 480.609 87.0921 484.977 89.0909C489.345 91.0897 492.898 92.9404 495.637 94.6431C498.45 96.3457 500.856 98.6406 502.855 101.528C504.854 104.341 505.853 107.82 505.853 111.966C505.853 116.556 504.631 120.664 502.189 124.292C499.746 127.919 496.229 130.769 491.639 132.842C487.05 134.841 481.683 135.84 475.538 135.84Z" fill="#47D881"/>
<path d="M436.758 57.1104L422.988 135.063H404L417.769 57.1104H436.758Z" fill="#47D881"/>
<path d="M316.337 95.9757C317.67 88.2767 320.52 81.429 324.888 75.4327C329.329 69.3623 334.845 64.6615 341.433 61.3302C348.022 57.9248 355.166 56.2222 362.865 56.2222C372.192 56.2222 379.669 58.48 385.295 62.9958C390.996 67.5116 394.105 73.767 394.623 81.7621H373.747C372.784 79.1711 371.082 77.2094 368.639 75.8768C366.27 74.4703 363.346 73.767 359.866 73.767C353.722 73.767 348.429 75.8028 343.987 79.8744C339.619 83.872 336.843 89.2391 335.659 95.9757C335.289 98.1966 335.104 100.121 335.104 101.75C335.104 107.228 336.695 111.448 339.879 114.409C343.062 117.37 347.578 118.851 353.426 118.851C358.164 118.851 362.346 117.666 365.974 115.297C369.601 112.854 372.525 109.412 374.746 104.97H350.761L353.093 91.0898H394.401L391.292 108.746C389.071 113.484 385.888 117.888 381.742 121.96C377.67 126.031 372.821 129.326 367.195 131.843C361.569 134.36 355.499 135.618 348.984 135.618C342.247 135.618 336.325 134.323 331.217 131.732C326.183 129.067 322.297 125.365 319.558 120.627C316.893 115.889 315.56 110.374 315.56 104.082C315.56 101.935 315.819 99.233 316.337 95.9757Z" fill="#47D881"/>
<g filter="url(#filter0_i)">
<path fill-rule="evenodd" clip-rule="evenodd" d="M261.368 22.1108C261.368 9.88668 271.704 0 284.483 0C297.262 0 307.597 9.88668 307.597 22.1108C307.597 34.881 293.889 52.3339 287.587 59.6847C285.938 61.608 283.028 61.608 281.379 59.6847C275.076 52.3339 261.368 34.881 261.368 22.1108ZM284.482 32.676C292.385 32.676 298.791 26.3367 298.791 18.5164C298.791 10.6963 292.385 4.35681 284.482 4.35681C276.579 4.35681 270.173 10.6963 270.173 18.5164C270.173 26.3367 276.579 32.676 284.482 32.676Z" fill="#47D881"/>
</g>
<path d="M274.577 80.95C274.577 75.7309 279.012 71.5 284.483 71.5C289.953 71.5 294.389 75.7309 294.389 80.95V125.05C294.389 130.269 289.953 134.5 284.483 134.5C279.012 134.5 274.577 130.269 274.577 125.05V80.95Z" fill="white"/>
<path d="M95.2735 75.91L67.7562 134.5H46.953L44.3114 96.49L27.2506 134.5H6.55756L0.723877 75.91H19.5457L20.4263 117.805L38.5877 75.91H58.5103L61.2621 117.805L77.5523 75.91H95.2735Z" fill="white"/>
<path d="M102.121 105.1C103.222 99.0799 105.386 93.795 108.615 89.2449C111.844 84.6949 115.733 81.195 120.282 78.7449C124.832 76.2949 129.638 75.0699 134.701 75.0699C139.031 75.0699 142.663 75.9099 145.598 77.5899C148.533 79.2699 150.662 81.4749 151.982 84.2049L153.523 75.9099H172.345L161.448 134.5H142.626L144.277 126.205C141.929 128.935 138.957 131.14 135.362 132.82C131.766 134.5 127.804 135.34 123.474 135.34C119.145 135.34 115.292 134.395 111.917 132.505C108.615 130.615 106.047 127.955 104.212 124.525C102.378 121.025 101.46 116.93 101.46 112.24C101.46 110 101.681 107.62 102.121 105.1ZM148.13 105.205C148.35 103.945 148.46 102.79 148.46 101.74C148.46 98.31 147.396 95.6149 145.268 93.6549C143.213 91.695 140.572 90.7149 137.343 90.7149C133.601 90.7149 130.189 92.01 127.107 94.5999C124.025 97.1199 122.08 100.62 121.273 105.1C121.053 106.36 120.943 107.515 120.943 108.565C120.943 111.995 121.97 114.725 124.025 116.755C126.153 118.715 128.794 119.695 131.95 119.695C135.692 119.695 139.104 118.4 142.186 115.81C145.268 113.22 147.249 109.685 148.13 105.205Z" fill="white"/>
<path d="M211.938 84.2049C214.286 81.4749 217.221 79.2699 220.744 77.5899C224.338 75.9099 228.301 75.0699 232.631 75.0699C239.235 75.0699 244.556 77.1349 248.591 81.2649C252.701 85.395 254.755 90.9949 254.755 98.0649C254.755 100.235 254.535 102.58 254.095 105.1C252.994 111.12 250.83 116.44 247.601 121.06C244.371 125.61 240.483 129.145 235.933 131.665C231.383 134.115 226.577 135.34 221.514 135.34C217.259 135.34 213.663 134.5 210.727 132.82C207.792 131.14 205.628 128.97 204.233 126.31L197.519 162.43H178.697L194.657 75.9099H213.479L211.938 84.2049ZM235.053 105.1C235.273 103.91 235.383 102.825 235.383 101.845C235.383 98.3449 234.32 95.6149 232.191 93.6549C230.137 91.695 227.495 90.7149 224.266 90.7149C220.523 90.7149 217.111 92.01 214.03 94.5999C210.948 97.1899 208.966 100.725 208.086 105.205C207.866 106.465 207.756 107.62 207.756 108.67C207.756 112.1 208.783 114.795 210.838 116.755C212.892 118.715 215.533 119.695 218.762 119.695C222.505 119.695 225.917 118.4 228.999 115.81C232.153 113.15 234.172 109.58 235.053 105.1Z" fill="white"/>
<defs>
<filter id="filter0_i" x="261.368" y="0" width="46.2292" height="65.1272" filterUnits="userSpaceOnUse" color-interpolation-filters="sRGB">
<feFlood flood-opacity="0" result="BackgroundImageFix"/>
<feBlend mode="normal" in="SourceGraphic" in2="BackgroundImageFix" result="shape"/>
<feColorMatrix in="SourceAlpha" type="matrix" values="0 0 0 0 0 0 0 0 0 0 0 0 0 0 0 0 0 0 127 0" result="hardAlpha"/>
<feOffset dy="4"/>
<feGaussianBlur stdDeviation="2"/>
<feComposite in2="hardAlpha" operator="arithmetic" k2="-1" k3="1"/>
<feColorMatrix type="matrix" values="0 0 0 0 0 0 0 0 0 0 0 0 0 0 0 0 0 0 0.25 0"/>
<feBlend mode="normal" in2="shape" result="effect1_innerShadow"/>
</filter>
</defs>
</svg>
