<svg width="317" height="168" viewBox="0 0 317 168" fill="none" xmlns="http://www.w3.org/2000/svg">
<path fill-rule="evenodd" clip-rule="evenodd" d="M266.368 24.1108C266.368 11.8867 276.704 2 289.483 2C302.262 2 312.597 11.8867 312.597 24.1108C312.597 36.881 298.889 54.3339 292.587 61.6847C290.938 63.608 288.028 63.608 286.379 61.6847C280.076 54.3339 266.368 36.881 266.368 24.1108ZM289.482 34.676C297.385 34.676 303.791 28.3367 303.791 20.5164C303.791 12.6963 297.385 6.35682 289.482 6.35682C281.579 6.35682 275.173 12.6963 275.173 20.5164C275.173 28.3367 281.579 34.676 289.482 34.676Z" fill="#6EC401"/>
<path d="M279.577 82.95C279.577 77.7309 284.012 73.5 289.483 73.5C294.953 73.5 299.389 77.7309 299.389 82.95V127.05C299.389 132.269 294.953 136.5 289.483 136.5C284.012 136.5 279.577 132.269 279.577 127.05V82.95Z" fill="white"/>
<path d="M100.274 77.91L72.7562 136.5H51.953L49.3114 98.49L32.2506 136.5H11.5576L5.72388 77.91H24.5457L25.4263 119.805L43.5877 77.91H63.5103L66.2621 119.805L82.5523 77.91H100.274Z" fill="white"/>
<path d="M107.121 107.1C108.222 101.08 110.386 95.7951 113.615 91.245C116.844 86.6949 120.733 83.1951 125.282 80.745C129.832 78.2949 134.638 77.07 139.701 77.07C144.031 77.07 147.663 77.91 150.598 79.59C153.533 81.27 155.662 83.475 156.982 86.205L158.523 77.91H177.345L166.448 136.5H147.626L149.277 128.205C146.929 130.935 143.957 133.14 140.362 134.82C136.766 136.5 132.804 137.34 128.474 137.34C124.145 137.34 120.292 136.395 116.917 134.505C113.615 132.615 111.047 129.955 109.212 126.525C107.378 123.025 106.46 118.93 106.46 114.24C106.46 112 106.681 109.62 107.121 107.1ZM153.13 107.205C153.35 105.945 153.46 104.79 153.46 103.74C153.46 100.31 152.396 97.6149 150.268 95.655C148.213 93.6951 145.572 92.715 142.343 92.715C138.601 92.715 135.189 94.0101 132.107 96.6C129.025 99.12 127.08 102.62 126.273 107.1C126.053 108.36 125.943 109.515 125.943 110.565C125.943 113.995 126.97 116.725 129.025 118.755C131.153 120.715 133.794 121.695 136.95 121.695C140.692 121.695 144.104 120.4 147.186 117.81C150.268 115.22 152.249 111.685 153.13 107.205Z" fill="white"/>
<path d="M216.938 86.205C219.286 83.475 222.221 81.27 225.744 79.59C229.338 77.91 233.301 77.07 237.631 77.07C244.235 77.07 249.556 79.1349 253.591 83.265C257.701 87.3951 259.755 92.9949 259.755 100.065C259.755 102.235 259.535 104.58 259.095 107.1C257.994 113.12 255.83 118.44 252.601 123.06C249.371 127.61 245.483 131.145 240.933 133.665C236.383 136.115 231.577 137.34 226.514 137.34C222.259 137.34 218.663 136.5 215.727 134.82C212.792 133.14 210.628 130.97 209.233 128.31L202.519 164.43H183.697L199.657 77.91H218.479L216.938 86.205ZM240.053 107.1C240.273 105.91 240.383 104.825 240.383 103.845C240.383 100.345 239.32 97.6149 237.191 95.655C235.137 93.6951 232.495 92.715 229.266 92.715C225.523 92.715 222.111 94.0101 219.03 96.6C215.948 99.1899 213.966 102.725 213.086 107.205C212.866 108.465 212.756 109.62 212.756 110.67C212.756 114.1 213.783 116.795 215.838 118.755C217.892 120.715 220.533 121.695 223.762 121.695C227.505 121.695 230.917 120.4 233.999 117.81C237.153 115.15 239.172 111.58 240.053 107.1Z" fill="white"/>
</svg>
