<svg width="329" height="111" viewBox="0 0 329 111" fill="none" xmlns="http://www.w3.org/2000/svg">
<path d="M291 6C311.954 6 329 22.485 329 42.75C329 65.1049 304.003 96.0937 294.557 107.006C292.662 109.195 289.338 109.195 287.443 107.006C277.997 96.0937 253 65.1049 253 42.75C253 22.485 270.046 6 291 6Z" fill="white"/>
<path d="M86.925 41.27L68.21 92H56.81L43.7 57.04L30.4 92H19L0.38 41.27H11.59L24.985 78.7L38.95 41.27H48.925L62.605 78.89L76.38 41.27H86.925ZM129.993 40.7C137.466 40.7 143.166 42.505 147.093 46.115C151.083 49.6617 153.078 55.045 153.078 62.265V92H141.868V85.825C140.411 88.0417 138.321 89.7517 135.598 90.955C132.938 92.095 129.708 92.665 125.908 92.665C122.108 92.665 118.783 92.0317 115.933 90.765C113.083 89.435 110.866 87.63 109.283 85.35C107.763 83.0067 107.003 80.3783 107.003 77.465C107.003 72.905 108.681 69.2633 112.038 66.54C115.458 63.7533 120.809 62.36 128.093 62.36H141.203V61.6C141.203 58.0533 140.126 55.33 137.973 53.43C135.883 51.53 132.748 50.58 128.568 50.58C125.718 50.58 122.899 51.0233 120.113 51.91C117.389 52.7967 115.078 54.0317 113.178 55.615L108.523 46.97C111.183 44.9433 114.381 43.3917 118.118 42.315C121.854 41.2383 125.813 40.7 129.993 40.7ZM128.378 84.02C131.354 84.02 133.983 83.355 136.263 82.025C138.606 80.6317 140.253 78.6683 141.203 76.135V70.245H128.948C122.108 70.245 118.688 72.4933 118.688 76.99C118.688 79.1433 119.543 80.8533 121.253 82.12C122.963 83.3867 125.338 84.02 128.378 84.02ZM213.538 40.7C218.478 40.7 222.879 41.7767 226.743 43.93C230.669 46.0833 233.741 49.1233 235.958 53.05C238.174 56.9767 239.283 61.505 239.283 66.635C239.283 71.765 238.174 76.325 235.958 80.315C233.741 84.2417 230.669 87.2817 226.743 89.435C222.879 91.5883 218.478 92.665 213.538 92.665C206.698 92.665 201.283 90.385 197.293 85.825V110.43H185.418V41.27H196.723V47.92C198.686 45.5133 201.093 43.7083 203.943 42.505C206.856 41.3017 210.054 40.7 213.538 40.7ZM212.208 82.5C216.578 82.5 220.156 81.0433 222.943 78.13C225.793 75.2167 227.218 71.385 227.218 66.635C227.218 61.885 225.793 58.0533 222.943 55.14C220.156 52.2267 216.578 50.77 212.208 50.77C209.358 50.77 206.793 51.435 204.513 52.765C202.233 54.0317 200.428 55.8683 199.098 58.275C197.768 60.6817 197.103 63.4683 197.103 66.635C197.103 69.8017 197.768 72.5883 199.098 74.995C200.428 77.4017 202.233 79.27 204.513 80.6C206.793 81.8667 209.358 82.5 212.208 82.5Z" fill="white"/>
<path d="M284.745 41.27H296.62V92H284.745V41.27ZM290.73 32.91C288.576 32.91 286.771 32.245 285.315 30.915C283.858 29.5217 283.13 27.8117 283.13 25.785C283.13 23.7583 283.858 22.08 285.315 20.75C286.771 19.3567 288.576 18.66 290.73 18.66C292.883 18.66 294.688 19.325 296.145 20.655C297.601 21.9217 298.33 23.5367 298.33 25.5C298.33 27.59 297.601 29.3633 296.145 30.82C294.751 32.2133 292.946 32.91 290.73 32.91Z" fill="black"/>
</svg>
