<svg width="116" height="116" viewBox="0 0 116 116" fill="none" xmlns="http://www.w3.org/2000/svg">
<path d="M35.6238 115.866C34.1236 115.866 32.613 115.597 31.1573 115.052L8.22422 106.452C3.30539 104.607 0 99.8378 0 94.5836V29.1325C0 24.9761 2.0393 21.0817 5.45555 18.7143C8.87156 16.3471 13.2347 15.8048 17.126 17.2642L33.5995 23.4419C35.437 24.1312 37.4709 23.8394 39.0403 22.6619L64.5975 3.49353C68.0749 0.885167 72.5822 0.238526 76.6533 1.76548L99.5864 10.3654C104.506 12.2106 107.811 16.9799 107.811 22.2337V42.0508C107.811 43.9715 106.254 45.5282 104.334 45.5282C102.413 45.5282 100.856 43.9713 100.856 42.0508V22.2339C100.856 19.863 99.3645 17.7105 97.144 16.878L74.2111 8.27806C72.3738 7.58876 70.3399 7.88103 68.7703 9.05782L43.2131 28.2264C39.7345 30.8352 35.2282 31.4814 31.1566 29.9545L14.6841 23.7768C12.9026 23.1084 10.9819 23.3467 9.41695 24.4312C7.8525 25.5154 6.95484 27.2292 6.95484 29.1327V94.5834C6.95484 96.9548 8.44641 99.1068 10.6664 99.9393L33.5995 108.539C35.437 109.229 37.4709 108.937 39.0403 107.759L64.5975 88.5909C68.0749 85.9825 72.5822 85.3359 76.6533 86.8628C78.4519 87.5371 79.3629 89.5415 78.6886 91.3401C78.0148 93.138 76.0099 94.0495 74.2116 93.3752C72.3741 92.6866 70.3402 92.9777 68.7708 94.1549L43.2136 113.324C40.9791 115 38.3191 115.866 35.6238 115.866Z" fill="#2F2F2F"/>
<path d="M71.7992 4.44934C69.976 4.52973 68.1885 5.14731 66.6838 6.27606L41.1266 25.4444C39.3425 26.7822 37.1619 27.4043 34.9946 27.2597V112.357C37.1619 112.502 39.343 111.88 41.1266 110.542L66.6838 91.3734C68.1885 90.2449 69.9758 89.6271 71.7992 89.5467V4.44934Z" fill="#C4C4C4"/>
<path d="M35.6107 115.855C35.3287 115.855 35.044 115.846 34.7632 115.827C32.9365 115.705 31.5173 114.188 31.5173 112.357V27.2594C31.5173 26.2968 31.9162 25.3774 32.6194 24.7197C33.3223 24.0621 34.2659 23.7253 35.2266 23.7895C36.6044 23.8837 37.9439 23.4848 39.0408 22.6621L64.598 3.49379C66.6441 1.9591 69.0815 1.08816 71.6465 0.974959C72.5962 0.935584 73.5187 1.28058 74.2038 1.9366C74.8891 2.59285 75.277 3.50035 75.277 4.4491V89.5464C75.277 91.4076 73.8119 92.9388 71.9526 93.0203C70.7922 93.0714 69.6923 93.4638 68.7715 94.1547L43.2141 113.323C41.0372 114.956 38.3369 115.855 35.6107 115.855ZM38.4726 30.427V108.135C38.6681 108.022 38.8577 107.897 39.0408 107.759L64.598 88.5911C65.7337 87.7392 66.9902 87.0916 68.3219 86.665V9.39441L43.2138 28.226C41.8076 29.2811 40.1822 30.0295 38.4726 30.427Z" fill="#2F2F2F"/>
<path fill-rule="evenodd" clip-rule="evenodd" d="M65 71.3202C65 57.3218 76.4021 46 90.5 46C104.598 46 116 57.3218 116 71.3202C116 85.9441 100.877 105.93 93.9243 114.348C92.1053 116.551 88.8947 116.551 87.0757 114.348C80.1227 105.93 65 85.9441 65 71.3202ZM90.4996 83.4191C99.2181 83.4191 106.285 76.1595 106.285 67.2041C106.285 58.2489 99.2181 50.9892 90.4996 50.9892C81.781 50.9892 74.7139 58.2489 74.7139 67.2041C74.7139 76.1595 81.781 83.4191 90.4996 83.4191Z" fill="#2F2F2F"/>
<path fill-rule="evenodd" clip-rule="evenodd" d="M70 71.2562C70 60.0574 79.1664 51 90.5 51C101.834 51 111 60.0574 111 71.2562C111 82.9553 98.8425 98.9443 93.2529 105.679C91.7905 107.44 89.2095 107.44 87.7471 105.679C82.1575 98.9443 70 82.9553 70 71.2562ZM90.4996 80.9352C97.5087 80.9352 103.19 75.1276 103.19 67.9633C103.19 60.7991 97.5087 54.9914 90.4996 54.9914C83.4906 54.9914 77.8092 60.7991 77.8092 67.9633C77.8092 75.1276 83.4906 80.9352 90.4996 80.9352Z" fill="#47D881"/>
<path d="M102 68.5C102 74.8513 96.8513 80 90.5 80C84.1487 80 79 74.8513 79 68.5C79 62.1487 84.1487 57 90.5 57C96.8513 57 102 62.1487 102 68.5Z" stroke="#2F2F2F" stroke-width="4"/>
</svg>
