<svg width="116" height="120" viewBox="0 0 116 120" fill="none" xmlns="http://www.w3.org/2000/svg">
<path d="M57.9982 24.2562C37.0133 24.2562 19.939 41.3306 19.939 62.3174C19.939 83.3041 37.0133 100.378 57.9982 100.378C78.9859 100.378 96.0593 83.3041 96.0593 62.3174C96.0593 41.3297 78.9859 24.2562 57.9982 24.2562Z" fill="#2F2F2F"/>
<path d="M57.9682 0C53.8341 0 50.4688 3.36506 50.4688 7.5C50.4688 11.636 53.8341 15 57.9682 15C62.1056 15 65.4688 11.636 65.4688 7.5C65.4688 3.36506 62.1045 0 57.9682 0Z" fill="#47D881"/>
<path d="M7.95103 82.5336C7.56906 81.5843 6.49121 81.1192 5.53344 81.5096C4.58513 81.8907 4.11995 82.9789 4.50949 83.9272C4.79881 84.6524 5.49562 85.0892 6.23026 85.0902C6.46285 85.0902 6.69544 85.0533 6.92802 84.9597C7.87634 84.5796 8.34246 83.4914 7.95103 82.5336Z" fill="#2F2F2F"/>
<path d="M17.0004 100.238C16.2658 100.963 16.2554 102.135 16.9815 102.87C17.3436 103.233 17.8268 103.418 18.3014 103.418C18.776 103.418 19.2497 103.241 19.6128 102.879C20.3379 102.164 20.3474 100.982 19.6222 100.257C18.9065 99.5209 17.7256 99.5115 17.0004 100.238Z" fill="#2F2F2F"/>
<path d="M15.4743 26.287C14.665 25.6441 13.4936 25.6205 12.861 26.4194C12.22 27.2202 12.3505 28.3917 13.1494 29.0337C13.4936 29.3022 13.903 29.6057 14.3123 29.6057C14.8617 29.6057 15.4006 29.063 15.7722 29.063H15.7627C16.4047 28.1251 16.2742 26.9281 15.4743 26.287Z" fill="#2F2F2F"/>
<path d="M12.3589 94.5185C11.541 95.1331 11.3822 96.3045 11.9958 97.1224C12.3683 97.6065 12.9167 97.8579 13.4831 97.8579C13.8745 97.8579 14.265 97.7369 14.6091 97.4854C15.4279 96.8614 15.5858 95.69 14.9627 94.8721C14.3387 94.0533 13.1767 93.8954 12.3589 94.5185Z" fill="#2F2F2F"/>
<path d="M11.0663 32.0375C10.1908 31.508 9.04773 31.786 8.51731 32.67C7.98879 33.5531 8.27622 34.6971 9.15078 35.2171C9.45712 35.4034 9.78331 35.4866 10.1086 35.4875C10.7411 35.4875 11.3632 35.1718 11.7074 34.5856C12.2387 33.7015 11.9494 32.5575 11.0663 32.0375Z" fill="#2F2F2F"/>
<path d="M37.2251 112.499H37.2156C36.2768 111.562 35.18 112.371 34.7886 113.319C34.3887 114.268 34.8359 115.172 35.7842 115.563C36.0253 115.665 36.2673 115.803 36.5009 115.802C37.2251 115.802 37.9238 115.466 38.2207 114.751C38.6206 113.802 38.1649 112.499 37.2251 112.499Z" fill="#2F2F2F"/>
<path d="M5.72821 75.937H5.73767C5.47861 74.0621 4.46506 74.2588 3.46947 74.5188C2.47388 74.7712 1.86972 75.7063 2.12973 76.701C2.3434 77.5386 3.096 78.1447 3.93275 78.1438C4.08308 78.1438 4.24003 78.1646 4.39793 78.1192C5.39446 77.8677 5.98917 76.874 5.72821 75.937Z" fill="#2F2F2F"/>
<path d="M30.8448 108.962C29.9627 108.44 28.8177 108.747 28.3062 109.63C27.7862 110.514 28.084 111.658 28.9756 112.179C29.265 112.345 29.5902 112.429 29.905 112.43C30.547 112.43 31.1701 112.096 31.5142 111.509C32.0352 110.616 31.7374 109.483 30.8448 108.962Z" fill="#2F2F2F"/>
<path d="M30.186 11.7844C29.284 12.2761 28.9578 13.4107 29.4608 14.3126C29.7946 14.9263 30.428 15.2704 31.088 15.2723C31.3868 15.2723 31.6921 15.1976 31.9815 15.0397C32.8834 14.5452 33.2087 13.4116 32.7161 12.5181C32.214 11.6161 31.088 11.2909 30.186 11.7844Z" fill="#2F2F2F"/>
<path d="M23.788 15.885C22.9588 16.4987 22.7839 17.6606 23.3881 18.4889C23.7597 18.9815 24.3175 19.2415 24.8942 19.2415C25.2753 19.2415 25.6563 19.1299 25.991 18.8794C26.8192 18.2752 26.997 17.1028 26.3824 16.2755C25.7773 15.4567 24.6049 15.2799 23.788 15.885Z" fill="#2F2F2F"/>
<path d="M17.9749 20.7929C17.2318 21.5106 17.2129 22.6811 17.9295 23.4252C18.2917 23.7986 18.7757 23.9934 19.2683 23.9924C19.7335 23.9924 20.1977 23.8156 20.5514 23.4715C21.2954 22.7548 21.3144 21.5843 20.6071 20.8393C19.8914 20.1056 18.7096 20.0772 17.9749 20.7929Z" fill="#2F2F2F"/>
<path d="M24.9507 104.98C24.1413 104.348 22.9699 104.497 22.3374 105.305C21.7143 106.116 21.8533 107.287 22.6721 107.919C23.0068 108.18 23.4057 108.31 23.8076 108.31C24.3645 108.31 24.9147 108.059 25.2768 107.584C25.9094 106.775 25.76 105.603 24.9507 104.98Z" fill="#2F2F2F"/>
<path d="M8.51842 88.2404C7.62684 88.7434 7.30916 89.878 7.82066 90.7714C8.15536 91.3756 8.78788 91.7112 9.44026 91.7103C9.7466 91.7103 10.0624 91.6366 10.3508 91.4683C11.2442 90.9662 11.56 89.8316 11.0485 88.9391C10.5465 88.0456 9.4119 87.7308 8.51842 88.2404Z" fill="#2F2F2F"/>
<path d="M109.908 47.549C110.14 48.3669 110.841 48.8963 111.649 48.8963C111.817 48.8963 111.948 48.8774 112.117 48.8311C113.099 48.5437 113.311 47.5277 113.312 46.5352C112.374 45.5396 112.089 44.9726 111.104 45.2515C110.108 45.5304 109.63 46.5629 109.908 47.549Z" fill="#2F2F2F"/>
<path d="M113.312 46.525C113.312 46.5282 113.312 46.5316 113.312 46.5348C113.312 46.5348 113.312 46.5348 113.312 46.535C113.312 46.535 113.312 46.535 113.312 46.525Z" fill="#2F2F2F"/>
<path d="M107.509 40.8437C107.816 41.551 108.504 41.9689 109.22 41.9689C109.471 41.9689 109.713 41.9225 109.956 41.811C110.903 41.4016 111.33 40.3048 110.922 39.365C110.513 38.4261 109.414 37.9884 108.475 38.3987C107.536 38.8072 107.099 39.9049 107.509 40.8437Z" fill="#2F2F2F"/>
<path d="M2.79931 70.8522C3.82231 70.7321 4.54749 69.8112 4.42647 68.7882C4.30545 67.7652 3.37605 67.04 2.35304 67.1601C1.33854 67.2811 0.613362 68.2115 0.734384 69.225C0.84595 70.1733 1.64582 70.8711 2.57617 70.8711C2.65087 70.8711 2.72461 70.8607 2.79931 70.8522Z" fill="#2F2F2F"/>
<path d="M111.387 55.3123H111.397C111.526 56.2502 112.318 56.5481 113.23 56.5481C113.322 56.5481 113.406 56.1964 113.499 56.1774C114.521 56.0281 115.218 55.1904 115.07 54.1768C114.931 53.1538 113.983 52.648 112.968 52.7974C111.944 52.9458 111.247 54.3754 111.387 55.3123Z" fill="#2F2F2F"/>
<path d="M111.944 61.2849C111.963 62.3089 112.791 62.8128 113.813 62.8118C113.813 62.8118 113.823 62.8118 113.833 62.8118C114.865 62.8118 115.684 60.937 115.674 60.937C115.665 60.937 115.665 60.937 115.665 60.937C115.656 60 114.809 59.2379 113.787 59.2474C112.753 59.2654 111.936 60.2619 111.944 61.2849Z" fill="#2F2F2F"/>
<path d="M2.16661 62.8128C2.17606 62.8128 2.17606 62.8128 2.18457 62.8137C3.19813 62.8137 4.03582 62.2597 4.04433 61.2357C4.05473 60.2118 3.23594 59.6303 2.20443 59.6208C1.18142 59.6114 0.335219 60.2543 0.325765 61.2858C0.31631 62.3088 1.13509 62.8128 2.16661 62.8128Z" fill="#2F2F2F"/>
<path d="M2.44275 56.1594C2.5269 56.1689 2.63185 56.1783 2.71505 56.1783C3.62649 56.1783 4.43866 55.5089 4.56913 54.5786C4.70906 53.565 3.98672 52.6262 2.96371 52.4768C1.9504 52.3277 0.815588 53.0332 0.812988 54.0553C0.815352 55.075 1.42282 56.0112 2.44275 56.1594Z" fill="#2F2F2F"/>
<path d="M3.77584 48.9059C3.94319 48.9522 4.11054 48.9815 4.27694 48.9815C5.09572 48.9815 5.83981 48.4416 6.0724 47.6228C6.35226 46.6367 5.77458 45.6052 4.78939 45.3263C3.79475 45.0464 2.77174 45.6232 2.49282 46.6093C2.21391 47.6039 2.7812 48.6279 3.77584 48.9059Z" fill="#2F2F2F"/>
<path d="M6.00722 41.8856C6.24926 41.9877 6.50076 42.0331 6.74185 42.0331C7.46798 42.0331 8.14589 41.6152 8.45411 40.9174C8.86256 39.9691 8.42575 38.8818 7.48594 38.4724C6.54709 38.063 5.44939 38.4998 5.04094 39.4387C4.6306 40.3785 5.06836 41.4762 6.00722 41.8856Z" fill="#2F2F2F"/>
<path d="M0.812744 54.0492C0.812744 54.0492 0.812744 54.0492 0.812744 54.0583C0.812744 54.0571 0.813225 54.0562 0.813225 54.0551C0.813225 54.0531 0.812744 54.0512 0.812744 54.0492Z" fill="#2F2F2F"/>
<path d="M96.4147 100.21C95.6896 100.944 95.699 102.116 96.4337 102.842C96.7967 103.195 97.26 103.382 97.7346 103.381C98.2178 103.381 98.6924 103.194 99.0545 102.823C99.7797 102.088 99.7712 100.916 99.047 100.19C98.3114 99.4756 97.1305 99.4756 96.4147 100.21Z" fill="#2F2F2F"/>
<path d="M102.803 28.977C103.603 28.3359 103.734 27.1645 103.101 26.3646C102.46 25.5647 101.288 25.4352 100.479 26.0772C99.6786 26.7078 99.5491 27.8812 100.19 28.6895C100.553 29.1453 101.103 29.3873 101.641 29.3873C102.052 29.3873 102.46 29.2559 102.803 28.977Z" fill="#2F2F2F"/>
<path d="M103.668 94.4636C102.85 93.8491 101.688 94.0079 101.065 94.8257C100.451 95.6445 100.61 96.816 101.428 97.4296C101.761 97.6896 102.163 97.8115 102.553 97.8115C103.11 97.8115 103.668 97.5506 104.031 97.0675C104.655 96.2487 104.487 95.0867 103.668 94.4636Z" fill="#2F2F2F"/>
<path d="M98.0249 23.3788C98.7302 22.6356 98.7113 21.4547 97.9672 20.7475C97.2336 20.0318 96.0526 20.0592 95.3454 20.7929C94.6297 21.5379 94.6581 22.7179 95.3918 23.4251C95.7558 23.7702 96.2209 23.947 96.6852 23.946C97.1683 23.946 97.6609 23.7513 98.0249 23.3788Z" fill="#2F2F2F"/>
<path d="M91.0954 104.944C90.2861 105.566 90.1386 106.738 90.7711 107.547C91.1323 108.022 91.6816 108.263 92.2395 108.263C92.6394 108.263 93.0393 108.143 93.374 107.872C94.1834 107.25 94.3309 106.078 93.7002 105.268C93.0781 104.46 91.9048 104.312 91.0954 104.944Z" fill="#2F2F2F"/>
<path d="M113.574 67.0769C112.551 66.9559 111.437 67.6914 111.437 68.704V68.7126C111.437 69.7261 112.114 70.6574 113.136 70.769C113.212 70.7775 113.304 70.7869 113.378 70.7869C114.308 70.7869 115.127 70.0901 115.238 69.1418C115.359 68.1282 114.596 67.1979 113.574 67.0769Z" fill="#2F2F2F"/>
<path d="M112.549 74.357C111.545 74.1055 110.54 74.7106 110.281 75.7053C110.03 76.7008 110.635 77.7059 111.629 77.9659C111.778 78.0037 111.936 78.0217 112.085 78.0207C112.911 78.0207 113.674 77.4629 113.889 76.6252C114.14 75.6211 113.535 74.617 112.549 74.357Z" fill="#2F2F2F"/>
<path d="M106.803 35.1614C107.687 34.632 107.966 33.4879 107.444 32.6049C106.915 31.7312 105.77 31.4429 104.888 31.9733C104.003 32.5018 103.724 33.6458 104.255 34.5298C104.598 35.1056 105.222 35.4309 105.844 35.4309C106.18 35.4309 106.505 35.3392 106.803 35.1614Z" fill="#2F2F2F"/>
<path d="M92.5563 18.4426C93.1605 17.6238 92.9837 16.4523 92.1564 15.8482C91.3282 15.2346 90.1652 15.4104 89.5526 16.2377C88.9474 17.0659 89.1252 18.2279 89.9515 18.8425C90.2862 19.0836 90.6682 19.2037 91.0492 19.2037C91.626 19.2037 92.1829 18.9446 92.5563 18.4426Z" fill="#2F2F2F"/>
<path d="M107.51 88.1772C106.615 87.6751 105.482 87.9824 104.981 88.8844C104.468 89.7769 104.786 90.9115 105.678 91.4135C105.965 91.5799 106.281 91.6546 106.589 91.6556C107.241 91.6556 107.873 91.3209 108.217 90.7158C108.718 89.8232 108.401 88.6896 107.51 88.1772Z" fill="#2F2F2F"/>
<path d="M110.444 81.4339C109.496 81.0529 108.448 81.5181 108.067 82.4664C107.687 83.4157 108.141 84.5039 109.099 84.8849C109.321 84.9776 109.525 85.0239 109.749 85.0239C110.492 85.0239 111.437 84.5788 111.437 83.8527C111.437 82.898 111.401 81.8232 110.444 81.4339Z" fill="#2F2F2F"/>
<path d="M65.1421 115.814C64.1191 115.944 63.4034 116.884 63.5424 117.897C63.6634 118.837 64.4642 119.515 65.3823 119.515C65.457 119.515 65.5411 119.506 65.6243 119.496C66.6379 119.366 67.3631 118.427 67.2241 117.413C67.0936 116.39 66.1548 115.674 65.1421 115.814Z" fill="#2F2F2F"/>
<path d="M58.0368 116.281C57.0147 116.281 56.177 117.107 56.177 118.14C56.177 119.171 57.0147 119.999 58.0368 120C59.0692 120 59.8965 119.162 59.8965 118.14C59.8965 117.107 59.0607 116.281 58.0368 116.281Z" fill="#2F2F2F"/>
<path d="M37.3753 8.55658C37.3753 8.56604 37.3753 8.56604 37.3753 8.56604C36.4384 8.93761 35.7898 10.0079 36.1708 10.9657C36.4497 11.7003 37.1182 12.1551 37.8613 12.1551C38.0854 12.1551 38.2792 12.1182 38.5024 12.0246C39.4601 11.654 40.0113 10.5752 39.6303 9.61741C39.2578 8.65869 37.3753 8.18406 37.3753 8.55658Z" fill="#2F2F2F"/>
<path d="M50.9325 115.824C49.9189 115.685 48.9791 116.41 48.8486 117.424C48.7191 118.446 49.4348 119.377 50.4484 119.506C50.5335 119.515 50.6157 119.524 50.6999 119.525C51.6198 119.525 52.4112 118.847 52.5417 117.909C52.6722 116.885 51.9555 115.954 50.9325 115.824Z" fill="#2F2F2F"/>
<path d="M43.9568 114.429C42.9621 114.169 41.9391 114.755 41.6791 115.749C41.4096 116.735 41.9949 117.758 42.9905 118.029C43.1484 118.065 43.3167 118.092 43.4736 118.094C44.2924 118.094 45.045 117.545 45.2681 116.717C45.5376 115.723 44.9523 114.7 43.9568 114.429Z" fill="#2F2F2F"/>
<path d="M44.3294 6.27794C43.3262 6.51998 42.7211 7.52502 42.9632 8.51872C43.1664 9.37438 43.9304 9.94261 44.7662 9.94167C44.9061 9.94167 45.0546 9.9237 45.204 9.88588C46.2071 9.64384 46.8132 8.63974 46.5702 7.64415C46.3281 6.64951 45.325 6.03684 44.3294 6.27794Z" fill="#2F2F2F"/>
<path d="M72.9527 8.50078C73.1948 7.50614 72.5821 6.5011 71.5856 6.26C70.5805 6.01796 69.5774 6.63252 69.3353 7.62622C69.0943 8.6218 69.7079 9.63536 70.712 9.86794C70.8623 9.90482 71.0003 9.92373 71.1478 9.92373C71.9855 9.92373 72.7485 9.35644 72.9527 8.50078Z" fill="#2F2F2F"/>
<path d="M86.4834 14.2758C86.977 13.3739 86.6413 12.2393 85.7497 11.7476C84.8478 11.2541 83.7122 11.5784 83.2197 12.4813C82.7252 13.3824 83.0523 14.5084 83.9552 15.0095C84.2427 15.1589 84.549 15.2336 84.8478 15.2346C85.5077 15.2346 86.1393 14.8885 86.4834 14.2758Z" fill="#2F2F2F"/>
<path d="M78.84 112.103C77.8898 112.504 77.4436 113.593 77.8445 114.541C78.1423 115.247 78.84 115.684 79.5643 115.684C79.8054 115.684 80.0474 115.638 80.28 115.535C81.2292 115.136 81.6755 114.046 81.2756 113.099C80.8756 112.151 79.7883 111.704 78.84 112.103Z" fill="#2F2F2F"/>
<path d="M85.1993 108.932C84.3163 109.444 84.0184 110.588 84.5394 111.471C84.8845 112.066 85.5076 112.393 86.1382 112.392C86.4644 112.392 86.7802 112.309 87.078 112.141C87.9705 111.62 88.2674 110.476 87.7483 109.592C87.2274 108.709 86.0928 108.411 85.1993 108.932Z" fill="#2F2F2F"/>
<path d="M72.1171 114.41C71.1205 114.68 70.5362 115.703 70.8047 116.698C71.0269 117.526 71.7814 118.065 72.5993 118.066C72.7581 118.066 72.9245 118.047 73.0843 118.009C74.078 117.739 74.6642 116.716 74.3938 115.722C74.1243 114.737 73.1032 114.15 72.1171 114.41Z" fill="#2F2F2F"/>
<path d="M79.9086 10.9373C80.2811 9.97949 79.8065 8.9007 78.8487 8.52913C77.89 8.15661 76.8122 8.63124 76.4406 9.58901C76.069 10.5553 76.5427 11.6246 77.5005 11.9971C77.7236 12.0803 77.9562 12.1276 78.1803 12.1276C78.9234 12.1276 79.6202 11.6719 79.9086 10.9373Z" fill="#2F2F2F"/>
</svg>
