<svg width="98" height="106" viewBox="0 0 98 106" fill="none" xmlns="http://www.w3.org/2000/svg">
<path d="M95.1548 0.955322C54.0241 11.4031 21.5793 36.6005 9.84604 78.5629C17.2686 68.1529 26.3612 58.1362 37.7125 46.6205C38.5563 45.7552 39.9538 45.7378 40.8196 46.59C41.6854 47.4334 41.6986 48.8188 40.8503 49.6798C39.1407 51.4105 37.405 53.2067 35.6601 55.0248C34.6625 56.0605 33.6869 57.092 32.729 58.1058C32.5533 58.2937 32.3774 58.4817 32.2016 58.6739C18.1739 73.6115 8.14531 86.613 0.863255 102.761C0.366592 103.863 0.863254 105.156 1.96638 105.65C2.26075 105.781 2.56398 105.842 2.86721 105.842C3.70665 105.842 4.51087 105.362 4.87549 104.553C7.4684 98.8063 10.4787 93.4745 13.8626 88.2869C44.7542 81.157 69.1651 65.5878 87.1345 43.5089C87.4993 42.8315 87.4816 42.0143 87.0861 41.3499C86.6862 40.6944 85.9698 40.2879 85.1965 40.2879H77.0577L91.6522 31.9931C92.1137 31.7308 92.4697 31.307 92.641 30.8088C95.77 21.7623 97.352 12.4536 97.352 3.14054C97.352 1.93434 96.3678 0.955322 95.1548 0.955322Z" fill="#47D881"/>
</svg>
