<svg id="Capa_1" enable-background="new 0 0 511.746 511.746" height="512" viewBox="0 0 511.746 511.746" width="512" xmlns="http://www.w3.org/2000/svg"><g><path d="m480.918 30.828c-19.879-19.88-46.31-30.828-74.424-30.828s-54.545 10.948-74.425 30.828l-195.757 195.757 4.153 123.483-23.805 23.805-.902-26.815-29.982 1.008 1.844 54.847-20.705 20.706-.902-26.815-29.982 1.01 1.845 54.845-37.876 37.874 21.213 21.213 37.875-37.875 54.845 1.846 1.01-29.982-26.815-.902 20.705-20.706 54.847 1.844 1.008-29.982-26.815-.902 23.805-23.805 123.483 4.153 195.757-195.757c19.88-19.88 30.828-46.311 30.828-74.425s-10.948-54.546-30.828-74.425zm-314.186 207.763 104.785-104.785v85.21l-102.011 102.011zm183.34-55.704h85.21l-84.685 84.685h-85.21zm-76.917 162.127-82.437-2.773 44.669-44.669h85.21zm191.605-192.127h-84.687l40.376-40.376-21.213-21.213-97.718 97.718v-85.21l51.765-51.765c14.213-14.213 33.111-22.041 53.211-22.041s38.998 7.828 53.211 22.041 22.041 33.11 22.041 53.211c0 17.573-5.984 34.226-16.986 47.635z"/></g></svg>