<svg width="120" height="110" viewBox="0 0 120 110" fill="none" xmlns="http://www.w3.org/2000/svg">
<path d="M95.8764 26.1813C91.3127 26.1813 87.6113 29.8827 87.6113 34.4463C87.6113 35.1213 87.7164 35.77 87.8702 36.4001L75.9603 46.7914C75.0039 46.4052 73.9614 46.1801 72.8665 46.1801C71.2839 46.1801 69.8177 46.6489 68.5614 47.4213L49.0426 35.1438C49.0612 34.9114 49.1138 34.6863 49.1138 34.4463C49.1138 29.8827 45.4127 26.1813 40.8488 26.1813C36.2851 26.1813 32.5837 29.8824 32.5837 34.4463C32.5837 35.6351 32.8462 36.7601 33.2961 37.7838L26.0586 46.4351C25.4361 46.2852 24.795 46.1838 24.1274 46.1838C19.5637 46.1838 15.8623 49.8849 15.8623 54.4489C15.8623 59.0125 19.5634 62.7139 24.1274 62.7139C28.691 62.7139 32.3924 59.0128 32.3924 54.4489C32.3924 53.3351 32.1637 52.2739 31.7662 51.3027L39.1124 42.524C39.675 42.644 40.2524 42.7153 40.8488 42.7153C42.4051 42.7153 43.8412 42.2615 45.0826 41.5153L64.6651 53.8342C64.6501 54.0404 64.6014 54.2392 64.6014 54.453C64.6014 59.0167 68.3026 62.7181 72.8665 62.7181C77.4301 62.7181 81.1315 59.0169 81.1315 54.453C81.1315 53.7668 81.0228 53.1105 80.8653 52.4694L92.7566 42.0969C93.7203 42.4907 94.7741 42.7158 95.8803 42.7158C100.444 42.7158 104.145 39.0147 104.145 34.4507C104.145 29.8863 100.44 26.1813 95.8764 26.1813Z" fill="#47D881"/>
<path d="M56.2499 88.4389V101.875H38.4375C34.2953 101.875 30.9375 105.233 30.9375 109.375H89.0625C89.0625 105.233 85.7047 101.875 81.5625 101.875H63.7501V88.4389H116.25C118.313 88.4389 120 86.7513 120 84.689V4.375C120 2.31247 118.312 0.624878 116.25 0.624878H3.74988C1.68759 0.625123 0 2.31247 0 4.375V84.6888C0 86.7513 1.68759 88.4387 3.74988 88.4387L56.2499 88.4389ZM7.5 8.12512H112.5V80.9389H7.5V8.12512Z" fill="#2F2F2F"/>
</svg>
