<svg width="119" height="118" viewBox="0 0 119 118" fill="none" xmlns="http://www.w3.org/2000/svg">
<path d="M116.916 55.4921L99.6668 38.2667C97.6728 36.2727 94.6698 36.2727 92.6758 38.2667C90.6818 40.2607 90.6818 43.2638 92.6758 45.2578L106.418 58.9996L92.6758 72.7414C90.6097 74.9276 90.7539 77.7865 92.6758 79.7324C94.6698 81.7264 97.6728 81.7264 99.6668 79.7324L116.916 62.4831C118.91 60.4891 118.91 57.5101 116.916 55.4921Z" fill="#47D881"/>
<path d="M12.6753 58.9996L26.4171 45.2578C28.4831 43.0716 28.339 40.2127 26.4171 38.2667C24.4231 36.2727 21.4201 36.2727 19.4261 38.2667L2.17673 55.5161C0.182728 57.5101 0.182728 60.5131 2.17673 62.5071L19.4261 79.7324C21.4201 81.7264 24.4231 81.7264 26.4171 79.7324C28.4111 77.7384 28.4111 74.7354 26.4171 72.7414L12.6753 58.9996Z" fill="#47D881"/>
<path d="M45.8045 25.8949L59.5463 12.1291L73.2881 25.8709C75.4743 27.937 78.3332 27.7928 80.2791 25.8709C82.2731 23.8769 82.2731 20.8739 80.2791 18.8798L63.0298 1.63051C61.0358 -0.363491 58.0328 -0.363491 56.0388 1.63051L38.8135 18.8798C36.8195 20.8739 36.8195 23.8769 38.8135 25.8709C40.8075 27.8649 43.8105 27.8889 45.8045 25.8949Z" fill="#47D881"/>
<path d="M73.2881 92.1056L59.5463 105.871L45.8045 92.1296C43.6183 90.0635 40.7594 90.2076 38.8134 92.1296C36.8194 94.1236 36.8194 97.1266 38.8134 99.1206L56.0628 116.37C58.0568 118.364 61.0598 118.364 63.0538 116.37L80.3031 99.1206C82.2971 97.1266 82.2971 94.1236 80.3031 92.1296C78.2851 90.1115 75.2821 90.1115 73.2881 92.1056Z" fill="#47D881"/>
<path d="M90.7778 55.6365L63.0539 27.8886C61.0599 25.8946 58.0569 25.8946 56.0629 27.8886L28.315 55.6365C26.321 57.6305 26.321 60.6335 28.315 62.6275L56.0629 90.1111C58.4413 92.1291 60.6275 92.0571 63.0539 90.3513L90.7778 62.6275C92.7958 60.6335 92.7958 57.6305 90.7778 55.6365ZM59.5464 79.8768L38.8136 59.144L59.5464 38.4111L80.2792 59.144L59.5464 79.8768Z" fill="#47D881"/>
</svg>
