<svg id="Capa_1" enable-background="new 0 0 512 512" height="512" viewBox="0 0 512 512" width="512" xmlns="http://www.w3.org/2000/svg" xmlns:xlink="http://www.w3.org/1999/xlink"><linearGradient id="SVGID_1_" gradientUnits="userSpaceOnUse" x1="4.391" x2="422.754" y1="507.609" y2="89.246"><stop offset="0" stop-color="#00b59c"/><stop offset="1" stop-color="#9cffac"/></linearGradient><g><g><path d="m507.605 174.097-169.702-169.702c-5.859-5.859-15.352-5.859-21.211 0s-5.859 15.352 0 21.211l31.816 31.816-97.573 97.588c-58.726-19.058-123.56-3.735-167.593 40.298-5.859 5.859-5.859 15.352 0 21.211l74.253 74.253-123.2 123.201c-21.856 21.855-34.395 52.119-34.395 83.027 0 8.291 6.709 15 15 15 30.908 0 61.172-12.539 83.027-34.395l123.201-123.201 74.253 74.253c5.859 5.859 15.351 5.859 21.211 0 44.033-44.033 59.341-108.853 40.298-167.593l97.588-97.573 31.816 31.816c5.859 5.859 15.351 5.859 21.211 0s5.86-15.351 0-21.21zm-430.789 282.298c-12.319 12.319-28.213 20.654-45.19 23.979 3.325-16.978 11.66-32.871 23.979-45.19l123.201-123.201 21.211 21.211zm252.254-209.832c-4.219 4.219-5.537 10.532-3.354 16.084 17.739 45.293 9.683 96.211-20.215 133.608l-189.756-189.756c37.412-29.868 88.33-37.954 133.608-20.215 5.596 2.227 11.88.879 16.084-3.354l104.283-104.297 63.647 63.647z" fill="url(#SVGID_1_)"/></g></g></svg>