<svg width="83" height="83" viewBox="0 0 83 83" fill="none" xmlns="http://www.w3.org/2000/svg">
<circle cx="41.5" cy="41.5" r="41.5" fill="#444444"/>
<path d="M41.5 12C33.4858 12 32.4853 12.0369 29.3386 12.177C26.1969 12.3245 24.0581 12.8186 22.1775 13.5487C20.2379 14.301 18.5908 15.3114 16.9511 16.9511C15.3114 18.5908 14.2985 20.2354 13.5487 22.1775C12.8186 24.0581 12.322 26.1969 12.177 29.3386C12.0295 32.4853 12 33.4858 12 41.5C12 49.5142 12.0369 50.5147 12.177 53.6614C12.3245 56.8007 12.8186 58.9419 13.5487 60.8225C14.301 62.7597 15.3114 64.4092 16.9511 66.0489C18.5908 67.6862 20.2354 68.7015 22.1775 69.4513C24.0606 70.1789 26.1993 70.678 29.3386 70.823C32.4853 70.9705 33.4858 71 41.5 71C49.5142 71 50.5147 70.9631 53.6614 70.823C56.8007 70.6755 58.9419 70.1789 60.8225 69.4513C62.7597 68.699 64.4092 67.6862 66.0489 66.0489C67.6862 64.4092 68.7015 62.767 69.4513 60.8225C70.1789 58.9419 70.678 56.8007 70.823 53.6614C70.9705 50.5147 71 49.5142 71 41.5C71 33.4858 70.9631 32.4853 70.823 29.3386C70.6755 26.1993 70.1789 24.0557 69.4513 22.1775C68.699 20.2379 67.6862 18.5908 66.0489 16.9511C64.4092 15.3114 62.767 14.2985 60.8225 13.5487C58.9419 12.8186 56.8007 12.322 53.6614 12.177C50.5147 12.0295 49.5142 12 41.5 12ZM41.5 17.31C49.374 17.31 50.3131 17.3493 53.4229 17.4845C56.2992 17.6197 57.8602 18.0967 58.8976 18.5047C60.2792 19.0382 61.2576 19.6774 62.295 20.7074C63.3251 21.7399 63.9642 22.7208 64.4977 24.1024C64.9009 25.1398 65.3827 26.7008 65.513 29.5771C65.6531 32.6893 65.6851 33.6235 65.6851 41.5C65.6851 49.3765 65.6482 50.3131 65.5032 53.4229C65.3532 56.2992 64.8738 57.8602 64.4682 58.8976C63.9175 60.2792 63.2907 61.2576 62.2582 62.295C61.2281 63.3251 60.2325 63.9642 58.8657 64.4977C57.8332 64.9009 56.2475 65.3827 53.3713 65.513C50.2394 65.6531 49.3175 65.6851 41.4263 65.6851C33.5325 65.6851 32.6107 65.6482 29.4812 65.5032C26.6025 65.3532 25.0169 64.8738 23.9844 64.4682C22.5856 63.9175 21.6244 63.2907 20.5943 62.2582C19.5594 61.2281 18.8981 60.2325 18.3818 58.8657C17.9762 57.8332 17.4993 56.2475 17.3493 53.3713C17.2387 50.2738 17.1994 49.3175 17.1994 41.4631C17.1994 33.6063 17.2387 32.6475 17.3493 29.5132C17.4993 26.6369 17.9762 25.0537 18.3818 24.0212C18.8981 22.62 19.5594 21.6613 20.5943 20.6263C21.6244 19.5963 22.5856 18.9325 23.9844 18.4187C25.0169 18.0106 26.5681 17.5312 29.4443 17.3837C32.5787 17.2731 33.5006 17.2363 41.3894 17.2363L41.5 17.31ZM41.5 26.3517C33.1294 26.3517 26.3517 33.1368 26.3517 41.5C26.3517 49.8706 33.1368 56.6483 41.5 56.6483C49.8706 56.6483 56.6483 49.8633 56.6483 41.5C56.6483 33.1294 49.8633 26.3517 41.5 26.3517ZM41.5 51.3333C36.0671 51.3333 31.6667 46.9329 31.6667 41.5C31.6667 36.0671 36.0671 31.6667 41.5 31.6667C46.9329 31.6667 51.3333 36.0671 51.3333 41.5C51.3333 46.9329 46.9329 51.3333 41.5 51.3333ZM60.7881 25.7544C60.7881 27.7087 59.2 29.2944 57.2481 29.2944C55.2937 29.2944 53.7081 27.7063 53.7081 25.7544C53.7081 23.8025 55.2962 22.2168 57.2481 22.2168C59.1975 22.2144 60.7881 23.8025 60.7881 25.7544Z" fill="white"/>
</svg>
