<svg width="83" height="83" viewBox="0 0 83 83" fill="none" xmlns="http://www.w3.org/2000/svg">
<path d="M41.5 0C30.2258 0 28.8183 0.051875 24.3916 0.249C19.9719 0.4565 16.9631 1.15162 14.3175 2.17875C11.5889 3.237 9.27179 4.65837 6.96508 6.96508C4.65837 9.27179 3.23354 11.5854 2.17875 14.3175C1.15162 16.9631 0.453042 19.9719 0.249 24.3916C0.0415 28.8183 0 30.2258 0 41.5C0 52.7742 0.051875 54.1817 0.249 58.6084C0.4565 63.0247 1.15162 66.0369 2.17875 68.6825C3.237 71.4077 4.65837 73.7282 6.96508 76.0349C9.27179 78.3382 11.5854 79.7665 14.3175 80.8213C16.9666 81.8449 19.9753 82.547 24.3916 82.751C28.8183 82.9585 30.2258 83 41.5 83C52.7742 83 54.1817 82.9481 58.6084 82.751C63.0247 82.5435 66.0369 81.8449 68.6825 80.8213C71.4077 79.763 73.7282 78.3382 76.0349 76.0349C78.3382 73.7282 79.7665 71.418 80.8213 68.6825C81.8449 66.0369 82.547 63.0247 82.751 58.6084C82.9585 54.1817 83 52.7742 83 41.5C83 30.2258 82.9481 28.8183 82.751 24.3916C82.5435 19.9753 81.8449 16.9597 80.8213 14.3175C79.763 11.5889 78.3382 9.27179 76.0349 6.96508C73.7282 4.65837 71.418 3.23354 68.6825 2.17875C66.0369 1.15162 63.0247 0.453042 58.6084 0.249C54.1817 0.0415 52.7742 0 41.5 0ZM41.5 7.47C52.577 7.47 53.8981 7.52533 58.2729 7.71554C62.3192 7.90575 64.5152 8.57667 65.9746 9.15075C67.9182 9.90121 69.2946 10.8004 70.754 12.2494C72.2031 13.7019 73.1022 15.0818 73.8527 17.0254C74.4199 18.4848 75.0977 20.6808 75.281 24.7271C75.4781 29.1053 75.5231 30.4195 75.5231 41.5C75.5231 52.5805 75.4712 53.8981 75.2672 58.2729C75.0562 62.3192 74.3818 64.5152 73.8112 65.9746C73.0365 67.9182 72.1547 69.2946 70.7022 70.754C69.2531 72.2031 67.8525 73.1022 65.9297 73.8527C64.4772 74.4199 62.2465 75.0977 58.2003 75.281C53.7944 75.4781 52.4975 75.5231 41.3963 75.5231C30.2915 75.5231 28.9947 75.4712 24.5922 75.2672C20.5425 75.0562 18.3119 74.3818 16.8594 73.8112C14.8916 73.0365 13.5394 72.1547 12.0903 70.7022C10.6344 69.2531 9.70408 67.8525 8.97783 65.9297C8.40721 64.4772 7.73629 62.2465 7.52533 58.2003C7.36971 53.8428 7.31437 52.4975 7.31437 41.4481C7.31437 30.3953 7.36971 29.0465 7.52533 24.6372C7.73629 20.5909 8.40721 18.3637 8.97783 16.9112C9.70408 14.94 10.6344 13.5913 12.0903 12.1353C13.5394 10.6863 14.8916 9.7525 16.8594 9.02971C18.3119 8.45563 20.4941 7.78125 24.5403 7.57375C28.9497 7.41812 30.2466 7.36625 41.3444 7.36625L41.5 7.47ZM41.5 20.1897C29.7244 20.1897 20.1897 29.7348 20.1897 41.5C20.1897 53.2756 29.7348 62.8103 41.5 62.8103C53.2756 62.8103 62.8103 53.2653 62.8103 41.5C62.8103 29.7244 53.2653 20.1897 41.5 20.1897ZM41.5 55.3333C33.8571 55.3333 27.6667 49.1429 27.6667 41.5C27.6667 33.8571 33.8571 27.6667 41.5 27.6667C49.1429 27.6667 55.3333 33.8571 55.3333 41.5C55.3333 49.1429 49.1429 55.3333 41.5 55.3333ZM68.6341 19.3494C68.6341 22.0987 66.4 24.3294 63.6541 24.3294C60.9047 24.3294 58.6741 22.0953 58.6741 19.3494C58.6741 16.6035 60.9082 14.3728 63.6541 14.3728C66.3965 14.3694 68.6341 16.6035 68.6341 19.3494Z" fill="white"/>
</svg>
