<svg width="83" height="83" viewBox="0 0 83 83" fill="none" xmlns="http://www.w3.org/2000/svg">
<path d="M41.5 0C18.5801 0 0 18.5801 0 41.5C0 64.4199 18.5801 83 41.5 83C64.4199 83 83 64.4199 83 41.5C83 18.5801 64.4199 0 41.5 0ZM25.9503 67.5977H14.2836V30.0605H25.9503V67.5977ZM20.1195 24.9294C16.3801 24.9294 13.353 21.8981 13.353 18.1637C13.3539 14.4327 16.3801 11.4014 20.1195 11.4014C23.8488 11.4014 26.8801 14.4327 26.8801 18.1637C26.8801 21.8989 23.848 24.9294 20.1195 24.9294ZM69.6461 67.5977H57.9888V49.3428C57.9888 44.9895 57.9081 39.3905 51.9245 39.3905C45.8568 39.3905 44.9236 44.1319 44.9236 49.0278V67.5969H33.2671V30.0605H44.4566V35.1899H44.6137C46.1718 32.2385 49.9758 29.1273 55.652 29.1273C67.4656 29.1273 69.6461 36.9017 69.6461 47.0086V67.5977Z" fill="#2F2F2F" fill-opacity="0.9"/>
</svg>
