<?xml version="1.0" encoding="iso-8859-1"?>
<!-- Generator: Adobe Illustrator 19.0.0, SVG Export Plug-In . SVG Version: 6.00 Build 0)  -->
<svg version="1.1" id="Layer_1" xmlns="http://www.w3.org/2000/svg" xmlns:xlink="http://www.w3.org/1999/xlink" x="0px" y="0px"
	 viewBox="0 0 507.68 507.68" style="enable-background:new 0 0 507.68 507.68;" xml:space="preserve">
<g>
	<g>
		<path d="M253.832,102.62c-88.78,0-161.016,72.236-161.016,161.024s72.236,161.02,161.016,161.02
			c88.792,0,161.024-72.232,161.024-161.02C414.856,174.852,342.624,102.62,253.832,102.62z"/>
	</g>
</g>
<g>
	<g>
		<path d="M253.832,0c-15.228,0-27.624,12.396-27.624,27.628c0,15.236,12.396,27.628,27.624,27.628
			c15.24,0,27.628-12.392,27.628-27.628C281.46,12.396,269.068,0,253.832,0z"/>
	</g>
</g>
<g>
	<g>
		<path d="M284.328,23.252c-2.948-2.912-8.22-2.912-11.136,0c-1.448,1.456-2.316,3.504-2.316,5.588c0,2.048,0.868,4.096,2.316,5.548
			c1.46,1.456,3.508,2.284,5.556,2.284c2.08,0,4.088-0.828,5.58-2.284c1.456-1.456,2.28-3.5,2.28-5.548
			C286.608,26.756,285.784,24.708,284.328,23.252z"/>
	</g>
</g>
<g>
	<g>
		<g>
			<path d="M42.1,349.172c-1.616-4.016-6.176-5.984-10.228-4.332c-4.012,1.612-5.98,6.216-4.332,10.228
				c1.224,3.068,4.172,4.916,7.28,4.92c0.984,0,1.968-0.156,2.952-0.552C41.784,357.828,43.756,353.224,42.1,349.172z"/>
			<path d="M80.384,424.072c-3.108,3.068-3.152,8.028-0.08,11.136c1.532,1.536,3.576,2.32,5.584,2.32
				c2.008,0,4.012-0.748,5.548-2.28c3.068-3.028,3.108-8.028,0.04-11.096C88.448,421.04,83.452,421,80.384,424.072z"/>
			<path d="M73.928,111.212c-3.424-2.72-8.38-2.82-11.056,0.56c-2.712,3.388-2.16,8.344,1.22,11.06
				c1.456,1.136,3.188,2.42,4.92,2.42c2.324,0,4.604-2.296,6.176-2.296h-0.04C77.864,118.988,77.312,113.924,73.928,111.212z"/>
			<path d="M60.748,399.876c-3.46,2.6-4.132,7.556-1.536,11.016c1.576,2.048,3.896,3.112,6.292,3.112
				c1.656,0,3.308-0.512,4.764-1.576c3.464-2.64,4.132-7.596,1.496-11.056C69.124,397.908,64.208,397.24,60.748,399.876z"/>
			<path d="M55.28,135.54c-3.704-2.24-8.54-1.064-10.784,2.676c-2.236,3.736-1.02,8.576,2.68,10.776
				c1.296,0.788,2.676,1.14,4.052,1.144c2.676,0,5.308-1.336,6.764-3.816C60.24,142.58,59.016,137.74,55.28,135.54z"/>
			<path d="M165.948,475.944h-0.04c-3.972-3.964-8.612-0.54-10.268,3.472c-1.692,4.012,0.2,7.84,4.212,9.492
				c1.02,0.432,2.044,1.016,3.032,1.012c3.064,0,6.02-1.42,7.276-4.448C171.852,481.46,169.924,475.944,165.948,475.944z"/>
			<path d="M32.696,321.264h0.04c-1.096-7.932-5.384-7.1-9.596-6c-4.212,1.068-6.768,5.024-5.668,9.232
				c0.904,3.544,4.088,6.108,7.628,6.104c0.636,0,1.3,0.088,1.968-0.104C31.284,329.432,33.8,325.228,32.696,321.264z"/>
			<path d="M138.956,460.98c-3.732-2.208-8.576-0.908-10.74,2.828c-2.2,3.74-0.94,8.58,2.832,10.784
				c1.224,0.704,2.6,1.056,3.932,1.06c2.716,0,5.352-1.412,6.808-3.896C143.992,467.98,142.732,463.184,138.956,460.98z"/>
			<path d="M136.168,49.856c-3.816,2.08-5.196,6.88-3.068,10.696c1.412,2.596,4.092,4.052,6.884,4.06
				c1.264,0,2.556-0.316,3.78-0.984c3.816-2.092,5.192-6.888,3.108-10.668C144.748,49.144,139.984,47.768,136.168,49.856z"/>
			<path d="M109.1,67.204c-3.508,2.596-4.248,7.512-1.692,11.016c1.572,2.084,3.932,3.184,6.372,3.184
				c1.612,0,3.224-0.472,4.64-1.532c3.504-2.556,4.256-7.516,1.656-11.016C117.516,65.392,112.556,64.644,109.1,67.204z"/>
			<path d="M84.508,87.968c-3.144,3.036-3.224,7.988-0.192,11.136c1.532,1.58,3.58,2.404,5.664,2.4c1.968,0,3.932-0.748,5.428-2.204
				c3.148-3.032,3.228-7.984,0.236-11.136C92.616,85.06,87.616,84.94,84.508,87.968z"/>
			<path d="M114.02,444.136c-3.424-2.676-8.38-2.044-11.056,1.376c-2.636,3.428-2.048,8.384,1.416,11.056
				c1.416,1.104,3.104,1.656,4.804,1.656c2.356,0,4.684-1.064,6.216-3.072C118.076,451.728,117.444,446.772,114.02,444.136z"/>
			<path d="M44.5,373.316c-3.772,2.128-5.116,6.928-2.952,10.708c1.416,2.556,4.092,3.976,6.852,3.972
				c1.296,0,2.632-0.312,3.852-1.024c3.78-2.124,5.116-6.924,2.952-10.7C53.08,372.492,48.28,371.16,44.5,373.316z"/>
			<path d="M473.444,201.164c0.984,3.46,3.948,5.7,7.368,5.7c0.708,0,1.264-0.08,1.98-0.276c4.154-1.216,5.049-5.514,5.055-9.713
				c-3.968-4.212-5.176-6.611-9.343-5.431C474.292,192.624,472.268,196.992,473.444,201.164z"/>
			<path d="M487.848,196.832c0,0.014-0.001,0.029-0.001,0.043c0,0,0,0,0.001,0.001C487.848,196.876,487.848,196.876,487.848,196.832
				z"/>
			<path d="M463.296,172.796c1.3,2.992,4.208,4.76,7.24,4.76c1.06,0,2.084-0.196,3.112-0.668c4.008-1.732,5.812-6.372,4.088-10.348
				c-1.732-3.972-6.38-5.824-10.352-4.088C463.412,164.18,461.56,168.824,463.296,172.796z"/>
			<path d="M20.304,299.752c4.328-0.508,7.396-4.404,6.884-8.732c-0.512-4.328-4.444-7.396-8.772-6.888
				c-4.292,0.512-7.36,4.448-6.848,8.736c0.472,4.012,3.856,6.964,7.792,6.964C19.676,299.832,19.988,299.788,20.304,299.752z"/>
			<path d="M479.704,234.008h0.04c0.548,3.968,3.896,5.228,7.756,5.228c0.388,0,0.744-1.488,1.14-1.568
				c4.32-0.632,7.272-4.176,6.644-8.464c-0.588-4.328-4.6-6.468-8.892-5.836C482.06,223.996,479.112,230.044,479.704,234.008z"/>
			<path d="M482.06,259.276c0.08,4.332,3.584,6.464,7.908,6.46c0,0,0.04,0,0.084,0c4.364,0,7.828-7.932,7.788-7.932
				c-0.04,0-0.04,0-0.04,0c-0.036-3.964-3.62-7.188-7.944-7.148C485.484,250.732,482.024,254.948,482.06,259.276z"/>
			<path d="M17.628,265.74c0.04,0,0.04,0,0.076,0.004c4.288,0,7.832-2.344,7.868-6.676c0.044-4.332-3.42-6.792-7.784-6.832
				c-4.328-0.04-7.908,2.68-7.948,7.044C9.8,263.608,13.264,265.74,17.628,265.74z"/>
			<path d="M18.796,237.592c0.356,0.04,0.8,0.08,1.152,0.08c3.856,0,7.292-2.832,7.844-6.768c0.592-4.288-2.464-8.26-6.792-8.892
				c-4.287-0.631-9.088,2.354-9.099,6.678C11.911,233.004,14.481,236.965,18.796,237.592z"/>
			<path d="M24.436,206.904c0.708,0.196,1.416,0.32,2.12,0.32c3.464,0,6.612-2.284,7.596-5.748c1.184-4.172-1.26-8.536-5.428-9.716
				c-4.208-1.184-8.536,1.256-9.716,5.428C17.828,201.396,20.228,205.728,24.436,206.904z"/>
			<path d="M33.876,177.204c1.024,0.432,2.088,0.624,3.108,0.624c3.072,0,5.94-1.768,7.244-4.72
				c1.728-4.012-0.12-8.612-4.096-10.344c-3.972-1.732-8.616,0.116-10.344,4.088C28.052,170.828,29.904,175.472,33.876,177.204z"/>
			<path d="M11.9,228.664c0,0,0,0,0,0.04c0-0.005,0.001-0.009,0.001-0.014C11.901,228.681,11.9,228.673,11.9,228.664z"/>
			<path d="M479.916,354.788c0,0,0,0,0-0.036c0,0,0,0.001,0,0.001C479.916,354.765,479.916,354.777,479.916,354.788z"/>
			<path d="M416.36,423.956c-3.068,3.104-3.028,8.064,0.08,11.136c1.536,1.492,3.496,2.284,5.504,2.28
				c2.044,0,4.052-0.792,5.584-2.364c3.068-3.108,3.032-8.064-0.032-11.136C424.384,420.848,419.388,420.848,416.36,423.956z"/>
			<path d="M443.388,122.592c3.384-2.712,3.936-7.668,1.26-11.052c-2.712-3.384-7.672-3.932-11.092-1.216
				c-3.388,2.668-3.936,7.632-1.224,11.052c1.536,1.928,3.86,2.952,6.14,2.952C440.208,124.328,441.936,123.772,443.388,122.592z"/>
			<path d="M447.048,399.644c-3.46-2.6-8.38-1.928-11.012,1.532c-2.6,3.464-1.928,8.42,1.532,11.016
				c1.412,1.1,3.112,1.616,4.76,1.616c2.356,0,4.72-1.104,6.256-3.148C451.224,407.196,450.512,402.28,447.048,399.644z"/>
			<path d="M423.172,98.908c2.984-3.144,2.904-8.14-0.244-11.132c-3.104-3.028-8.1-2.912-11.092,0.192
				c-3.028,3.152-2.908,8.144,0.196,11.136c1.54,1.46,3.508,2.208,5.472,2.204C419.548,101.308,421.632,100.484,423.172,98.908z"/>
			<path d="M393.856,443.984c-3.424,2.632-4.048,7.588-1.372,11.012c1.528,2.008,3.852,3.028,6.212,3.028
				c1.692,0,3.384-0.508,4.8-1.652c3.424-2.632,4.048-7.592,1.38-11.016C402.244,441.936,397.28,441.308,393.856,443.984z"/>
			<path d="M488.956,283.78c-4.328-0.512-9.044,2.6-9.044,6.884v0.036c0,4.288,2.868,8.228,7.188,8.7
				c0.324,0.036,0.712,0.076,1.024,0.076c3.936,0,7.4-2.948,7.872-6.96C496.508,288.228,493.28,284.292,488.956,283.78z"/>
			<path d="M484.62,314.58c-4.248-1.064-8.5,1.496-9.596,5.704c-1.064,4.212,1.496,8.464,5.704,9.564
				c0.628,0.16,1.296,0.236,1.928,0.232c3.496,0,6.724-2.36,7.632-5.904C491.348,319.928,488.792,315.68,484.62,314.58z"/>
			<path d="M460.308,148.756c3.74-2.24,4.92-7.08,2.712-10.816c-2.236-3.696-7.08-4.916-10.812-2.672
				c-3.744,2.236-4.924,7.076-2.68,10.816c1.452,2.436,4.092,3.812,6.724,3.812C457.672,149.896,459.048,149.508,460.308,148.756z"
				/>
			<path d="M400.036,78.024c2.556-3.464,1.808-8.42-1.692-10.976c-3.504-2.596-8.424-1.852-11.016,1.648
				c-2.56,3.504-1.808,8.42,1.688,11.02c1.416,1.02,3.032,1.528,4.644,1.528C396.1,81.244,398.456,80.148,400.036,78.024z"/>
			<path d="M463.3,373.048c-3.784-2.124-8.58-0.824-10.7,2.992c-2.168,3.776-0.824,8.576,2.948,10.7
				c1.216,0.704,2.552,1.02,3.856,1.024c2.76,0,5.432-1.416,6.888-3.976C468.412,380.012,467.072,375.216,463.3,373.048z"/>
			<path d="M475.716,344.52c-4.012-1.612-8.448,0.356-10.06,4.368c-1.608,4.016,0.316,8.62,4.368,10.232
				c0.94,0.392,1.8,0.588,2.748,0.588c3.143,0,7.143-1.883,7.144-4.955C479.915,350.714,479.761,346.167,475.716,344.52z"/>
			<path d="M284.056,489.972c-4.328,0.548-7.356,4.524-6.768,8.812c0.512,3.976,3.9,6.844,7.784,6.844
				c0.316,0,0.672-0.04,1.024-0.08c4.288-0.552,7.356-4.524,6.768-8.812C292.312,492.408,288.34,489.38,284.056,489.972z"/>
			<path d="M253.996,491.944c-4.324,0-7.868,3.496-7.868,7.868c0,4.36,3.544,7.864,7.868,7.868c4.368,0,7.868-3.544,7.868-7.868
				C261.864,495.44,258.328,491.944,253.996,491.944z"/>
			<path d="M166.584,36.2c0,0.04,0,0.04,0,0.04c-3.964,1.572-6.708,6.1-5.096,10.152c1.18,3.108,4.008,5.032,7.152,5.032
				c0.948,0,1.768-0.156,2.712-0.552c4.052-1.568,6.384-6.132,4.772-10.184C174.548,36.632,166.584,34.624,166.584,36.2z"/>
			<path d="M223.94,490.012c-4.288-0.588-8.264,2.48-8.816,6.768c-0.548,4.324,2.48,8.264,6.768,8.812
				c0.36,0.036,0.708,0.076,1.064,0.08c3.892,0,7.24-2.868,7.792-6.84C231.3,494.5,228.268,490.564,223.94,490.012z"/>
			<path d="M194.428,484.112c-4.208-1.1-8.536,1.38-9.636,5.584c-1.14,4.172,1.336,8.5,5.548,9.644
				c0.668,0.152,1.38,0.268,2.044,0.276c3.464,0,6.648-2.324,7.592-5.824C201.116,489.584,198.64,485.256,194.428,484.112z"/>
			<path d="M196.004,26.56c-4.244,1.024-6.804,5.276-5.78,9.48c0.86,3.62,4.092,6.024,7.628,6.02c0.592,0,1.22-0.076,1.852-0.236
				c4.244-1.024,6.808-5.272,5.78-9.484C204.46,28.132,200.216,25.54,196.004,26.56z"/>
			<path d="M317.1,35.964c1.024-4.208-1.568-8.46-5.784-9.48c-4.252-1.024-8.496,1.576-9.52,5.78c-1.02,4.212,1.576,8.5,5.824,9.484
				c0.636,0.156,1.22,0.236,1.844,0.236C313.008,41.984,316.236,39.584,317.1,35.964z"/>
			<path d="M374.344,60.396c2.088-3.816,0.668-8.616-3.104-10.696c-3.816-2.088-8.62-0.716-10.704,3.104
				c-2.092,3.812-0.708,8.576,3.112,10.696c1.216,0.632,2.512,0.948,3.776,0.952C370.216,64.452,372.888,62.988,374.344,60.396z"/>
			<path d="M342.008,474.272c-4.02,1.696-5.908,6.3-4.212,10.312c1.26,2.988,4.212,4.836,7.276,4.836
				c1.02,0,2.044-0.196,3.028-0.632c4.016-1.688,5.904-6.296,4.212-10.304C350.62,474.472,346.02,472.584,342.008,474.272z"/>
			<path d="M368.912,460.856c-3.736,2.164-4.996,7.004-2.792,10.74c1.46,2.52,4.096,3.9,6.764,3.896c1.38,0,2.716-0.352,3.976-1.06
				c3.776-2.204,5.032-7.044,2.836-10.784C377.492,459.912,372.692,458.652,368.912,460.856z"/>
			<path d="M313.564,484.032c-4.216,1.14-6.688,5.468-5.552,9.68c0.94,3.5,4.132,5.78,7.592,5.784c0.672,0,1.376-0.08,2.052-0.24
				c4.204-1.14,6.684-5.468,5.54-9.676C322.056,485.412,317.736,482.932,313.564,484.032z"/>
			<path d="M346.528,46.272c1.576-4.052-0.432-8.616-4.484-10.188c-4.056-1.576-8.616,0.432-10.188,4.484
				c-1.572,4.088,0.432,8.612,4.484,10.188c0.944,0.352,1.928,0.552,2.876,0.552C342.36,51.308,345.308,49.38,346.528,46.272z"/>
		</g>
	</g>
</g>
<g>
	<g>
		<path d="M234.88,23.216c-2.952-2.912-8.18-2.912-11.132,0c-1.456,1.456-2.284,3.504-2.284,5.588c0,2.044,0.828,4.084,2.284,5.544
			s3.5,2.324,5.584,2.324c2.044,0,4.088-0.864,5.548-2.324c1.452-1.456,2.28-3.5,2.28-5.544
			C237.16,26.72,236.336,24.672,234.88,23.216z"/>
	</g>
</g>
<g>
</g>
<g>
</g>
<g>
</g>
<g>
</g>
<g>
</g>
<g>
</g>
<g>
</g>
<g>
</g>
<g>
</g>
<g>
</g>
<g>
</g>
<g>
</g>
<g>
</g>
<g>
</g>
<g>
</g>
</svg>
