<svg width="119" height="119" viewBox="0 0 119 119" fill="none" xmlns="http://www.w3.org/2000/svg">
<path d="M115.285 45.8396L106.236 43.8726C105.449 41.4636 104.475 39.1138 103.324 36.8504L108.333 29.0584C109.228 27.6661 109.031 25.8383 107.862 24.6688L93.7654 10.5723C92.5959 9.40282 90.7681 9.20611 89.3758 10.1007L81.5838 15.1101C79.3204 13.9594 76.9706 12.9849 74.5616 12.1981L72.5945 3.14948C72.2433 1.5327 70.8116 0.379395 69.1571 0.379395H49.2222C47.5677 0.379395 46.1359 1.5327 45.7847 3.14948L43.8177 12.1981C41.4087 12.9849 39.0589 13.9594 36.7955 15.1101L29.0035 10.1007C27.6112 9.20611 25.7834 9.40282 24.6139 10.5723L10.5174 24.6688C9.34792 25.8383 9.15121 27.6661 10.0458 29.0584L15.0552 36.8504C13.9045 39.1138 12.93 41.4636 12.1432 43.8726L3.09458 45.8396C1.4778 46.1917 0.324493 47.6226 0.324493 49.2771V69.212C0.324493 70.8665 1.4778 72.2974 3.09458 72.6494L12.1432 74.6165C12.93 77.0255 13.9045 79.3753 15.0552 81.6387L10.0458 89.4307C9.15121 90.823 9.34792 92.6508 10.5174 93.8203L24.6139 107.917C25.7834 109.086 27.6112 109.283 29.0035 108.388L36.7955 103.379C39.0589 104.53 41.4087 105.504 43.8177 106.291L45.7847 115.34C46.1359 116.956 47.5677 118.11 49.2222 118.11H69.1571C70.8116 118.11 72.2433 116.956 72.5945 115.34L74.5616 106.291C76.9706 105.504 79.3204 104.53 81.5838 103.379L89.3758 108.388C90.7681 109.283 92.5959 109.087 93.7654 107.917L107.862 93.8203C109.031 92.6508 109.228 90.823 108.333 89.4307L103.324 81.6387C104.475 79.3753 105.449 77.0255 106.236 74.6165L115.285 72.6494C116.901 72.2974 118.055 70.8665 118.055 69.212V49.2771C118.055 47.6226 116.901 46.1917 115.285 45.8396V45.8396ZM59.1896 87.3873C43.6722 87.3873 31.0469 74.762 31.0469 59.2445C31.0469 43.7271 43.6722 31.1018 59.1896 31.1018C74.7071 31.1018 87.3324 43.7271 87.3324 59.2445C87.3324 74.762 74.7071 87.3873 59.1896 87.3873Z" fill="#47D881"/>
</svg>
