<svg width="109" height="109" viewBox="0 0 109 109" fill="none" xmlns="http://www.w3.org/2000/svg">
<path d="M87.7411 0.988685C88.8963 1.16641 89.3628 2.56595 88.5409 3.38791L81.3211 10.6078C77.9 14.0289 77.9 19.5827 81.3211 23.026L85.764 27.469C89.1851 30.8902 94.7388 30.8902 98.1821 27.469L105.402 20.2491C106.224 19.4272 107.623 19.8937 107.801 21.0489C108.867 28.2688 106.646 35.8885 101.07 41.4423C95.6274 46.885 88.1854 49.1509 81.0767 48.2179C77.9444 47.7958 74.8121 48.8621 72.5907 51.0836L18.631 105.044C14.5212 109.154 7.87901 109.132 3.76927 105.022C-0.340459 100.912 -0.362681 94.2475 3.74705 90.1599L57.7068 36.1773C59.9282 33.9558 60.9945 30.8235 60.5725 27.6912C59.6394 20.6046 61.9053 13.1625 67.348 7.69763C72.9239 2.16608 80.5435 -0.0776379 87.7411 0.988685ZM9.96719 94.4919C8.76759 95.6915 8.76759 97.6242 9.96719 98.8238C11.1668 100.023 13.0995 100.023 14.2991 98.8238L69.3473 43.7749C70.5469 42.5753 70.5469 40.6426 69.3473 39.443C68.1477 38.2433 66.215 38.2433 65.0154 39.443L9.96719 94.4919Z" fill="#47D881"/>
</svg>
