<svg width="83" height="83" viewBox="0 0 83 83" fill="none" xmlns="http://www.w3.org/2000/svg">
<path d="M41.5 0C18.5815 0 0 18.5815 0 41.5C0 64.421 18.5815 83 41.5 83C64.4184 83 83 64.421 83 41.5C82.9997 18.5815 64.4182 0 41.5 0ZM53.1249 73.115C52.8861 69.8676 52.6192 65.8447 52.6035 64.2159C52.4998 62.9657 52.3648 59.7858 49.3459 57.755C61.3314 56.7512 67.0351 50.1268 67.445 41.3729C67.7875 36.3879 65.8057 32.0042 62.2862 28.4665C62.4651 24.6823 62.1719 20.1976 61.9283 18.2266C59.2257 17.4485 52.9229 20.7762 51.1616 22.2002C47.4472 20.758 38.3563 20.2523 32.8316 22.2002C28.915 19.4457 24.4564 17.7442 22.0261 18.2189C19.7824 23.1911 21.2247 27.891 21.6628 28.4511C18.7733 31.0917 14.7427 34.3416 15.8373 41.1501C17.5932 51.1334 24.6171 56.5182 35.9257 57.8356C33.5137 58.3285 33.1063 60.1286 32.904 60.9092C25.3094 64.0424 23.1387 58.9744 22.1788 57.6541C18.9912 53.709 16.1302 54.8529 15.9538 54.915C15.7826 54.9771 15.653 55.2261 15.6712 55.3455C15.8319 56.1962 17.5673 57.0601 17.6527 57.1299C20.0052 58.8832 20.8768 62.0503 21.4136 62.9529C24.788 68.5009 32.6316 66.2003 32.7068 66.247C32.7119 66.7319 32.6524 70.8147 32.6057 73.992C18.304 70.0856 7.78118 57.039 7.78118 41.5C7.78118 22.8769 22.8769 7.78146 41.4997 7.78146C60.1226 7.78146 75.2185 22.8769 75.2185 41.5C75.2185 56.0327 66.0108 68.3761 53.1249 73.115Z" fill="#2F2F2F" fill-opacity="0.9"/>
</svg>
