<svg width="83" height="83" viewBox="0 0 83 83" fill="none" xmlns="http://www.w3.org/2000/svg">
<path d="M41.5 0C18.5801 0 0 18.5801 0 41.5C0 64.4199 18.5801 83 41.5 83C64.4199 83 83 64.4199 83 41.5C83 18.5801 64.4199 0 41.5 0ZM25.9503 69.5977H14.2836V32.0605H25.9503V69.5977ZM20.1195 26.9294C16.3801 26.9294 13.353 23.8981 13.353 20.1637C13.3539 16.4327 16.3801 13.4014 20.1195 13.4014C23.8488 13.4014 26.8801 16.4327 26.8801 20.1637C26.8801 23.8989 23.848 26.9294 20.1195 26.9294ZM69.6461 69.5977H57.9888V51.3428C57.9888 46.9895 57.9081 41.3905 51.9245 41.3905C45.8568 41.3905 44.9236 46.1319 44.9236 51.0278V69.5969H33.2671V32.0605H44.4566V37.1899H44.6137C46.1718 34.2385 49.9758 31.1273 55.652 31.1273C67.4656 31.1273 69.6461 38.9017 69.6461 49.0086V69.5977Z" fill="#2F2F2F" fill-opacity="0.9"/>
</svg>
